<svg width="25" height="20" viewBox="0 0 25 20" fill="none" xmlns="http://www.w3.org/2000/svg">
<path d="M12.625 16.9482L12.5 17.0572L12.3625 16.9482C6.425 12.2507 2.5 9.14441 2.5 5.99455C2.5 3.81471 4.375 2.17984 6.875 2.17984C8.8 2.17984 10.675 3.26975 11.3375 4.75204H13.6625C14.325 3.26975 16.2 2.17984 18.125 2.17984C20.625 2.17984 22.5 3.81471 22.5 5.99455C22.5 9.14441 18.575 12.2507 12.625 16.9482ZM18.125 0C15.95 0 13.8625 0.882834 12.5 2.26703C11.1375 0.882834 9.05 0 6.875 0C3.025 0 0 2.6267 0 5.99455C0 10.1035 4.25 13.4714 10.6875 18.5613L12.5 20L14.3125 18.5613C20.75 13.4714 25 10.1035 25 5.99455C25 2.6267 21.975 0 18.125 0Z" fill="#AA0000"/>
</svg>
