<svg width="25" height="20" viewBox="0 0 25 20" fill="none" xmlns="http://www.w3.org/2000/svg">
<path fill-rule="evenodd" clip-rule="evenodd" d="M12.5 18.2857C17.0841 18.2857 21.2341 15.0714 23.4636 10C21.2341 4.92857 17.0841 1.71429 12.5 1.71429C7.91591 1.71429 3.76591 4.92857 1.53636 10C3.76591 15.0714 7.91591 18.2857 12.5 18.2857ZM12.5 0C17.9636 0 22.6955 4.06857 25 10C22.6955 15.9314 17.9636 20 12.5 20C7.03636 20 2.30455 15.9314 0 10C2.30455 4.06857 7.03636 0 12.5 0ZM12.5 14C13.3439 14 14.1532 13.5786 14.7499 12.8284C15.3466 12.0783 15.6818 11.0609 15.6818 10C15.6818 8.93913 15.3466 7.92172 14.7499 7.17157C14.1532 6.42143 13.3439 6 12.5 6C11.6561 6 10.8468 6.42143 10.2501 7.17157C9.65341 7.92172 9.31818 8.93913 9.31818 10C9.31818 11.0609 9.65341 12.0783 10.2501 12.8284C10.8468 13.5786 11.6561 14 12.5 14ZM12.5 15.7143C11.2945 15.7143 10.1383 15.1122 9.28588 14.0406C8.43344 12.969 7.95455 11.5155 7.95455 10C7.95455 8.48448 8.43344 7.03103 9.28588 5.95939C10.1383 4.88775 11.2945 4.28571 12.5 4.28571C13.7055 4.28571 14.8617 4.88775 15.7141 5.95939C16.5666 7.03103 17.0455 8.48448 17.0455 10C17.0455 11.5155 16.5666 12.969 15.7141 14.0406C14.8617 15.1122 13.7055 15.7143 12.5 15.7143Z" fill="black"/>
</svg>
