<svg width="50" height="50" viewBox="0 0 50 50" fill="none" xmlns="http://www.w3.org/2000/svg">
<path d="M25.1001 42C15.7001 42 8.1001 34.4 8.1001 25C8.1001 15.6 15.7001 8 25.1001 8C34.5001 8 42.1001 15.6 42.1001 25C42.1001 34.4 34.4001 42 25.1001 42ZM25.1001 10C16.8001 10 10.1001 16.7 10.1001 25C10.1001 33.3 16.8001 40 25.1001 40C33.4001 40 40.1001 33.3 40.1001 25C40.1001 16.7 33.3001 10 25.1001 10Z" fill="black"/>
<path d="M15.3 37.3L13.5 36.5C14 35.3 15.6 34.6 17.3 33.8C19 33 21.1 32.1 21.1 31V29.5C20.5 29 19.5 27.9 19.3 26.3C18.8 25.8 18 24.9 18 23.7C18 23 18.3 22.4 18.5 22C18.3 21.2 18.1 19.7 18.1 18.5C18.1 14.6 20.8 12 25.1 12C26.3 12 27.8 12.3 28.6 13.2C30.5 13.6 32.1 15.8 32.1 18.5C32.1 20.2 31.8 21.6 31.6 22.3C31.8 22.6 32 23.1 32 23.7C32 25 31.3 25.9 30.7 26.3C30.5 27.9 29.6 28.9 29 29.4V31C29 31.9 30.8 32.6 32.4 33.2C34.3 33.9 36.3 34.7 37 36.3L35.1 37C34.8 36.2 33.2 35.6 31.7 35.1C29.5 34.3 27 33.4 27 31.1V28.5L27.5 28.2C27.5 28.2 28.7 27.4 28.7 25.8V25.1L29.3 24.8C29.4 24.8 29.9 24.5 29.9 23.7C29.9 23.5 29.7 23.2 29.6 23.1L29.2 22.7L29.4 22.2C29.4 22.2 29.9 20.6 29.9 18.6C29.9 16.7 28.8 15.3 27.9 15.3H27.3L27 14.8C27 14.4 26.3 14 25.1 14C22 14 20.1 15.7 20.1 18.5C20.1 19.8 20.6 22 20.6 22L20.7 22.5L20.3 23C20.2 23 20 23.3 20 23.7C20 24.2 20.6 24.8 20.9 25L21.3 25.3V25.8C21.3 27.3 22.6 28.1 22.6 28.2L23.1 28.5V31.1C23.1 33.5 20.5 34.7 18.1 35.7C17 36.1 15.5 36.8 15.3 37.3Z" fill="black"/>
</svg>
