<svg width="225" height="225" viewBox="0 0 225 225" fill="none" xmlns="http://www.w3.org/2000/svg">
<path d="M27.234 216.388C56.8928 195.893 76.72 164.577 91.3036 126.21C106.051 88.0077 121.782 55.2158 114.9 17.5052C113.916 11.6027 105.559 5.53616 101.299 6.02803C84.5853 7.01179 85.7323 25.8671 87.3709 37.1803C91.3036 65.2174 112.933 97.8453 133.907 128.342C154.718 159.002 171.923 163.757 195.847 165.397C204.04 165.888 216.329 163.101 218.296 155.887C230.913 109.978 70.4933 147.033 17.0746 189.99C10.5202 195.401 2.98256 206.386 7.24294 213.929C10.5202 219.831 21.4988 220.487 27.3978 216.388H27.234Z" stroke="#ED8796" stroke-width="12" stroke-linecap="round" stroke-linejoin="round"/>
</svg>
