<svg width="149" height="64" viewBox="0 0 149 64" fill="none" xmlns="http://www.w3.org/2000/svg">
<path d="M15.7374 23.359C14.7804 23.1393 13.9647 22.8413 13.2901 22.4648C12.6155 22.0882 12.0586 21.6725 11.6193 21.2176C11.1957 20.7626 10.882 20.2841 10.678 19.7821C10.4741 19.2801 10.3721 18.7938 10.3721 18.3231C10.3721 17.9623 10.427 17.625 10.5368 17.3112C10.6623 16.9818 10.8349 16.6994 11.0545 16.4641C11.2742 16.2131 11.5409 16.017 11.8546 15.8758C12.1684 15.7346 12.5292 15.664 12.9371 15.664H19.3849V24.1355C19.3849 25.3592 19.2437 26.4103 18.9613 27.2888C18.6789 28.1674 18.2004 28.8027 17.5259 29.1949C16.867 29.5871 16.31 29.7832 15.8551 29.7832H14.2314C12.5214 29.7832 11.1016 29.3047 9.97207 28.3478C8.84253 27.4065 7.80712 25.367 6.86584 22.2294L9.59556 20.6763C9.87794 21.2882 10.1682 21.798 10.4662 22.2059C10.78 22.5981 11.1094 22.9119 11.4546 23.1472C11.8154 23.3825 12.1998 23.5551 12.6077 23.6649C13.0155 23.759 13.4548 23.8061 13.9255 23.8061H15.7374V23.359ZM15.7374 18.3467H14.1372C14.1372 18.4251 14.1686 18.5349 14.2314 18.6761C14.2941 18.8016 14.3882 18.9428 14.5138 19.0997C14.6393 19.2566 14.804 19.4134 15.0079 19.5703C15.2119 19.7115 15.455 19.837 15.7374 19.9468V18.3467ZM14.6785 13.3579C14.6 13.6089 14.4667 13.8207 14.2784 13.9932C13.9647 14.2913 13.5803 14.4403 13.1254 14.4403C12.6704 14.4403 12.2782 14.2991 11.9488 14.0168C11.635 13.7187 11.4781 13.3579 11.4781 12.9343C11.4781 12.5107 11.635 12.1499 11.9488 11.8518C12.2782 11.5537 12.6704 11.4047 13.1254 11.4047C13.5803 11.4047 13.9647 11.5537 14.2784 11.8518C14.4667 12.0401 14.6 12.2597 14.6785 12.5107C14.7569 12.2597 14.8981 12.0401 15.1021 11.8518C15.4315 11.5537 15.8237 11.4047 16.2787 11.4047C16.7336 11.4047 17.118 11.5537 17.4317 11.8518C17.7455 12.1499 17.9024 12.5107 17.9024 12.9343C17.9024 13.3579 17.7455 13.7187 17.4317 14.0168C17.118 14.2991 16.7336 14.4403 16.2787 14.4403C15.8237 14.4403 15.4315 14.2913 15.1021 13.9932C14.8981 13.8207 14.7569 13.6089 14.6785 13.3579ZM19.991 26.677C20.1479 26.7084 20.3048 26.7319 20.4617 26.7476C20.6028 26.7633 20.7362 26.7711 20.8617 26.7711C21.5206 26.7711 22.0383 26.5907 22.4148 26.2299C22.7913 25.8534 22.9796 25.2572 22.9796 24.4415V15.664H26.8388V25.4533C26.8388 26.222 26.729 26.8809 26.5094 27.43C26.3054 27.9791 26.0152 28.4262 25.6387 28.7713C25.2622 29.1322 24.8072 29.3989 24.2738 29.5714C23.7561 29.744 23.1914 29.8303 22.5795 29.8303C21.5912 29.8303 20.5323 29.6263 19.4027 29.2185L19.991 26.677ZM30.8661 26.2534C30.0503 26.2534 29.4464 25.8534 29.0542 25.0533C28.6776 24.2375 28.4894 23.1393 28.4894 21.7588C28.4894 21.1313 28.56 20.5587 28.7012 20.041C28.8424 19.5233 29.0463 19.0056 29.313 18.4878C29.5797 17.9701 29.9092 17.4681 30.3014 16.9818C30.7092 16.4955 31.1642 16.0562 31.6662 15.664H37.008V25.5475C37.008 26.3005 36.8825 26.9594 36.6315 27.5241C36.3805 28.0889 36.0353 28.5596 35.5961 28.9361C35.1725 29.3126 34.6705 29.5871 34.09 29.7597C33.5096 29.9479 32.882 30.0421 32.2075 30.0421C31.0936 30.0421 29.9327 29.7989 28.7247 29.3126L29.313 27.4771C29.6111 27.6026 29.8856 27.6889 30.1366 27.7359C30.4033 27.7987 30.6543 27.8301 30.8897 27.8301C31.2505 27.8301 31.5721 27.7752 31.8545 27.6653C32.1369 27.5555 32.3722 27.4222 32.5604 27.2653C32.7487 27.1084 32.8899 26.9358 32.984 26.7476C33.0938 26.5593 33.1487 26.3946 33.1487 26.2534H30.8661ZM33.1487 18.4172C32.9448 18.5428 32.7722 18.7075 32.631 18.9114C32.5055 19.0997 32.4036 19.2879 32.3251 19.4762C32.2624 19.6644 32.2153 19.837 32.1839 19.9939C32.1682 20.1351 32.1604 20.2292 32.1604 20.2763H33.1487V18.4172ZM52.4707 24.0885C52.4707 24.5748 52.3766 25.2729 52.1884 26.1828C52.0001 27.077 51.7491 27.7987 51.4353 28.3478C51.1216 28.8969 50.7451 29.2655 50.3058 29.4538C49.8822 29.642 49.4273 29.7362 48.9409 29.7362H44.7522C43.9678 29.7362 43.2932 29.595 42.7285 29.3126C42.1794 29.0459 41.7323 28.5596 41.3872 27.8536C41.042 27.1476 40.791 26.3319 40.6341 25.4063C40.4772 24.4807 40.3988 23.5315 40.3988 22.5589C40.3988 21.9941 40.4459 21.4294 40.54 20.8646C40.6498 20.2841 40.7989 19.735 40.9871 19.2173C41.1754 18.6839 41.395 18.1898 41.646 17.7348C41.9127 17.2799 42.2029 16.8877 42.5167 16.5582H46.3759C46.0936 16.7622 45.819 17.0367 45.5523 17.3818C45.2856 17.727 45.0425 18.1113 44.8228 18.5349C44.6189 18.9585 44.4542 19.4134 44.3287 19.8998C44.2032 20.3861 44.1404 20.8724 44.1404 21.3588C44.1404 21.798 44.2032 22.2216 44.3287 22.6295C44.4542 23.0374 44.6581 23.4139 44.9405 23.759H48.3997C48.4468 23.6649 48.4703 23.5629 48.4703 23.4531C48.4703 23.2648 48.3919 23.0844 48.235 22.9119C48.0938 22.7393 47.8977 22.5824 47.6467 22.4412C47.3957 22.2843 47.1054 22.151 46.776 22.0412C46.4622 21.9157 46.1328 21.8059 45.7876 21.7117C45.7876 21.0842 45.9524 20.4253 46.2818 19.735C46.627 19.0291 47.1133 18.3859 47.7408 17.8054C48.3683 17.225 49.1214 16.7465 49.9999 16.37C50.8941 15.9934 51.8824 15.8052 52.9649 15.8052V17.6172C52.6512 17.7427 52.3296 17.8917 52.0001 18.0643C51.6707 18.2211 51.3569 18.4094 51.0588 18.629C50.7607 18.833 50.4941 19.0683 50.2587 19.335C50.0234 19.586 49.843 19.8684 49.7175 20.1822C50.6588 20.6371 51.349 21.2176 51.7883 21.9235C52.2433 22.6295 52.4707 23.3511 52.4707 24.0885ZM60.1247 18.4172C59.811 18.5114 59.56 18.6604 59.3717 18.8644C59.1991 19.0526 59.0579 19.2487 58.9481 19.4527C58.854 19.6566 58.7912 19.8449 58.7599 20.0174C58.7285 20.1743 58.7128 20.2606 58.7128 20.2763H60.1247V18.4172ZM60.1247 14.7463H63.984V20.2763H64.9253V26.2534H63.5133L62.8309 25.3357C62.5171 25.6181 62.1563 25.8455 61.7484 26.0181C61.3405 26.175 60.9091 26.2534 60.4542 26.2534H56.5949C55.9988 26.2534 55.5595 26.073 55.2771 25.7122C54.9947 25.3514 54.8535 24.8886 54.8535 24.3238C54.8535 23.1786 54.9634 22.1824 55.183 21.3352C55.4183 20.4881 55.7556 19.688 56.1949 18.935C56.6498 18.1819 57.1989 17.5466 57.8421 17.0289C58.501 16.5112 59.2619 16.0954 60.1247 15.7817V14.7463ZM66.9437 20.2763V15.664H70.8029V20.6057C70.8029 21.2489 70.7872 22.0255 70.7559 22.9354C70.7245 23.8296 70.5127 24.512 70.1205 24.9827C69.7283 25.4533 69.2733 25.7828 68.7556 25.971C68.2536 26.1593 67.7595 26.2534 67.2731 26.2534H64.9199C64.716 26.2534 64.5513 26.1907 64.4257 26.0652C64.2846 25.924 64.214 25.7514 64.214 25.5475V20.9822C64.214 20.7783 64.2846 20.6136 64.4257 20.4881C64.5513 20.3469 64.716 20.2763 64.9199 20.2763H66.9437ZM68.4027 14.4168C67.9477 14.4168 67.5555 14.2756 67.2261 13.9932C66.9123 13.6952 66.7554 13.3343 66.7554 12.9108C66.7554 12.4872 66.9123 12.1264 67.2261 11.8283C67.5555 11.5302 67.9477 11.3812 68.4027 11.3812C68.8576 11.3812 69.242 11.5302 69.5557 11.8283C69.8695 12.1264 70.0264 12.4872 70.0264 12.9108C70.0264 13.3343 69.8695 13.6952 69.5557 13.9932C69.242 14.2756 68.8576 14.4168 68.4027 14.4168ZM76.2398 26.2534C75.7377 26.2534 75.173 26.1514 74.5454 25.9475C73.9179 25.7436 73.4551 25.2651 73.1571 24.512C72.859 23.759 72.7021 22.4569 72.6864 20.6057V9.54567H76.5457V20.2763H77.8635V26.2534H76.2398ZM85.0117 20.2763C84.9803 20.2606 84.9019 20.1351 84.7764 19.8998C84.6666 19.6644 84.494 19.4134 84.2587 19.1467C84.039 18.88 83.7488 18.6369 83.388 18.4172C83.0428 18.1819 82.6114 18.0643 82.0937 18.0643C81.325 18.0643 80.5249 18.3859 79.6934 19.0291C79.5523 18.6212 79.4032 18.229 79.2463 17.8525C79.0895 17.4603 78.9404 17.0602 78.7992 16.6523C79.4268 15.9934 80.1092 15.5071 80.8465 15.1934C81.5995 14.8796 82.3212 14.7227 83.0115 14.7227C83.8272 14.7227 84.5018 14.8639 85.0352 15.1463C85.5843 15.413 86.0471 15.7503 86.4236 16.1582C86.8001 16.5661 87.1139 17.0132 87.3649 17.4995C87.6159 17.9858 87.8669 18.4329 88.1179 18.8408C88.3689 19.2487 88.6435 19.5939 88.9415 19.8762C89.2553 20.1429 89.6475 20.2763 90.1181 20.2763V26.2534H88.7062L88.0238 25.3357C87.7257 25.6024 87.3727 25.822 86.9648 25.9946C86.557 26.1671 86.1177 26.2534 85.6471 26.2534H77.8579C77.654 26.2534 77.4893 26.1907 77.3638 26.0652C77.2226 25.924 77.152 25.7514 77.152 25.5475V20.9822C77.152 20.7783 77.2226 20.6136 77.3638 20.4881C77.4893 20.3469 77.654 20.2763 77.8579 20.2763H85.0117ZM82.282 13.3814C81.827 13.3814 81.4348 13.2402 81.1054 12.9578C80.7916 12.6597 80.6347 12.2989 80.6347 11.8753C80.6347 11.4518 80.7916 11.0909 81.1054 10.7929C81.4348 10.4948 81.827 10.3458 82.282 10.3458C82.7369 10.3458 83.1213 10.4948 83.435 10.7929C83.7488 11.0909 83.9057 11.4518 83.9057 11.8753C83.9057 12.2989 83.7488 12.6597 83.435 12.9578C83.1213 13.2402 82.7369 13.3814 82.282 13.3814ZM92.1533 20.2763V15.664H96.0125V20.6057C95.9812 22.6295 95.7929 23.9708 95.4478 24.6297C95.1026 25.2729 94.6398 25.7043 94.0594 25.924C93.4946 26.1436 92.9691 26.2534 92.4827 26.2534H90.1295C89.9256 26.2534 89.7609 26.1907 89.6354 26.0652C89.4942 25.924 89.4236 25.7514 89.4236 25.5475V20.9822C89.4236 20.7783 89.4942 20.6136 89.6354 20.4881C89.7609 20.3469 89.9256 20.2763 90.1295 20.2763H92.1533ZM92.4121 30.4892C91.9572 30.4892 91.565 30.3401 91.2355 30.0421C90.9218 29.7597 90.7649 29.4067 90.7649 28.9831C90.7649 28.5596 90.9218 28.1987 91.2355 27.9007C91.565 27.6026 91.9572 27.4536 92.4121 27.4536C92.8671 27.4536 93.2515 27.6026 93.5652 27.9007C93.879 28.1987 94.0359 28.5596 94.0359 28.9831C94.0359 29.4067 93.879 29.7597 93.5652 30.0421C93.2515 30.3401 92.8671 30.4892 92.4121 30.4892ZM101.449 26.2534C100.947 26.2534 100.383 26.1514 99.7551 25.9475C99.1275 25.7436 98.6647 25.2651 98.3667 24.512C98.0686 23.759 97.9117 22.4569 97.896 20.6057V9.54567H101.755V20.2763H103.073V26.2534H101.449ZM104.55 20.2763V15.664H108.409V20.2763H109.892V26.2534H107.774L107.092 25.3357C106.778 25.6181 106.417 25.8455 106.009 26.0181C105.601 26.175 105.17 26.2534 104.715 26.2534H103.068C102.864 26.2534 102.699 26.1907 102.573 26.0652C102.432 25.924 102.362 25.7514 102.362 25.5475V20.9822C102.362 20.7783 102.432 20.6136 102.573 20.4881C102.699 20.3469 102.864 20.2763 103.068 20.2763H104.55ZM106.55 13.3579C106.472 13.6089 106.339 13.8207 106.15 13.9932C105.836 14.2913 105.452 14.4403 104.997 14.4403C104.542 14.4403 104.15 14.2991 103.821 14.0168C103.507 13.7187 103.35 13.3579 103.35 12.9343C103.35 12.5107 103.507 12.1499 103.821 11.8518C104.15 11.5537 104.542 11.4047 104.997 11.4047C105.452 11.4047 105.836 11.5537 106.15 11.8518C106.339 12.0401 106.472 12.2597 106.55 12.5107C106.629 12.2597 106.77 12.0401 106.974 11.8518C107.303 11.5537 107.696 11.4047 108.15 11.4047C108.605 11.4047 108.99 11.5537 109.304 11.8518C109.617 12.1499 109.774 12.5107 109.774 12.9343C109.774 13.3579 109.617 13.7187 109.304 14.0168C108.99 14.2991 108.605 14.4403 108.15 14.4403C107.696 14.4403 107.303 14.2913 106.974 13.9932C106.77 13.8207 106.629 13.6089 106.55 13.3579ZM114.34 20.2763C114.34 19.8841 114.278 19.4605 114.152 19.0056C114.027 18.5506 113.823 18.0956 113.54 17.6407C113.274 17.1701 112.921 16.7151 112.481 16.2758C112.042 15.8209 111.501 15.3895 110.858 14.9816L110.599 12.4872L120.247 8.83971V12.393L115.14 14.1815C115.784 14.6678 116.309 15.209 116.717 15.8052C117.125 16.4013 117.447 16.9975 117.682 17.5936C117.917 18.1741 118.082 18.7232 118.176 19.2409C118.27 19.7586 118.317 20.19 118.317 20.5351C118.317 21.696 118.16 22.6765 117.847 23.4766C117.533 24.2767 117.062 24.9435 116.435 25.4769C115.807 25.9946 115.25 26.2534 114.764 26.2534H109.893C109.689 26.2534 109.524 26.1907 109.399 26.0652C109.257 25.924 109.187 25.7514 109.187 25.5475V20.9822C109.187 20.7783 109.257 20.6136 109.399 20.4881C109.524 20.3469 109.689 20.2763 109.893 20.2763H114.34Z" fill="#0F0F0F"/>
<path d="M50.3302 45.2883C50.4714 45.7903 50.542 46.3198 50.542 46.8767C50.542 47.7003 50.3812 48.3945 50.0596 48.9593C49.7302 49.0691 49.287 49.1593 48.7301 49.2299C48.1731 49.2926 47.5613 49.324 46.8946 49.324C45.6552 49.324 44.4747 49.2024 43.353 48.9593C43.4393 48.1984 43.6001 47.4846 43.8354 46.8179C45.0747 47.014 46.3063 47.112 47.5299 47.112C47.9849 47.112 48.4202 47.0924 48.8359 47.0532C48.7653 46.7629 48.6869 46.4845 48.6006 46.2178C48.5143 45.9511 48.4594 45.7864 48.4359 45.7236L50.3302 45.2883ZM47.0946 52.1361C46.9299 52.0733 46.7141 51.9478 46.4474 51.7596C46.1807 51.5792 45.9964 51.4223 45.8944 51.2889C45.918 51.187 45.9768 51.0458 46.0709 50.8654C46.1729 50.6928 46.2866 50.532 46.4121 50.383C46.5376 50.2418 46.6475 50.1633 46.7416 50.1476C46.8279 50.1319 46.9573 50.1712 47.1299 50.2653C47.3103 50.3594 47.475 50.4732 47.624 50.6065C47.7809 50.7477 47.8672 50.8575 47.8829 50.936C47.9143 51.0536 47.8241 51.2576 47.6123 51.5478C47.4083 51.8459 47.2358 52.042 47.0946 52.1361ZM53.7647 47.0649C53.8902 47.0649 53.9726 47.1551 54.0118 47.3356C54.0589 47.516 54.0824 47.7905 54.0824 48.1592C54.0824 48.5357 54.0589 48.8142 54.0118 48.9946C53.9647 49.1671 53.8824 49.2534 53.7647 49.2534C53.3333 49.2534 52.9136 49.226 52.5057 49.1711C52.1057 49.1161 51.7684 49.0299 51.4939 48.9122C51.4233 48.6298 51.3644 47.3552 51.3174 45.0882L51.2468 42.6997L53.1411 42.5939C53.2117 43.7626 53.247 44.8372 53.247 45.8177C53.247 46.1158 53.2392 46.5159 53.2235 47.0179C53.4196 47.0493 53.6 47.0649 53.7647 47.0649ZM58.3669 47.0649C58.4924 47.0649 58.5747 47.1551 58.614 47.3356C58.661 47.516 58.6846 47.7905 58.6846 48.1592C58.6846 48.5357 58.661 48.8142 58.614 48.9946C58.5669 49.1671 58.4845 49.2534 58.3669 49.2534C57.5668 49.2534 56.9589 48.9789 56.5431 48.4298H56.4373C56.2725 48.6651 56.0411 48.8416 55.7431 48.9593C55.4528 49.0769 55.1665 49.1554 54.8841 49.1946C54.6018 49.2338 54.2292 49.2534 53.7664 49.2534C53.6487 49.2534 53.5663 49.1671 53.5193 48.9946C53.4722 48.8142 53.4487 48.5357 53.4487 48.1592C53.4487 47.7905 53.4722 47.516 53.5193 47.3356C53.5585 47.1551 53.6409 47.0649 53.7664 47.0649C54.1978 47.0649 54.5586 47.0375 54.8488 46.9826C55.1391 46.9277 55.4018 46.81 55.6372 46.6296C55.8725 46.4492 56.0647 46.1786 56.2137 45.8177L57.202 45.9707C57.1942 46.0335 57.1903 46.1197 57.1903 46.2296C57.1903 46.559 57.2766 46.7826 57.4491 46.9002C57.6217 47.01 57.9276 47.0649 58.3669 47.0649ZM57.9786 43.8763C57.9943 43.994 57.908 44.1862 57.7197 44.4529C57.5315 44.7196 57.3707 44.9 57.2373 44.9941C57.0883 44.9314 56.9 44.8255 56.6726 44.6764C56.4451 44.5196 56.2764 44.3784 56.1666 44.2529C56.0882 44.3941 55.9862 44.5392 55.8607 44.6882C55.7352 44.8372 55.6332 44.9392 55.5548 44.9941C55.3979 44.9235 55.1979 44.8059 54.9547 44.6411C54.7116 44.4686 54.539 44.3235 54.437 44.2058C54.4841 44.0411 54.6018 43.8214 54.79 43.5469C54.9783 43.2724 55.1351 43.1351 55.2607 43.1351C55.3862 43.1351 55.5744 43.2253 55.8254 43.4057C56.0764 43.5783 56.2294 43.7234 56.2843 43.841C56.3941 43.6449 56.5078 43.4802 56.6255 43.3469C56.7432 43.2057 56.8491 43.1351 56.9432 43.1351C57.0687 43.1351 57.2648 43.2331 57.5315 43.4292C57.806 43.6175 57.9551 43.7665 57.9786 43.8763ZM63.1042 44.2646L61.4922 44.7706C62.1982 45.8217 62.5512 46.81 62.5512 47.7356C62.5512 47.9317 62.5316 48.116 62.4923 48.2886C62.4531 48.4612 62.3864 48.6612 62.2923 48.8887C61.7275 49.022 61.1471 49.1161 60.5509 49.1711C59.9548 49.226 59.2253 49.2534 58.3625 49.2534C58.2448 49.2534 58.1624 49.1671 58.1154 48.9946C58.0683 48.8142 58.0448 48.5357 58.0448 48.1592C58.0448 47.7905 58.0683 47.516 58.1154 47.3356C58.1546 47.1551 58.237 47.0649 58.3625 47.0649C59.2959 47.0649 60.0881 47.0336 60.7392 46.9708C60.2764 46.3511 59.7626 45.8609 59.1979 45.5001V43.6057L62.9394 42.2056L63.1042 42.3232V44.2646ZM72.7316 47.0649C72.8571 47.0649 72.9395 47.1551 72.9787 47.3356C73.0258 47.516 73.0493 47.7905 73.0493 48.1592C73.0493 48.5357 73.0258 48.8142 72.9787 48.9946C72.9316 49.1671 72.8493 49.2534 72.7316 49.2534C72.6375 49.2534 72.5591 49.2495 72.4963 49.2417C72.4414 50.2692 72.1943 51.0811 71.755 51.6772C70.6569 52.0067 69.6842 52.1714 68.8371 52.1714C67.7389 52.1714 66.9192 51.9361 66.378 51.4654C65.8446 51.0026 65.5779 50.3437 65.5779 49.4887C65.5779 48.6337 65.825 47.6023 66.3191 46.3943L67.9546 46.9237C67.6644 47.6925 67.5193 48.3121 67.5193 48.7828C67.5193 49.1985 67.633 49.5044 67.8605 49.7005C68.088 49.9045 68.4292 50.0064 68.8841 50.0064C69.2999 50.0064 69.8921 49.9123 70.6608 49.7241C70.6137 49.2064 70.5275 48.6886 70.402 48.1709C70.2764 47.6454 70.1353 47.1591 69.9784 46.712L71.6844 45.9942L71.7786 46.0413C71.8649 46.3394 71.9511 46.5629 72.0374 46.712C72.1316 46.8532 72.2296 46.9473 72.3316 46.9943C72.4414 47.0414 72.5747 47.0649 72.7316 47.0649ZM69.0842 45.7942C68.9194 45.7315 68.7037 45.6099 68.437 45.4295C68.1703 45.2412 67.986 45.0804 67.884 44.9471C67.9076 44.8451 67.9664 44.7078 68.0605 44.5352C68.1625 44.3548 68.2762 44.194 68.4017 44.0528C68.5272 43.9038 68.6371 43.8214 68.7312 43.8058C68.8175 43.7901 68.9469 43.8293 69.1195 43.9234C69.2999 44.0175 69.4646 44.1352 69.6136 44.2764C69.7705 44.4097 69.8568 44.5156 69.8725 44.5941C69.9039 44.7117 69.8137 44.9196 69.6019 45.2177C69.3979 45.5079 69.2254 45.7001 69.0842 45.7942ZM77.3373 47.0649C77.4628 47.0649 77.5452 47.1551 77.5844 47.3356C77.6314 47.516 77.655 47.7905 77.655 48.1592C77.655 48.5357 77.6314 48.8142 77.5844 48.9946C77.5373 49.1671 77.4549 49.2534 77.3373 49.2534C76.5372 49.2534 75.9293 48.9789 75.5136 48.4298H75.4077C75.2429 48.6651 75.0115 48.8416 74.7135 48.9593C74.4232 49.0769 74.1369 49.1554 73.8545 49.1946C73.5722 49.2338 73.1996 49.2534 72.7368 49.2534C72.6191 49.2534 72.5367 49.1671 72.4897 48.9946C72.4426 48.8142 72.4191 48.5357 72.4191 48.1592C72.4191 47.7905 72.4426 47.516 72.4897 47.3356C72.5289 47.1551 72.6113 47.0649 72.7368 47.0649C73.1682 47.0649 73.529 47.0375 73.8192 46.9826C74.1095 46.9277 74.3722 46.81 74.6076 46.6296C74.8429 46.4492 75.0351 46.1786 75.1841 45.8177L76.1724 45.9707C76.1646 46.0335 76.1607 46.1197 76.1607 46.2296C76.1607 46.559 76.247 46.7826 76.4195 46.9002C76.5921 47.01 76.898 47.0649 77.3373 47.0649ZM76.2783 50.8183C76.294 50.936 76.2077 51.1281 76.0195 51.3948C75.8312 51.6615 75.6704 51.8419 75.5371 51.9361C75.388 51.8733 75.1998 51.7635 74.9723 51.6066C74.7448 51.4576 74.5762 51.3203 74.4664 51.1948C74.3879 51.336 74.286 51.4811 74.1605 51.6302C74.035 51.7792 73.933 51.8812 73.8545 51.9361C73.6977 51.8655 73.4976 51.7439 73.2545 51.5713C73.0113 51.4066 72.8387 51.2654 72.7368 51.1477C72.7838 50.983 72.9015 50.7634 73.0898 50.4888C73.278 50.2143 73.4349 50.077 73.5604 50.077C73.6859 50.077 73.8742 50.1633 74.1252 50.3359C74.3762 50.5163 74.5291 50.6653 74.584 50.783C74.6939 50.5869 74.8076 50.4183 74.9253 50.2771C75.0429 50.1437 75.1488 50.077 75.2429 50.077C75.3684 50.077 75.5645 50.1712 75.8312 50.3594C76.1058 50.5555 76.2548 50.7085 76.2783 50.8183ZM80.6862 45.2294C80.8352 45.7001 80.9097 46.2099 80.9097 46.759C80.9097 47.1748 80.8666 47.5748 80.7803 47.9592C80.694 48.3435 80.5724 48.6612 80.4156 48.9122C80.0861 49.0063 79.6508 49.0887 79.1095 49.1593C78.5683 49.222 77.9761 49.2534 77.3329 49.2534C77.2152 49.2534 77.1328 49.1671 77.0858 48.9946C77.0387 48.8142 77.0152 48.5357 77.0152 48.1592C77.0152 47.7905 77.0387 47.516 77.0858 47.3356C77.125 47.1551 77.2074 47.0649 77.3329 47.0649C78.1722 47.0649 78.7919 47.0179 79.1919 46.9237C79.1291 46.657 79.0507 46.3943 78.9566 46.1354C78.8703 45.8766 78.8193 45.7197 78.8036 45.6648L80.6862 45.2294ZM80.6509 50.8183C80.6666 50.936 80.5803 51.1281 80.392 51.3948C80.2038 51.6615 80.043 51.8419 79.9096 51.9361C79.7606 51.8733 79.5723 51.7635 79.3449 51.6066C79.1174 51.4576 78.9487 51.3203 78.8389 51.1948C78.7605 51.336 78.6585 51.4811 78.533 51.6302C78.4075 51.7792 78.3055 51.8812 78.2271 51.9361C78.0702 51.8655 77.8702 51.7439 77.627 51.5713C77.3839 51.4066 77.2113 51.2654 77.1093 51.1477C77.1564 50.983 77.274 50.7634 77.4623 50.4888C77.6506 50.2143 77.8074 50.077 77.9329 50.077C78.0584 50.077 78.2467 50.1633 78.4977 50.3359C78.7487 50.5163 78.9017 50.6653 78.9566 50.783C79.0664 50.5869 79.1801 50.4183 79.2978 50.2771C79.4155 50.1437 79.5213 50.077 79.6155 50.077C79.741 50.077 79.9371 50.1712 80.2038 50.3594C80.4783 50.5555 80.6274 50.7085 80.6509 50.8183ZM87.4044 47.0649C87.5299 47.0649 87.6123 47.1551 87.6515 47.3356C87.6986 47.516 87.7221 47.7905 87.7221 48.1592C87.7221 48.5357 87.6986 48.8142 87.6515 48.9946C87.6044 49.1671 87.5221 49.2534 87.4044 49.2534C86.9494 49.2534 86.5416 49.1161 86.1807 48.8416C85.9062 49.0299 85.5336 49.1475 85.063 49.1946C84.5923 49.2338 83.7844 49.2534 82.6392 49.2534C82.498 49.0965 82.3568 48.7985 82.2156 48.3592C82.0744 47.9199 81.996 47.4885 81.9803 47.0649H82.6274C82.5333 46.5472 82.396 46.006 82.2156 45.4412C82.0352 44.8686 81.7959 44.198 81.4979 43.4292L83.3098 42.5586C83.5373 43.1861 83.7216 43.8214 83.8628 44.4646C84.0119 45.1079 84.1138 45.653 84.1687 46.1001C83.9413 46.4139 83.5726 46.7355 83.0627 47.0649C84.1217 47.0493 84.8473 47.0296 85.2395 47.0061C85.2238 46.5276 85.1845 45.9668 85.1218 45.3236C85.0669 44.6725 85.0081 44.0254 84.9453 43.3822L84.8747 42.6997L86.769 42.5939C86.8789 44.3117 86.9338 45.7236 86.9338 46.8296C86.9338 46.9316 86.9298 47.01 86.922 47.0649H87.4044ZM90.0454 45.2294C90.1866 45.6765 90.2572 46.1903 90.2572 46.7708C90.2572 47.1944 90.2141 47.5944 90.1278 47.9709C90.0493 48.3474 89.9317 48.6612 89.7748 48.9122C89.061 49.1397 88.2727 49.2534 87.4098 49.2534C87.2922 49.2534 87.2098 49.1671 87.1627 48.9946C87.1157 48.8142 87.0921 48.5357 87.0921 48.1592C87.0921 47.7905 87.1157 47.516 87.1627 47.3356C87.202 47.1551 87.2843 47.0649 87.4098 47.0649C87.904 47.0649 88.2844 47.0296 88.5511 46.959C88.4727 46.6296 88.3393 46.1982 88.1511 45.6648L90.0454 45.2294ZM88.8453 44.6294C88.6806 44.5666 88.4648 44.445 88.1981 44.2646C87.9315 44.0764 87.7471 43.9156 87.6451 43.7822C87.6687 43.6802 87.7275 43.543 87.8216 43.3704C87.9236 43.19 88.0373 43.0292 88.1628 42.888C88.2884 42.739 88.3982 42.6566 88.4923 42.6409C88.5786 42.6252 88.708 42.6644 88.8806 42.7586C89.061 42.8527 89.2257 42.9704 89.3747 43.1116C89.5316 43.2449 89.6179 43.3508 89.6336 43.4292C89.665 43.5469 89.5748 43.7548 89.363 44.0528C89.159 44.3431 88.9865 44.5352 88.8453 44.6294ZM91.0509 49.2299C91.0902 48.6024 91.1098 47.9513 91.1098 47.2767C91.1098 46.0138 91.0627 44.4882 90.9686 42.6997L92.8747 42.5939C92.9767 44.0999 93.0276 45.5275 93.0276 46.8767C93.0276 47.7317 93.012 48.4259 92.9806 48.9593C92.8158 49.0534 92.5531 49.1318 92.1923 49.1946C91.8314 49.2495 91.4745 49.2809 91.1215 49.2887L91.0509 49.2299ZM93.6748 40.5348C93.7689 40.6995 93.816 40.876 93.816 41.0643C93.816 41.3388 93.7218 41.5741 93.5336 41.7702C93.3453 41.9663 93.0747 42.0644 92.7217 42.0644C92.5648 42.0644 92.306 42.033 91.9452 41.9703C91.8746 41.9624 91.7648 41.9467 91.6157 41.9232C91.4667 41.8997 91.3451 41.8879 91.251 41.8879C91.0706 41.8879 90.9451 41.9232 90.8745 41.9938C90.8039 42.0565 90.7568 42.1428 90.7333 42.2526H90.2156C90.0979 42.0016 90.0391 41.7624 90.0391 41.5349C90.0391 41.2368 90.141 40.9898 90.345 40.7937C90.5411 40.5976 90.8117 40.4995 91.1568 40.4995C91.3451 40.4995 91.6196 40.5466 91.9805 40.6407C92.0197 40.6485 92.1217 40.6721 92.2864 40.7113C92.4511 40.7505 92.6119 40.7701 92.7688 40.7701C92.9414 40.7701 93.0825 40.7505 93.1924 40.7113C93.31 40.6642 93.3885 40.6054 93.4277 40.5348H93.6748ZM107.718 45.2294C107.867 45.7001 107.941 46.2099 107.941 46.759C107.941 47.1748 107.898 47.5748 107.812 47.9592C107.725 48.3435 107.604 48.6612 107.447 48.9122C106.882 49.1632 106.368 49.2887 105.906 49.2887C105.553 49.2887 105.231 49.2181 104.941 49.0769C104.658 48.9279 104.419 48.7122 104.223 48.4298H104.129C103.964 48.6886 103.741 48.8965 103.458 49.0534C103.184 49.2103 102.886 49.2887 102.564 49.2887H102.552C102.521 49.7829 102.443 50.2339 102.317 50.6418C102.191 51.0497 102.027 51.3948 101.823 51.6772C100.709 52.0067 99.7324 52.1714 98.8931 52.1714C97.7949 52.1714 96.9752 51.9361 96.434 51.4654C95.8928 51.0026 95.6221 50.3437 95.6221 49.4887C95.6221 48.6181 95.8731 47.5866 96.3752 46.3943L97.9989 46.9237C97.7165 47.7003 97.5753 48.32 97.5753 48.7828C97.5753 49.1985 97.6851 49.5044 97.9047 49.7005C98.1322 49.9045 98.4774 50.0064 98.9402 50.0064C99.3559 50.0064 99.9481 49.9123 100.717 49.7241C100.67 49.2064 100.576 48.6651 100.434 48.1003C100.301 47.5356 100.168 47.0728 100.034 46.712L101.74 45.9942L101.835 46.0413C101.882 46.4021 101.988 46.6806 102.152 46.8767C102.325 47.0649 102.521 47.1591 102.741 47.1591C102.992 47.1591 103.227 47.0414 103.447 46.8061C103.674 46.5629 103.831 46.2335 103.917 45.8177L104.894 45.9707C104.886 46.0335 104.882 46.1237 104.882 46.2413C104.882 46.861 105.137 47.1708 105.647 47.1708C105.788 47.1708 105.992 47.1395 106.259 47.0767C106.188 46.7786 106.102 46.4845 106 46.1943C105.906 45.904 105.847 45.7275 105.823 45.6648L107.718 45.2294ZM103.976 43.2998C103.835 43.2371 103.647 43.1233 103.411 42.9586C103.176 42.7939 103.007 42.6566 102.905 42.5468C102.929 42.4527 102.988 42.3232 103.082 42.1585C103.176 41.9938 103.278 41.8487 103.388 41.7232C103.505 41.5977 103.607 41.5349 103.694 41.5349C103.819 41.5349 104.007 41.6251 104.258 41.8055C104.517 41.9859 104.658 42.1271 104.682 42.2291C104.698 42.3389 104.615 42.5233 104.435 42.7821C104.254 43.041 104.102 43.2135 103.976 43.2998ZM105.694 43.8881C105.71 44.0058 105.623 44.198 105.435 44.4646C105.247 44.7313 105.086 44.9078 104.953 44.9941C104.819 44.9392 104.639 44.8372 104.411 44.6882C104.184 44.5313 104.007 44.3901 103.882 44.2646C103.803 44.4058 103.701 44.5509 103.576 44.7C103.45 44.8412 103.348 44.9392 103.27 44.9941C103.121 44.9314 102.921 44.8137 102.67 44.6411C102.427 44.4686 102.254 44.3235 102.152 44.2058C102.191 44.0489 102.301 43.841 102.482 43.5822C102.67 43.3155 102.827 43.1704 102.952 43.1469C103.062 43.1233 103.247 43.2018 103.505 43.3822C103.772 43.5626 103.937 43.7155 104 43.841C104.102 43.6528 104.215 43.492 104.341 43.3586C104.466 43.2175 104.576 43.1469 104.67 43.1469C104.804 43.1469 105 43.2449 105.259 43.441C105.525 43.6293 105.67 43.7783 105.694 43.8881ZM110.664 44.7706C111.048 44.7706 111.374 44.9078 111.641 45.1824C111.907 45.4491 112.103 45.7903 112.229 46.206C112.354 46.6218 112.405 47.0336 112.382 47.4415C112.343 48.2964 112.111 49.1514 111.688 50.0064C111.264 50.8614 110.805 51.5831 110.311 52.1714C110.06 52.0773 109.746 51.9047 109.37 51.6537C109.001 51.4105 108.723 51.183 108.534 50.9713C108.558 50.9399 108.585 50.9085 108.617 50.8771C108.656 50.8458 108.691 50.8105 108.723 50.7712C109.382 50.0888 109.876 49.5005 110.205 49.0063C109.742 48.9044 109.354 48.7122 109.04 48.4298C108.727 48.1396 108.57 47.7787 108.57 47.3473C108.57 46.963 108.676 46.5708 108.887 46.1707C109.099 45.7628 109.366 45.4295 109.687 45.1706C110.017 44.9039 110.342 44.7706 110.664 44.7706ZM110.382 47.1002C110.57 47.1238 110.766 47.1355 110.97 47.1355C111.143 47.1355 111.268 47.1316 111.347 47.1238C111.213 46.959 111.045 46.8257 110.841 46.7237C110.644 46.6139 110.452 46.559 110.264 46.559C110.123 46.559 110.005 46.5904 109.911 46.6531C109.825 46.708 109.782 46.7904 109.782 46.9002C109.829 46.9865 110.029 47.0532 110.382 47.1002ZM116.093 47.0649C116.219 47.0649 116.301 47.1551 116.34 47.3356C116.387 47.516 116.411 47.7905 116.411 48.1592C116.411 48.5357 116.387 48.8142 116.34 48.9946C116.293 49.1671 116.211 49.2534 116.093 49.2534C115.881 49.2534 115.591 49.222 115.222 49.1593C115.073 49.5672 114.862 50.0731 114.587 50.6771C114.407 51.0693 114.23 51.4184 114.058 51.7243C113.893 52.038 113.791 52.2185 113.752 52.2655C113.462 52.1635 113.116 51.9714 112.716 51.689C112.387 51.4615 112.14 51.2536 111.975 51.0654C112.446 50.4222 112.858 49.7907 113.21 49.1711C113.603 48.4729 113.924 47.7356 114.175 46.959L114.281 46.8884C114.611 46.959 114.948 47.0061 115.293 47.0296C115.646 47.0532 115.913 47.0649 116.093 47.0649ZM118.302 44.7C118.804 44.7 119.204 44.9157 119.502 45.3471C119.8 45.7785 119.949 46.3041 119.949 46.9237C119.949 47.2689 119.902 47.614 119.808 47.9592C119.713 48.2964 119.572 48.6141 119.384 48.9122C119.062 49.0299 118.631 49.1161 118.09 49.1711C117.556 49.226 116.89 49.2534 116.089 49.2534C115.972 49.2534 115.889 49.1671 115.842 48.9946C115.795 48.8142 115.772 48.5357 115.772 48.1592C115.772 47.7905 115.795 47.516 115.842 47.3356C115.882 47.1551 115.964 47.0649 116.089 47.0649H116.325C116.341 46.7041 116.435 46.3394 116.607 45.9707C116.78 45.602 117.011 45.3 117.301 45.0647C117.599 44.8216 117.933 44.7 118.302 44.7ZM118.207 47.0414C118.474 47.0414 118.753 47.014 119.043 46.959C118.909 46.8257 118.745 46.7198 118.549 46.6414C118.36 46.5551 118.176 46.508 117.996 46.5002C117.839 46.5002 117.705 46.5394 117.596 46.6178C117.494 46.6884 117.447 46.7826 117.454 46.9002C117.525 46.9943 117.776 47.0414 118.207 47.0414ZM118.149 43.994C117.984 43.9313 117.768 43.8097 117.501 43.6293C117.235 43.441 117.05 43.2802 116.948 43.1469C116.972 43.0449 117.031 42.9076 117.125 42.735C117.227 42.5546 117.341 42.3938 117.466 42.2526C117.592 42.1036 117.701 42.0212 117.796 42.0056C117.882 41.9899 118.011 42.0291 118.184 42.1232C118.364 42.2173 118.529 42.335 118.678 42.4762C118.835 42.6095 118.921 42.7154 118.937 42.7939C118.968 42.9115 118.878 43.1194 118.666 43.4175C118.462 43.7077 118.29 43.8999 118.149 43.994Z" fill="#323232"/>
<path d="M143.07 12.3726C143.269 12.3726 143.435 12.9693 143.568 14.1629C145.607 16.2682 146.701 17.5943 146.85 18.1414C147.579 19.3184 148.242 21.0424 148.839 23.3134C148.839 23.3797 148.872 23.4129 148.938 23.4129L148.839 23.6118V24.0097C148.839 24.3412 148.872 24.8385 148.938 25.5016H148.839L148.938 25.7005V25.8995C148.938 25.9658 148.905 25.9989 148.839 25.9989L148.938 26.1978C148.938 29.6293 147.546 33.011 144.761 36.343C143.932 37.205 143.369 37.636 143.07 37.636C142.938 37.4703 142.871 37.3708 142.871 37.3376C145.988 34.5693 147.546 31.5191 147.546 28.1871C147.546 26.1481 146.817 23.7942 145.358 21.1253L144.96 20.9263C144.131 21.059 143.435 21.1253 142.871 21.1253H142.772C142.076 21.1253 141.711 20.5948 141.678 19.5339V19.4344C141.678 17.8264 142.042 15.6051 142.772 12.7704C142.904 12.5052 143.004 12.3726 143.07 12.3726Z" fill="#D9AD0F"/>
<path d="M136.054 12.0288L136.153 12.2277C136.087 12.5924 136.054 12.8577 136.054 13.0234C136.054 13.4213 137.181 15.2779 139.435 18.5933C140.297 20.4168 140.728 21.9751 140.728 23.2681V24.0638C140.728 28.0091 139.336 31.4572 136.551 34.4079C135.092 35.9164 134.031 36.7784 133.368 36.9939L133.269 36.795C137.38 33.0651 139.435 29.6834 139.435 26.6498V26.4509C139.435 24.2295 138.209 21.4446 135.755 18.096C135.158 17.2506 134.86 16.4549 134.86 15.7089V15.6095C135.059 14.1507 135.424 12.9571 135.954 12.0288H136.054Z" fill="#D9AD0F"/>
<path d="M126.198 11.5288C126.596 12.4903 127.5 14.8531 128.909 17.0081C130.301 19.1631 131.403 21.4673 132.216 23.9207C133.127 28.1479 133.467 31.4799 133.235 33.9167H133.136L133.21 34.1156L133.186 34.414C132.539 40.8459 129.787 47.369 124.93 53.9833C124.052 55.2265 122.452 56.9008 120.131 59.0061C117.628 61.0451 115.083 62.5205 112.497 63.4322C112.365 63.4819 112.224 63.5068 112.075 63.5068L112 63.283C118.316 60.5644 123.422 55.815 127.317 49.035C129.754 44.7415 131.171 40.5475 131.569 36.453L131.644 35.7568C131.992 32.3253 131.254 28.3551 129.431 23.8461C128.917 22.7852 128.328 21.7243 127.665 20.6633L126.969 20.5141C126.555 20.4644 125.991 20.4727 125.278 20.539C124.549 20.4561 124.226 19.992 124.308 19.1465L124.433 17.953C124.648 15.8145 125.303 14.6534 126.198 13.0288V11.5288ZM128.735 7.48455C128.37 7.99844 128.013 8.49576 127.665 8.97649C127.201 9.55669 126.745 9.95454 126.298 10.17C125.834 9.67273 125.17 8.91847 124.308 7.90727C124.839 7.21103 125.643 6.24127 126.72 4.99799C127.964 5.86 128.635 6.68885 128.735 7.48455ZM129.331 2.48656C128.967 2.98388 128.61 3.48119 128.262 3.9785C127.798 4.5587 127.342 4.95655 126.895 5.17205C126.43 4.67474 125.759 3.91219 124.88 2.88441C125.427 2.20475 126.231 1.24328 127.292 0C128.536 0.845431 129.215 1.67429 129.331 2.48656Z" fill="#D9AD0F"/>
</svg>
