<svg width="277" height="264" viewBox="0 0 277 264" fill="none" xmlns="http://www.w3.org/2000/svg">
<ellipse cx="138.5" cy="132" rx="138.5" ry="131.865" fill="#D2E179"/>
<path d="M87.2542 213.121C87.2542 221.08 51.8318 220.407 51.8318 213.121L51.8318 185.204H87.2541L87.2542 213.121Z" fill="white"/>
<path d="M70.1286 219.521C65.4159 219.521 60.7735 218.978 57.3917 218.031C55.5211 217.507 54.0447 216.869 53.0036 216.136C51.7587 215.258 51.1274 214.244 51.1274 213.121V185.204C51.1274 184.828 51.4426 184.523 51.8315 184.523H87.2538C87.6427 184.523 87.9579 184.828 87.9579 185.204L87.958 213.121C87.958 214.272 87.3784 215.304 86.2352 216.188C85.2694 216.935 83.8925 217.575 82.1427 218.091C79.0155 219.013 74.7489 219.521 70.1286 219.521ZM52.5356 185.885V213.121C52.5356 213.785 52.9721 214.429 53.833 215.036C54.7415 215.676 56.0707 216.244 57.7836 216.723C61.0434 217.636 65.5429 218.16 70.1286 218.16C74.6135 218.16 78.7343 217.673 81.7319 216.789C83.3104 216.324 84.5297 215.764 85.3556 215.125C86.1592 214.504 86.5499 213.848 86.5499 213.121L86.5498 185.885H52.5356Z" fill="#212121"/>
<path d="M115.803 142.948L112.307 123.333H27.9805L24.4847 142.948C19.9022 147.348 17.4814 153.727 18.5664 160.366C20.3606 171.345 31.0215 178.839 42.3782 177.105C47.0188 176.396 51.0396 174.24 54.071 171.208L70.144 168.753L86.2169 171.208C89.2483 174.24 93.2691 176.396 97.9097 177.105C109.266 178.839 119.927 171.345 121.721 160.366C122.806 153.727 120.386 147.348 115.803 142.948Z" fill="#212121"/>
<path d="M39.0989 178.036C37.3665 178.036 35.6445 177.832 33.9504 177.426C31.2498 176.777 28.7342 175.643 26.4737 174.054C24.2132 172.464 22.3212 170.501 20.8506 168.217C19.3277 165.852 18.3257 163.246 17.8723 160.472C17.5974 158.79 17.5357 157.084 17.689 155.403C17.8379 153.771 18.1897 152.154 18.7348 150.599C19.7776 147.623 21.5372 144.869 23.8301 142.62L27.2881 123.217C27.3463 122.891 27.6392 122.652 27.982 122.652H112.309C112.651 122.652 112.944 122.891 113.003 123.217L116.461 142.62C118.754 144.869 120.513 147.623 121.556 150.599C122.101 152.154 122.453 153.771 122.602 155.403C122.755 157.084 122.693 158.79 122.418 160.472C121.965 163.246 120.963 165.852 119.44 168.217C117.969 170.501 116.078 172.464 113.817 174.054C111.557 175.643 109.041 176.777 106.34 177.426C103.544 178.097 100.671 178.215 97.8013 177.777C95.4586 177.419 93.2146 176.697 91.1315 175.629C89.1972 174.638 87.4307 173.365 85.8778 171.845L70.1454 169.442L54.4128 171.845C52.86 173.365 51.0935 174.638 49.1592 175.629C47.0761 176.697 44.832 177.419 42.4894 177.777C41.3581 177.95 40.2263 178.036 39.0989 178.036ZM70.1454 168.072C70.1821 168.072 70.2188 168.075 70.2553 168.081L86.3282 170.536C86.4792 170.559 86.6183 170.629 86.7245 170.735C89.7903 173.802 93.6966 175.772 98.021 176.432C99.0837 176.595 100.147 176.675 101.203 176.675C105.418 176.675 109.514 175.395 112.989 172.952C117.334 169.898 120.189 165.39 121.027 160.26C122.03 154.124 119.892 147.832 115.308 143.431C115.205 143.331 115.135 143.203 115.111 143.063L111.716 124.014H28.5751L25.18 143.063C25.1552 143.203 25.0861 143.331 24.9823 143.431C20.3984 147.832 18.2604 154.124 19.2633 160.26C20.1017 165.39 22.9565 169.898 27.3018 172.952C31.6472 176.007 36.9628 177.243 42.2697 176.432C46.5941 175.772 50.5003 173.802 53.5661 170.735C53.6723 170.629 53.8115 170.559 53.9625 170.536L70.0355 168.081C70.0719 168.075 70.1086 168.072 70.1454 168.072Z" fill="#212121"/>
<path d="M113.591 131.245H105.71V133.64V155.47V157.865H113.591C121.195 157.865 127.361 151.904 127.361 144.553C127.361 137.202 121.195 131.245 113.591 131.245Z" fill="white"/>
<path d="M113.591 158.546H105.71C105.321 158.546 105.006 158.241 105.006 157.865V131.245C105.006 130.869 105.321 130.564 105.71 130.564H113.591C115.544 130.564 117.44 130.934 119.225 131.664C120.948 132.368 122.496 133.377 123.825 134.661C125.154 135.946 126.198 137.442 126.927 139.107C127.682 140.833 128.065 142.665 128.065 144.553C128.065 146.442 127.682 148.274 126.927 150C126.198 151.666 125.154 153.162 123.825 154.447C122.496 155.732 120.948 156.741 119.225 157.446C117.44 158.176 115.544 158.546 113.591 158.546ZM106.414 157.184H113.591C120.795 157.184 126.657 151.518 126.657 144.553C126.657 137.59 120.795 131.926 113.591 131.926H106.414V157.184Z" fill="#212121"/>
<path d="M113.592 152.115H112.362C111.973 152.115 111.658 151.811 111.658 151.435C111.658 151.059 111.973 150.754 112.362 150.754H113.592C117.128 150.754 120.006 147.972 120.006 144.553C120.006 141.136 117.128 138.356 113.592 138.356H112.362C111.973 138.356 111.658 138.051 111.658 137.676C111.658 137.3 111.973 136.995 112.362 136.995H113.592C117.905 136.995 121.414 140.386 121.414 144.553C121.414 148.723 117.905 152.115 113.592 152.115Z" fill="#212121"/>
<path d="M26.8147 131.245H34.6961V133.64V155.47V157.865H26.8147C19.2109 157.865 13.0449 151.904 13.0449 144.553C13.045 137.202 19.2109 131.245 26.8147 131.245Z" fill="white"/>
<path d="M28.045 152.115H26.8154C22.5022 152.115 18.9932 148.723 18.9932 144.553C18.9932 140.386 22.5022 136.995 26.8154 136.995H28.045C28.4338 136.995 28.749 137.3 28.749 137.676C28.749 138.051 28.4338 138.356 28.045 138.356H26.8154C23.2787 138.356 20.4013 141.136 20.4013 144.553C20.4013 147.972 23.2786 150.754 26.8154 150.754H28.045C28.4338 150.754 28.749 151.059 28.749 151.435C28.749 151.811 28.4338 152.115 28.045 152.115Z" fill="#212121"/>
<path d="M34.6969 158.546H26.8156C24.8622 158.546 22.9668 158.176 21.1819 157.446C19.4584 156.741 17.9105 155.732 16.5814 154.447C15.2524 153.162 14.2087 151.666 13.4797 150C12.7247 148.274 12.3418 146.442 12.3418 144.553C12.3418 142.665 12.7246 140.832 13.4797 139.107C14.2088 137.441 15.2524 135.945 16.5815 134.661C17.9106 133.377 19.4584 132.368 21.1821 131.664C22.9668 130.934 24.8622 130.564 26.8156 130.564H34.6969C35.0858 130.564 35.401 130.869 35.401 131.245V157.865C35.401 158.241 35.0858 158.546 34.6969 158.546ZM26.8156 131.926C19.6111 131.926 13.7499 137.59 13.7499 144.553C13.7499 151.518 19.6111 157.184 26.8156 157.184H33.9929V131.926H26.8156Z" fill="#212121"/>
<path d="M87.3758 190.545C75.9935 192.676 64.1524 192.647 53.2611 190.71C39.851 188.325 30.1377 176.985 30.1377 163.803L30.1377 125.671C30.1377 110.557 42.8117 98.3047 58.4458 98.3047H81.8407C97.4748 98.3047 110.149 110.557 110.149 125.671V163.704C110.149 176.756 100.63 188.063 87.3758 190.545Z" fill="white"/>
<path d="M69.8434 192.837C64.2182 192.837 58.6002 192.351 53.1353 191.379C39.4026 188.937 29.4353 177.339 29.4353 163.803V125.671C29.4353 121.885 30.2025 118.212 31.7155 114.754C33.1768 111.414 35.2686 108.414 37.9328 105.839C40.5969 103.263 43.6996 101.241 47.1544 99.8284C50.7316 98.3657 54.5311 97.624 58.4474 97.624H81.8424C85.7587 97.624 89.5582 98.3657 93.1355 99.8284C96.5903 101.241 99.6929 103.263 102.357 105.839C105.021 108.414 107.113 111.414 108.574 114.754C110.087 118.212 110.855 121.885 110.855 125.671V163.704C110.855 166.988 110.27 170.212 109.118 173.287C107.996 176.282 106.368 179.052 104.279 181.519C102.187 183.99 99.7019 186.077 96.892 187.721C93.9991 189.414 90.8431 190.589 87.5114 191.213C81.7314 192.295 75.7835 192.837 69.8434 192.837ZM58.4474 98.9854C43.2265 98.9854 30.8434 110.957 30.8434 125.671V163.803C30.8434 176.682 40.3257 187.717 53.3901 190.04C64.4546 192.008 76.1609 191.952 87.2435 189.876C100.109 187.467 109.446 176.46 109.446 163.704V125.671C109.446 110.957 97.0632 98.9854 81.8424 98.9854H58.4474Z" fill="#212121"/>
<path d="M117.131 89.5141C117.179 89.0142 117.229 88.5144 117.229 88.0023C117.229 79.0861 109.752 71.8584 100.53 71.8584C96.6495 71.8584 93.0869 73.1494 90.2515 75.2968C87.7801 66.9979 82.0084 60.9166 70.6779 60.9166C59.3475 60.9166 55.1731 65.3775 51.7174 71.9044C48.9859 70.4561 45.8519 69.6295 42.5177 69.6295C31.9354 69.6295 23.3574 77.9231 23.3574 88.1534C23.3574 88.7663 23.3913 89.3717 23.4521 89.9697C17.306 91.9997 12.8806 97.6171 12.8806 104.246C12.8806 108.358 14.5863 112.081 17.3446 114.804C16.1379 116.835 15.4373 119.184 15.4373 121.694C15.4373 135.408 24.1254 135.693 24.1254 135.693H32.2975V135.67C35.3761 135.445 37.8123 132.982 37.8481 129.949L37.9201 123.853C37.926 123.388 37.9559 122.926 37.9944 122.467C38.1802 121.67 38.3021 120.852 38.3655 120.016C39.8532 113.05 45.0549 107.213 52.2445 105.078C53.8228 104.622 55.4015 104.247 56.8978 104.006C60.6779 103.385 65.0558 102.965 69.9801 102.905C74.9039 102.965 79.2818 103.385 83.0624 104.006C84.5582 104.247 86.1369 104.622 87.7157 105.078C89.9284 105.735 91.9485 106.749 93.7362 108.032C96.4297 110.048 100.638 115.72 101.415 120.016C101.478 120.852 101.6 121.67 101.786 122.467C101.824 122.926 101.854 123.388 101.86 123.853L101.932 129.949C101.968 132.982 104.404 135.445 107.483 135.67C107.483 135.678 107.483 135.685 107.483 135.693H115.655C115.655 135.693 124.343 135.408 124.343 121.694C124.343 119.184 123.642 116.835 122.436 114.804C135.257 105.142 125.068 88.993 117.131 89.5141Z" fill="#212121"/>
<path d="M115.654 136.373H107.482C107.398 136.373 107.317 136.359 107.242 136.333C105.643 136.173 104.162 135.466 103.053 134.33C101.895 133.143 101.247 131.59 101.227 129.957L101.155 123.861C101.15 123.482 101.129 123.082 101.087 122.569C100.906 121.78 100.781 120.95 100.714 120.101C99.943 115.927 95.7553 110.408 93.3093 108.574C91.5371 107.303 89.5865 106.346 87.5115 105.729C85.8654 105.254 84.3292 104.9 82.9456 104.677C78.8728 104.008 74.5108 103.641 69.9793 103.585C65.4472 103.641 61.0852 104.008 57.0149 104.677C55.6287 104.9 54.0926 105.254 52.4472 105.729C45.6694 107.743 40.5445 113.252 39.0634 120.111C38.997 120.957 38.8719 121.783 38.6914 122.569C38.6491 123.082 38.6281 123.482 38.6233 123.862L38.5512 129.957C38.5319 131.59 37.8834 133.143 36.7251 134.33C35.6166 135.466 34.1351 136.173 32.5362 136.333C32.4614 136.359 32.3807 136.373 32.2966 136.373H24.1246C24.1166 136.373 24.1087 136.373 24.1007 136.373C24.002 136.37 21.6566 136.272 19.3244 134.355C17.9756 133.246 16.9045 131.754 16.1409 129.921C15.2063 127.678 14.7324 124.91 14.7324 121.694C14.7324 119.338 15.3348 117.003 16.4787 114.911C13.6999 111.99 12.1758 108.222 12.1758 104.246C12.1758 97.6823 16.3836 91.8258 22.7039 89.5066C22.6698 89.0469 22.6524 88.5936 22.6524 88.1534C22.6524 85.5611 23.1778 83.046 24.2137 80.678C25.2142 78.391 26.6464 76.3372 28.4704 74.5737C30.2945 72.8102 32.4188 71.4256 34.7844 70.4583C37.2338 69.4566 39.8354 68.9488 42.5168 68.9488C45.6056 68.9488 48.6675 69.6507 51.4178 70.9842C52.8695 68.3284 54.785 65.4452 57.8436 63.4028C59.4228 62.3483 61.1881 61.5812 63.2407 61.0574C65.4073 60.5046 67.8397 60.2359 70.6771 60.2359C76.1931 60.2359 80.7554 61.6612 84.2373 64.4721C87.1025 66.7852 89.2514 70.0473 90.6332 74.1779C91.9135 73.318 93.2987 72.6309 94.7632 72.1305C96.6136 71.4983 98.5534 71.1776 100.529 71.1776C102.878 71.1776 105.157 71.6226 107.303 72.5001C109.375 73.3475 111.237 74.5605 112.835 76.1054C114.433 77.6504 115.688 79.4496 116.564 81.4531C117.472 83.5278 117.932 85.7312 117.932 88.0022C117.932 88.2845 117.918 88.5613 117.898 88.833C119.73 88.9412 121.679 89.7942 123.469 91.2866C125.456 92.9431 127.107 95.2635 128.118 97.82C129.284 100.772 129.539 103.844 128.855 106.702C128.473 108.296 127.8 109.816 126.853 111.22C125.936 112.58 124.755 113.842 123.336 114.977C124.456 117.052 125.046 119.362 125.046 121.694C125.046 124.91 124.572 127.678 123.638 129.921C122.874 131.754 121.803 133.246 120.454 134.355C118.122 136.272 115.777 136.37 115.678 136.373C115.67 136.373 115.662 136.373 115.654 136.373ZM107.661 135.012H115.637C115.769 135.004 117.707 134.86 119.61 133.261C122.245 131.047 123.638 127.047 123.638 121.694C123.638 119.406 123.011 117.14 121.824 115.143C121.65 114.849 121.725 114.475 122.002 114.267C129.727 108.445 127.932 101.166 126.802 98.3059C125.874 95.9562 124.363 93.8295 122.55 92.3176C120.773 90.8368 118.865 90.0828 117.178 90.1931C116.971 90.2066 116.77 90.1321 116.626 89.9892C116.482 89.8462 116.41 89.6493 116.429 89.4505L116.433 89.4111C116.48 88.9266 116.524 88.4691 116.524 88.0023C116.524 79.4758 109.349 72.539 100.529 72.539C96.9338 72.539 93.5298 73.678 90.6849 75.8326C90.5006 75.9722 90.2566 76.0141 90.0339 75.9444C89.8112 75.8747 89.6388 75.7026 89.5741 75.4851C86.8297 66.2698 80.4719 61.5972 70.6772 61.5972C60.0449 61.5972 55.9036 65.4902 52.3434 72.2145C52.2567 72.3782 52.1052 72.501 51.9234 72.555C51.7416 72.609 51.5449 72.5896 51.3781 72.5012C48.6746 71.0678 45.6104 70.3101 42.5169 70.3101C32.3401 70.3101 24.0606 78.3146 24.0606 88.1534C24.0606 88.7176 24.0913 89.3064 24.152 89.9032C24.1839 90.2175 23.988 90.5117 23.6789 90.6138C17.6408 92.6082 13.5839 98.0864 13.5839 104.246C13.5839 108.034 15.0978 111.614 17.8468 114.327C18.0674 114.545 18.1113 114.878 17.9543 115.143C16.7677 117.14 16.1405 119.406 16.1405 121.694C16.1405 127.047 17.5333 131.047 20.1682 133.261C22.0636 134.853 23.9943 135.003 24.1427 135.012H32.1173C32.1579 135.002 32.2001 134.995 32.2435 134.992C35.0051 134.79 37.1115 132.619 37.1431 129.941L37.2152 123.846C37.2206 123.422 37.2442 122.98 37.2917 122.412C37.2944 122.38 37.2994 122.348 37.3067 122.317C37.4811 121.569 37.6008 120.778 37.6624 119.966C37.6647 119.937 37.6689 119.908 37.6751 119.879C39.2483 112.511 44.7514 106.591 52.0368 104.427C52.0385 104.426 52.0403 104.426 52.0421 104.425C53.7442 103.934 55.3386 103.567 56.781 103.334C60.924 102.654 65.3622 102.28 69.9703 102.224C69.9762 102.224 69.9821 102.224 69.9881 102.224C74.5957 102.28 79.0339 102.654 83.1793 103.335C84.6191 103.567 86.2135 103.934 87.9162 104.425C87.918 104.426 87.9198 104.426 87.9215 104.427C90.1538 105.09 92.2511 106.119 94.155 107.485C94.1588 107.488 94.1625 107.491 94.1663 107.494C95.613 108.577 97.3764 110.559 98.8832 112.798C100.594 115.338 101.739 117.86 102.107 119.899C102.111 119.921 102.114 119.944 102.116 119.967C102.178 120.778 102.297 121.569 102.472 122.317C102.479 122.348 102.484 122.38 102.487 122.412C102.534 122.98 102.558 123.422 102.563 123.845L102.635 129.941C102.667 132.619 104.773 134.79 107.535 134.992C107.578 134.995 107.621 135.002 107.661 135.012Z" fill="#212121"/>
<path d="M88.6771 159.113C88.5724 159.113 88.4661 159.09 88.3659 159.043C88.0172 158.876 87.8741 158.468 88.0463 158.131L90.7104 152.916C90.8826 152.579 91.3047 152.44 91.6534 152.607C92.0021 152.773 92.1451 153.181 91.9729 153.519L89.3089 158.734C89.1862 158.974 88.9366 159.113 88.6771 159.113Z" fill="#212121"/>
<path d="M92.0098 159.113C91.9051 159.113 91.7989 159.09 91.6987 159.043C91.35 158.876 91.2069 158.468 91.3791 158.131L94.0432 152.916C94.2154 152.579 94.6376 152.44 94.9862 152.607C95.3349 152.773 95.478 153.181 95.3057 153.519L92.6417 158.734C92.519 158.974 92.2694 159.113 92.0098 159.113Z" fill="#212121"/>
<path d="M95.3434 159.113C95.2387 159.113 95.1324 159.09 95.0322 159.043C94.6835 158.876 94.5404 158.468 94.7126 158.131L97.3767 152.916C97.5489 152.579 97.9711 152.44 98.3197 152.607C98.6684 152.773 98.8114 153.181 98.6392 153.519L95.9752 158.734C95.8525 158.974 95.6029 159.113 95.3434 159.113Z" fill="#212121"/>
<path d="M51.7194 159.113C51.4599 159.113 51.2103 158.974 51.0876 158.734L48.4235 153.519C48.2513 153.182 48.3944 152.773 48.7431 152.607C49.0918 152.44 49.5139 152.579 49.6861 152.916L52.3502 158.131C52.5224 158.468 52.3793 158.876 52.0307 159.043C51.9304 159.091 51.8241 159.113 51.7194 159.113Z" fill="#212121"/>
<path d="M48.3859 159.113C48.1263 159.113 47.8767 158.974 47.7541 158.734L45.09 153.519C44.9178 153.182 45.0609 152.773 45.4096 152.607C45.7582 152.44 46.1804 152.579 46.3526 152.916L49.0166 158.131C49.1888 158.468 49.0458 158.876 48.6971 159.043C48.5969 159.091 48.4906 159.113 48.3859 159.113Z" fill="#212121"/>
<path d="M45.0548 159.113C44.7953 159.113 44.5457 158.974 44.423 158.734L41.759 153.519C41.5868 153.182 41.7299 152.773 42.0785 152.607C42.4272 152.44 42.8494 152.579 43.0216 152.916L45.6856 158.131C45.8578 158.468 45.7147 158.876 45.366 159.043C45.2659 159.091 45.1595 159.113 45.0548 159.113Z" fill="#212121"/>
<path d="M94.7232 134.61H78.524C76.5278 134.61 74.9097 133.046 74.9097 131.116C74.9097 129.186 76.5279 127.622 78.524 127.622H94.7232C96.7193 127.622 98.3375 129.186 98.3375 131.116C98.3375 133.046 96.7193 134.61 94.7232 134.61Z" fill="#212121"/>
<path d="M59.8433 134.61H43.6441C41.648 134.61 40.0298 133.046 40.0298 131.116C40.0298 129.186 41.648 127.622 43.6441 127.622H59.8433C61.8394 127.622 63.4576 129.186 63.4576 131.116C63.4576 133.046 61.8394 134.61 59.8433 134.61Z" fill="#212121"/>
<path d="M67.7905 145.64C67.7905 145.64 64.6011 153.807 64.6011 162.849H71.3507" fill="white"/>
<path d="M71.35 163.529L64.6003 163.529C64.2114 163.529 63.8962 163.225 63.8962 162.849C63.8962 158.11 64.7743 153.623 65.5109 150.693C66.3092 147.517 67.0978 145.484 67.131 145.399C67.2683 145.047 67.6746 144.87 68.0384 145.003C68.4021 145.136 68.5857 145.528 68.4485 145.88C68.4406 145.9 67.6517 147.936 66.8735 151.037C66.1931 153.748 65.3885 157.825 65.3106 162.168L71.35 162.168C71.7389 162.168 72.0541 162.473 72.0541 162.849C72.054 163.225 71.7388 163.529 71.35 163.529Z" fill="#212121"/>
<path d="M67.2529 172.257C68.8677 173.771 71.6378 175.279 75.7445 174.014C82.8983 171.81 81.7066 165.011 81.7066 165.011L65.4929 170.007C65.4929 170.007 66.0549 171.134 67.2529 172.257Z" fill="white"/>
<path d="M72.7816 175.168C71.9466 175.168 71.1383 175.055 70.3615 174.83C69.0392 174.447 67.8282 173.746 66.7622 172.746C65.4891 171.552 64.8834 170.353 64.8582 170.303C64.7696 170.125 64.7651 169.919 64.8457 169.738C64.9263 169.557 65.0843 169.419 65.2786 169.359L81.4922 164.362C81.6867 164.303 81.8982 164.327 82.0724 164.43C82.2466 164.532 82.3662 164.703 82.4003 164.897C82.4135 164.973 82.7179 166.775 82.0836 168.877C81.4916 170.837 79.9484 173.433 75.9579 174.663C74.865 174.999 73.8033 175.168 72.7816 175.168ZM67.7426 171.769C69.206 173.141 71.7449 174.532 75.5301 173.366C78.241 172.53 79.9861 170.908 80.7171 168.543C81.0343 167.517 81.0872 166.56 81.0732 165.92L66.5524 170.395C66.8202 170.777 67.2157 171.275 67.7426 171.769Z" fill="#212121"/>
<path d="M88.892 147.448C90.8969 145.51 90.8969 142.368 88.8919 140.429C86.8869 138.491 83.6363 138.491 81.6314 140.43C79.6265 142.368 79.6266 145.51 81.6315 147.449C83.6365 149.387 86.8871 149.387 88.892 147.448Z" fill="#212121"/>
<path d="M90.4322 146.729L80.1648 146.831L80.1919 149.376L90.4593 149.274L90.4322 146.729Z" fill="white"/>
<path d="M56.5161 147.448C58.521 145.51 58.5209 142.367 56.5159 140.429C54.511 138.491 51.2603 138.491 49.2554 140.429C47.2505 142.368 47.2506 145.51 49.2556 147.448C51.2605 149.387 54.5112 149.386 56.5161 147.448Z" fill="#212121"/>
<path d="M58.0557 146.73L47.7883 146.833L47.8154 149.378L58.0828 149.276L58.0557 146.73Z" fill="white"/>
<path d="M90.4263 146.053C90.4238 146.053 90.4214 146.053 90.419 146.053L80.1515 146.155C79.7626 146.159 79.4506 146.467 79.4546 146.843C79.4586 147.216 79.773 147.516 80.1586 147.516C80.161 147.516 80.1634 147.516 80.1659 147.516L90.4334 147.415C90.8222 147.411 91.1342 147.103 91.1302 146.727C91.1262 146.353 90.8118 146.053 90.4263 146.053Z" fill="#212121"/>
<path d="M80.1592 147.819C79.6042 147.819 79.1481 147.382 79.1424 146.846C79.1396 146.583 79.2427 146.335 79.4329 146.148C79.623 145.96 79.8773 145.855 80.149 145.853L90.4269 145.751C90.9819 145.751 91.438 146.187 91.4437 146.724C91.4495 147.266 90.9979 147.712 90.4371 147.717L80.1592 147.819ZM90.4196 146.356L80.1554 146.458C80.0509 146.459 79.953 146.499 79.8799 146.571C79.8068 146.643 79.7671 146.739 79.7682 146.84C79.7704 147.046 79.9458 147.214 80.1592 147.214H80.1665L90.4308 147.112C90.6465 147.11 90.8201 146.939 90.818 146.73C90.8157 146.524 90.6404 146.356 90.427 146.356H90.4196Z" fill="white"/>
<path d="M58.0526 146.053C58.0502 146.053 58.0477 146.053 58.0453 146.053L47.778 146.155C47.3891 146.159 47.0771 146.467 47.0811 146.843C47.085 147.216 47.3995 147.516 47.785 147.516C47.7875 147.516 47.7899 147.516 47.7924 147.516L58.0597 147.415C58.4485 147.411 58.7606 147.103 58.7566 146.727C58.7526 146.353 58.4381 146.053 58.0526 146.053Z" fill="#212121"/>
<path d="M47.783 147.819C47.228 147.819 46.7719 147.382 46.7662 146.846C46.7634 146.583 46.8666 146.335 47.0567 146.148C47.2468 145.96 47.5011 145.855 47.7728 145.853L58.0506 145.751C58.6056 145.751 59.0618 146.187 59.0675 146.724C59.0732 147.266 58.6216 147.712 58.0609 147.717L47.783 147.819ZM58.0433 146.356L47.7792 146.458C47.6747 146.459 47.5769 146.499 47.5038 146.571C47.4306 146.643 47.3909 146.739 47.392 146.84C47.3942 147.046 47.5696 147.214 47.783 147.214H47.7903L58.0544 147.112C58.2701 147.11 58.4438 146.939 58.4416 146.73C58.4394 146.524 58.264 146.356 58.0506 146.356H58.0433Z" fill="white"/>
<path d="M202.66 93.5975C204.991 95.6318 206.917 97.6146 208.573 100.205C208.573 100.883 208.573 101.56 208.573 102.258C210.467 102.354 210.467 102.354 212.4 102.451C217.349 103.071 219.87 104.878 223.352 108.417C227.406 114.274 228.8 118.63 228.762 125.61C228.766 126.333 228.77 127.055 228.774 127.799C228.766 132.056 228.428 136.045 227.574 140.237C228.205 140.322 228.837 140.407 229.487 140.494C232.461 141.485 233.357 142.792 234.963 145.37C234.963 146.047 234.963 146.725 234.963 147.422C236.629 147.581 236.629 147.581 238.328 147.743C242.413 148.46 244.505 148.911 247.63 151.528C248.641 153.605 249.398 155.654 250.084 157.851C250.725 159.957 250.725 159.957 252.908 161.793C252.908 163.148 252.908 164.503 252.908 165.899C253.562 166.026 254.215 166.153 254.888 166.284C257.131 166.925 257.131 166.925 259.242 168.978C259.591 172.164 259.775 174.272 258.055 177.062C255.252 178.697 252.942 178.424 249.742 178.216C249.48 179.169 249.219 180.122 248.95 181.103C247.496 184.707 246.734 185.505 243.408 187.454C240.641 188.096 240.641 188.096 237.668 188.481C234.292 188.919 232.207 189.235 229.372 191.115C225.254 193.239 221.779 192.834 217.216 192.523C216.404 192.494 215.593 192.466 214.756 192.436C208.621 192.079 204.413 190.397 199.073 187.454C199.073 185.761 199.073 184.067 199.073 182.322C198.077 182.829 197.081 183.336 196.055 183.858C188.283 187.674 181.884 190.303 172.992 190.361C170.362 190.291 170.362 190.291 168.461 192.587C168.461 191.571 168.461 190.554 168.461 189.507C162.27 189.913 162.27 189.913 156.387 191.624C152.119 193.143 147.61 193.246 143.126 192.587C141.716 191.564 140.308 190.538 138.904 189.507C137.336 190.015 137.336 190.015 135.737 190.534C128.212 191.242 128.212 191.242 124.125 188.096C122.014 185.401 122.014 185.401 122.014 183.349C121.035 183.412 120.055 183.476 119.045 183.541C115.681 183.349 115.681 183.349 113.701 182.258C111.9 179.24 112.315 176.493 112.514 173.084C114.604 172.068 114.604 172.068 116.736 171.031C116.573 169.38 116.573 169.38 116.406 167.695C116.736 163.846 116.736 163.846 119.177 161.344C122.014 159.74 122.014 159.74 125.181 159.74C125.421 159.147 125.66 158.554 125.907 157.944C128.243 154.05 131.938 151.938 135.737 149.475C135.389 148.798 135.04 148.12 134.681 147.422C134.53 143.955 134.602 141.496 135.737 138.184C135.215 137.316 134.692 136.448 134.154 135.554C131.982 130.715 132.208 126.824 133.626 121.761C135.869 118.938 135.869 118.938 138.904 116.629C140.098 115.675 141.285 114.712 142.466 113.742C143.098 113.224 143.729 112.707 144.38 112.174C146.382 110.391 148.103 108.508 149.856 106.492C161.96 92.7116 184.887 81.4787 202.66 93.5975Z" fill="#242122"/>
<path d="M203.641 213.121C203.641 221.08 168.218 220.407 168.218 213.121L168.218 185.204H203.641L203.641 213.121Z" fill="white"/>
<path d="M186.515 219.521C181.803 219.521 177.16 218.978 173.778 218.031C171.908 217.507 170.431 216.869 169.39 216.136C168.145 215.258 167.514 214.244 167.514 213.121V185.204C167.514 184.828 167.829 184.523 168.218 184.523H203.641C204.029 184.523 204.345 184.828 204.345 185.204L204.345 213.121C204.345 214.272 203.765 215.304 202.622 216.188C201.656 216.935 200.279 217.575 198.529 218.091C195.402 219.014 191.136 219.521 186.515 219.521ZM168.922 185.885V213.121C168.922 213.785 169.359 214.429 170.22 215.036C171.128 215.676 172.457 216.244 174.17 216.723C177.43 217.636 181.93 218.16 186.515 218.16C191 218.16 195.121 217.673 198.119 216.789C199.697 216.324 200.916 215.764 201.742 215.125C202.546 214.504 202.937 213.848 202.937 213.121L202.937 185.885H168.922Z" fill="#212121"/>
<path d="M232.19 142.948L228.695 123.333H144.368L140.872 142.948C136.289 147.348 133.869 153.727 134.954 160.366C136.748 171.345 147.409 178.839 158.765 177.105C163.406 176.396 167.427 174.24 170.458 171.208L186.531 168.753L202.604 171.208C205.636 174.24 209.656 176.396 214.297 177.105C225.654 178.839 236.314 171.345 238.109 160.366C239.194 153.727 236.773 147.348 232.19 142.948Z" fill="#212121"/>
<path d="M155.485 178.036C153.752 178.036 152.03 177.832 150.336 177.426C147.636 176.777 145.12 175.643 142.86 174.053C140.599 172.464 138.707 170.501 137.237 168.217C135.714 165.852 134.712 163.246 134.258 160.472C133.983 158.79 133.922 157.084 134.075 155.403C134.224 153.771 134.576 152.154 135.121 150.599C136.164 147.623 137.923 144.869 140.216 142.62L143.674 123.217C143.732 122.891 144.025 122.652 144.368 122.652H228.695C229.037 122.652 229.33 122.891 229.389 123.217L232.847 142.62C235.14 144.869 236.899 147.623 237.942 150.599C238.487 152.154 238.839 153.771 238.988 155.403C239.141 157.084 239.079 158.79 238.804 160.472C238.351 163.246 237.349 165.852 235.826 168.217C234.356 170.501 232.464 172.464 230.203 174.053C227.943 175.643 225.427 176.777 222.726 177.426C219.93 178.097 217.057 178.215 214.187 177.777C211.845 177.419 209.601 176.697 207.518 175.629C205.583 174.638 203.817 173.365 202.264 171.845L186.531 169.442L170.799 171.845C169.246 173.365 167.479 174.638 165.545 175.629C163.462 176.697 161.218 177.419 158.875 177.777C157.744 177.95 156.612 178.036 155.485 178.036ZM186.531 168.072C186.568 168.072 186.605 168.075 186.641 168.081L202.714 170.535C202.865 170.559 203.004 170.629 203.111 170.735C206.176 173.802 210.083 175.772 214.407 176.432C215.47 176.595 216.533 176.675 217.589 176.675C221.804 176.675 225.9 175.395 229.375 172.952C233.72 169.898 236.575 165.39 237.413 160.26C238.416 154.124 236.278 147.832 231.694 143.431C231.591 143.331 231.521 143.202 231.497 143.063L228.102 124.014H144.961L141.566 143.063C141.541 143.202 141.472 143.331 141.368 143.431C136.784 147.832 134.646 154.124 135.649 160.26C136.488 165.39 139.342 169.898 143.688 172.952C148.033 176.007 153.349 177.243 158.656 176.432C162.98 175.772 166.886 173.802 169.952 170.735C170.058 170.628 170.198 170.558 170.349 170.535L186.422 168.081C186.458 168.075 186.495 168.072 186.531 168.072Z" fill="#212121"/>
<path d="M229.978 131.245H222.097V133.64V155.47V157.865H229.978C237.582 157.865 243.748 151.904 243.748 144.553C243.748 137.202 237.582 131.245 229.978 131.245Z" fill="white"/>
<path d="M229.978 158.546H222.097C221.708 158.546 221.393 158.241 221.393 157.865V131.245C221.393 130.869 221.708 130.564 222.097 130.564H229.978C231.932 130.564 233.827 130.934 235.612 131.664C237.336 132.368 238.883 133.377 240.212 134.661C241.542 135.946 242.585 137.441 243.314 139.107C244.069 140.832 244.452 142.665 244.452 144.553C244.452 146.442 244.069 148.274 243.314 150C242.585 151.666 241.542 153.162 240.213 154.447C238.883 155.732 237.336 156.741 235.612 157.446C233.827 158.176 231.932 158.546 229.978 158.546ZM222.801 157.184H229.978C237.183 157.184 243.044 151.518 243.044 144.553C243.044 137.59 237.183 131.926 229.978 131.926H222.801V157.184Z" fill="#212121"/>
<path d="M229.978 152.115H228.748C228.36 152.115 228.044 151.811 228.044 151.435C228.044 151.059 228.36 150.754 228.748 150.754H229.978C233.515 150.754 236.392 147.972 236.392 144.553C236.392 141.136 233.515 138.356 229.978 138.356H228.748C228.36 138.356 228.044 138.051 228.044 137.676C228.044 137.3 228.36 136.995 228.748 136.995H229.978C234.291 136.995 237.8 140.386 237.8 144.553C237.8 148.723 234.291 152.115 229.978 152.115Z" fill="#212121"/>
<path d="M143.202 131.245H151.083V133.64V155.47V157.865H143.202C135.598 157.865 129.432 151.904 129.432 144.553C129.432 137.202 135.598 131.245 143.202 131.245Z" fill="white"/>
<path d="M151.083 158.546H143.202C141.248 158.546 139.353 158.176 137.568 157.446C135.845 156.741 134.297 155.732 132.968 154.447C131.639 153.162 130.595 151.666 129.866 150C129.111 148.274 128.728 146.442 128.728 144.553C128.728 142.665 129.111 140.832 129.866 139.107C130.595 137.441 131.639 135.946 132.968 134.661C134.297 133.377 135.845 132.368 137.568 131.664C139.353 130.934 141.248 130.564 143.202 130.564H151.083C151.472 130.564 151.787 130.869 151.787 131.245V157.865C151.787 158.241 151.472 158.546 151.083 158.546ZM143.202 131.926C135.997 131.926 130.136 137.59 130.136 144.553C130.136 151.518 135.997 157.184 143.202 157.184H150.379V131.926H143.202Z" fill="#212121"/>
<path d="M144.431 152.115H143.202C138.889 152.115 135.38 148.723 135.38 144.553C135.38 140.386 138.889 136.995 143.202 136.995H144.431C144.82 136.995 145.135 137.3 145.135 137.676C145.135 138.051 144.82 138.356 144.431 138.356H143.202C139.665 138.356 136.788 141.136 136.788 144.553C136.788 147.972 139.665 150.754 143.202 150.754H144.431C144.82 150.754 145.135 151.059 145.135 151.435C145.135 151.811 144.82 152.115 144.431 152.115Z" fill="#212121"/>
<path d="M203.764 190.545C192.381 192.676 180.54 192.647 169.649 190.71C156.239 188.325 146.526 176.985 146.526 163.803L146.526 125.671C146.526 110.557 159.2 98.3047 174.834 98.3047H198.229C213.863 98.3047 226.537 110.557 226.537 125.671V163.704C226.537 176.756 217.018 188.063 203.764 190.545Z" fill="white"/>
<path d="M186.23 192.837C180.605 192.837 174.987 192.351 169.522 191.379C155.789 188.937 145.822 177.339 145.822 163.803V125.671C145.822 121.885 146.589 118.212 148.102 114.754C149.563 111.414 151.655 108.414 154.319 105.839C156.983 103.263 160.086 101.241 163.541 99.8284C167.118 98.3657 170.918 97.624 174.834 97.624H198.229C202.145 97.624 205.945 98.3657 209.522 99.8284C212.977 101.241 216.079 103.263 218.744 105.839C221.408 108.414 223.5 111.414 224.961 114.754C226.474 118.212 227.241 121.885 227.241 125.671V163.704C227.241 166.988 226.657 170.212 225.505 173.287C224.382 176.282 222.754 179.052 220.666 181.519C218.574 183.99 216.088 186.077 213.278 187.721C210.386 189.414 207.23 190.589 203.898 191.213C198.118 192.295 192.17 192.837 186.23 192.837ZM174.834 98.9854C159.613 98.9854 147.23 110.957 147.23 125.671V163.803C147.23 176.682 156.712 187.717 169.777 190.04C180.841 192.008 192.547 191.952 203.63 189.876C216.495 187.467 225.833 176.46 225.833 163.704V125.671C225.833 110.957 213.45 98.9854 198.229 98.9854H174.834Z" fill="#212121"/>
<path d="M231.384 89.918C231.43 89.4411 231.478 88.9642 231.478 88.4757C231.478 79.9692 224.344 73.0734 215.546 73.0734C211.844 73.0734 208.445 74.3051 205.74 76.3539C203.382 68.4363 197.875 62.6344 187.065 62.6344C176.255 62.6344 172.273 66.8903 168.976 73.1174C166.37 71.7356 163.38 70.947 160.199 70.947C150.103 70.947 141.919 78.8595 141.919 88.6199C141.919 89.2046 141.951 89.7822 142.009 90.3527C136.145 92.2895 131.923 97.6488 131.923 103.973C131.923 107.896 133.551 111.448 136.182 114.046C135.031 115.984 134.363 118.224 134.363 120.62C134.363 133.703 142.652 133.975 142.652 133.975H150.448V133.954C153.385 133.739 155.71 131.389 155.744 128.495L155.812 122.68C155.818 122.235 155.847 121.795 155.883 121.357C156.061 120.597 156.177 119.816 156.237 119.019C157.657 112.372 162.619 106.804 169.479 104.766C170.984 104.332 172.491 103.974 173.918 103.744C177.525 103.151 181.701 102.751 186.4 102.693C191.097 102.751 195.274 103.151 198.881 103.744C200.308 103.974 201.814 104.332 203.32 104.766C205.431 105.393 207.359 106.361 209.064 107.585C211.634 109.509 215.649 114.92 216.39 119.019C216.45 119.816 216.567 120.597 216.744 121.357C216.781 121.795 216.809 122.235 216.815 122.68L216.884 128.495C216.918 131.389 219.242 133.739 222.179 133.954C222.179 133.961 222.179 133.968 222.179 133.975H229.976C229.976 133.975 238.265 133.703 238.265 120.62C238.265 118.224 237.596 115.984 236.445 114.046C248.677 104.828 238.956 89.4209 231.384 89.918Z" fill="#212121"/>
<path d="M229.976 134.624H222.179C222.099 134.624 222.022 134.611 221.951 134.586C220.425 134.433 219.012 133.759 217.954 132.675C216.849 131.542 216.23 130.061 216.212 128.503L216.143 122.687C216.139 122.325 216.119 121.943 216.078 121.454C215.905 120.702 215.786 119.91 215.723 119.1C214.987 115.118 210.991 109.852 208.658 108.102C206.967 106.889 205.106 105.976 203.126 105.388C201.556 104.935 200.09 104.597 198.77 104.384C194.884 103.746 190.723 103.396 186.4 103.343C182.076 103.396 177.914 103.746 174.031 104.384C172.708 104.597 171.243 104.935 169.673 105.388C163.207 107.31 158.317 112.565 156.904 119.109C156.841 119.916 156.721 120.705 156.549 121.454C156.509 121.944 156.489 122.326 156.484 122.688L156.415 128.503C156.397 130.061 155.778 131.542 154.673 132.675C153.616 133.759 152.202 134.433 150.677 134.586C150.605 134.611 150.528 134.624 150.448 134.624H142.652C142.644 134.624 142.636 134.624 142.629 134.624C142.535 134.621 140.297 134.527 138.072 132.698C136.785 131.64 135.763 130.217 135.035 128.469C134.143 126.328 133.691 123.687 133.691 120.62C133.691 118.371 134.266 116.144 135.357 114.148C132.706 111.361 131.252 107.767 131.252 103.973C131.252 97.7109 135.266 92.1234 141.296 89.9109C141.264 89.4723 141.247 89.0398 141.247 88.6198C141.247 86.1466 141.748 83.7471 142.737 81.4878C143.691 79.3059 145.057 77.3465 146.798 75.664C148.538 73.9815 150.565 72.6605 152.822 71.7376C155.158 70.782 157.641 70.2975 160.199 70.2975C163.146 70.2975 166.067 70.9672 168.691 72.2394C170.076 69.7056 171.903 66.9549 174.821 65.0063C176.328 64.0003 178.012 63.2684 179.971 62.7687C182.038 62.2413 184.358 61.9849 187.065 61.9849C192.328 61.9849 196.681 63.3447 200.003 66.0265C202.736 68.2334 204.786 71.3455 206.105 75.2864C207.326 74.466 208.648 73.8105 210.045 73.3331C211.81 72.7299 213.661 72.424 215.546 72.424C217.787 72.424 219.961 72.8485 222.009 73.6856C223.986 74.4941 225.761 75.6514 227.286 77.1254C228.811 78.5993 230.008 80.3159 230.844 82.2274C231.71 84.2067 232.149 86.3089 232.149 88.4756C232.149 88.7449 232.136 89.009 232.117 89.2682C233.865 89.3714 235.724 90.1853 237.432 91.609C239.328 93.1895 240.903 95.4032 241.867 97.8423C242.98 100.659 243.223 103.589 242.57 106.317C242.206 107.837 241.563 109.287 240.661 110.627C239.786 111.924 238.658 113.128 237.305 114.211C238.374 116.191 238.937 118.395 238.937 120.62C238.937 123.687 238.484 126.328 237.593 128.469C236.864 130.217 235.842 131.64 234.555 132.698C232.33 134.527 230.093 134.621 229.999 134.624C229.991 134.624 229.983 134.624 229.976 134.624ZM222.35 133.326H229.96C230.085 133.318 231.935 133.18 233.75 131.655C236.264 129.543 237.593 125.727 237.593 120.62C237.593 118.437 236.995 116.275 235.863 114.369C235.696 114.089 235.768 113.732 236.032 113.533C243.402 107.979 241.69 101.034 240.612 98.3059C239.726 96.0642 238.285 94.0352 236.555 92.5927C234.86 91.1799 233.039 90.4606 231.429 90.5658C231.233 90.5787 231.04 90.5076 230.903 90.3712C230.765 90.2348 230.697 90.047 230.715 89.8573L230.719 89.8197C230.764 89.3575 230.806 88.921 230.806 88.4756C230.806 80.3409 223.96 73.7228 215.546 73.7228C212.116 73.7228 208.868 74.8094 206.154 76.8651C205.978 76.9982 205.745 77.0382 205.533 76.9717C205.32 76.9052 205.156 76.741 205.094 76.5336C202.476 67.7416 196.41 63.2837 187.065 63.2837C176.922 63.2837 172.971 66.9978 169.574 73.4132C169.491 73.5694 169.347 73.6865 169.173 73.7381C169 73.7896 168.812 73.7711 168.653 73.6867C166.074 72.3191 163.15 71.5963 160.199 71.5963C150.49 71.5963 142.591 79.233 142.591 88.6198C142.591 89.1581 142.62 89.7198 142.678 90.2892C142.708 90.5891 142.521 90.8698 142.226 90.9672C136.466 92.8699 132.595 98.0965 132.595 103.973C132.595 107.587 134.039 111.003 136.662 113.591C136.873 113.799 136.915 114.117 136.765 114.369C135.633 116.275 135.034 118.437 135.034 120.62C135.034 125.727 136.363 129.543 138.877 131.655C140.685 133.174 142.527 133.317 142.669 133.326H150.277C150.316 133.316 150.356 133.309 150.397 133.306C153.032 133.114 155.042 131.042 155.072 128.488L155.141 122.672C155.146 122.268 155.168 121.846 155.214 121.304C155.216 121.274 155.221 121.244 155.228 121.214C155.394 120.5 155.509 119.746 155.567 118.971C155.57 118.943 155.574 118.915 155.58 118.888C157.08 111.859 162.331 106.21 169.281 104.146C169.283 104.145 169.285 104.145 169.286 104.144C170.91 103.675 172.432 103.325 173.808 103.103C177.76 102.454 181.995 102.098 186.391 102.044C186.397 102.044 186.402 102.044 186.408 102.044C190.804 102.098 195.038 102.454 198.993 103.103C200.367 103.325 201.888 103.675 203.512 104.144C203.514 104.145 203.516 104.145 203.518 104.146C205.647 104.778 207.648 105.76 209.465 107.064C209.468 107.066 209.472 107.069 209.475 107.072C210.856 108.105 212.538 109.996 213.976 112.132C215.607 114.556 216.7 116.962 217.052 118.907C217.055 118.928 217.058 118.95 217.06 118.971C217.119 119.746 217.233 120.5 217.399 121.214C217.406 121.244 217.411 121.274 217.413 121.304C217.459 121.846 217.481 122.268 217.487 122.672L217.555 128.488C217.585 131.042 219.595 133.114 222.23 133.306C222.271 133.309 222.311 133.316 222.35 133.326Z" fill="#212121"/>
<path d="M205.064 159.113C204.96 159.113 204.853 159.09 204.753 159.043C204.404 158.876 204.261 158.468 204.434 158.131L207.098 152.916C207.27 152.579 207.692 152.44 208.041 152.607C208.389 152.773 208.532 153.181 208.36 153.518L205.696 158.734C205.573 158.974 205.324 159.113 205.064 159.113Z" fill="#212121"/>
<path d="M208.397 159.113C208.292 159.113 208.186 159.09 208.086 159.043C207.737 158.876 207.594 158.468 207.766 158.131L210.43 152.916C210.603 152.579 211.025 152.44 211.373 152.607C211.722 152.773 211.865 153.181 211.693 153.518L209.029 158.734C208.906 158.974 208.657 159.113 208.397 159.113Z" fill="#212121"/>
<path d="M211.73 159.113C211.625 159.113 211.519 159.09 211.419 159.043C211.07 158.876 210.927 158.468 211.099 158.131L213.763 152.916C213.935 152.579 214.358 152.44 214.706 152.607C215.055 152.773 215.198 153.181 215.026 153.518L212.362 158.734C212.239 158.974 211.989 159.113 211.73 159.113Z" fill="#212121"/>
<path d="M168.106 159.113C167.847 159.113 167.597 158.974 167.475 158.734L164.811 153.518C164.638 153.181 164.781 152.773 165.13 152.607C165.479 152.44 165.901 152.579 166.073 152.916L168.737 158.131C168.909 158.468 168.766 158.876 168.418 159.043C168.317 159.09 168.211 159.113 168.106 159.113Z" fill="#212121"/>
<path d="M164.774 159.113C164.514 159.113 164.264 158.974 164.142 158.734L161.478 153.518C161.306 153.181 161.449 152.773 161.797 152.607C162.146 152.44 162.568 152.579 162.74 152.916L165.404 158.131C165.577 158.468 165.433 158.876 165.085 159.043C164.985 159.09 164.878 159.113 164.774 159.113Z" fill="#212121"/>
<path d="M161.441 159.113C161.181 159.113 160.932 158.974 160.809 158.734L158.145 153.518C157.973 153.181 158.116 152.773 158.465 152.607C158.813 152.44 159.235 152.579 159.408 152.916L162.072 158.131C162.244 158.468 162.101 158.876 161.752 159.043C161.652 159.09 161.545 159.113 161.441 159.113Z" fill="#212121"/>
<path d="M211.137 131.545H195.08C193.101 131.545 191.497 130.626 191.497 129.492C191.497 128.358 193.101 127.439 195.08 127.439H211.137C213.116 127.439 214.72 128.358 214.72 129.492C214.72 130.626 213.116 131.545 211.137 131.545Z" fill="#212121"/>
<path d="M176.303 131.545H160.245C158.266 131.545 156.662 130.626 156.662 129.492C156.662 128.358 158.266 127.439 160.245 127.439H176.303C178.281 127.439 179.885 128.358 179.885 129.492C179.885 130.626 178.281 131.545 176.303 131.545Z" fill="#212121"/>
<path d="M184.177 145.64C184.177 145.64 180.987 153.807 180.987 162.849H187.737" fill="white"/>
<path d="M187.737 163.529L180.988 163.529C180.599 163.529 180.283 163.225 180.283 162.849C180.283 158.11 181.161 153.623 181.898 150.693C182.696 147.517 183.485 145.484 183.518 145.399C183.656 145.047 184.062 144.87 184.426 145.003C184.789 145.136 184.973 145.528 184.836 145.88C184.828 145.9 184.039 147.936 183.261 151.037C182.58 153.748 181.776 157.825 181.698 162.168L187.737 162.168C188.126 162.168 188.441 162.473 188.441 162.849C188.441 163.225 188.126 163.529 187.737 163.529Z" fill="#212121"/>
<path d="M177.85 173.718C178.916 175.627 181.082 177.855 185.379 177.8C192.865 177.705 193.838 170.846 193.838 170.846L176.873 171.062C176.873 171.062 177.059 172.302 177.85 173.718Z" fill="white"/>
<path d="M182.205 178.07C181.412 177.835 180.678 177.499 180.009 177.063C178.871 176.322 177.937 175.308 177.234 174.048C176.394 172.544 176.189 171.223 176.181 171.167C176.152 170.972 176.211 170.773 176.344 170.622C176.477 170.471 176.67 170.383 176.873 170.38L193.834 170.164C194.037 170.161 194.231 170.245 194.364 170.392C194.498 170.54 194.559 170.737 194.531 170.933C194.52 171.01 194.251 172.824 192.997 174.661C191.827 176.375 189.556 178.429 185.381 178.482C184.238 178.497 183.177 178.359 182.205 178.07ZM178.469 173.388C179.434 175.117 181.417 177.168 185.376 177.117C188.212 177.081 190.374 176.017 191.801 173.955C192.421 173.061 192.768 172.158 192.953 171.54L177.763 171.734C177.899 172.176 178.121 172.765 178.469 173.388Z" fill="#212121"/>
<path d="M205.278 147.448C207.283 145.51 207.283 142.367 205.278 140.429C203.273 138.491 200.023 138.491 198.018 140.429C196.013 142.368 196.013 145.51 198.018 147.448C200.023 149.387 203.273 149.387 205.278 147.448Z" fill="#212121"/>
<path d="M206.818 146.729L196.551 146.831L196.578 149.376L206.846 149.274L206.818 146.729Z" fill="white"/>
<path d="M172.904 147.448C174.909 145.51 174.909 142.367 172.904 140.429C170.899 138.491 167.648 138.491 165.643 140.429C163.638 142.367 163.638 145.51 165.643 147.448C167.648 149.386 170.899 149.386 172.904 147.448Z" fill="#212121"/>
<path d="M174.444 146.73L164.176 146.832L164.203 149.378L174.471 149.276L174.444 146.73Z" fill="white"/>
<path d="M206.814 146.053C206.811 146.053 206.809 146.053 206.806 146.053L196.539 146.155C196.15 146.159 195.838 146.467 195.842 146.843C195.846 147.216 196.16 147.516 196.546 147.516C196.548 147.516 196.551 147.516 196.553 147.516L206.821 147.415C207.209 147.411 207.521 147.103 207.517 146.727C207.513 146.353 207.199 146.053 206.814 146.053Z" fill="#212121"/>
<path d="M196.546 147.819C195.991 147.819 195.535 147.382 195.529 146.846C195.526 146.583 195.629 146.335 195.819 146.148C196.009 145.96 196.264 145.855 196.535 145.853L206.813 145.751C207.368 145.751 207.825 146.187 207.83 146.724C207.836 147.266 207.384 147.712 206.824 147.717L196.546 147.819ZM206.806 146.356L196.542 146.457C196.437 146.458 196.34 146.499 196.266 146.571C196.193 146.643 196.154 146.738 196.155 146.839C196.157 147.046 196.332 147.214 196.546 147.214H196.553L206.817 147.112C207.033 147.11 207.207 146.939 207.204 146.73C207.202 146.524 207.027 146.356 206.813 146.356H206.806Z" fill="white"/>
<path d="M174.439 146.053C174.436 146.053 174.434 146.053 174.431 146.053L164.164 146.155C163.775 146.159 163.463 146.467 163.467 146.843C163.471 147.216 163.786 147.516 164.171 147.516C164.173 147.516 164.176 147.516 164.178 147.516L174.446 147.415C174.835 147.411 175.147 147.103 175.143 146.727C175.139 146.353 174.824 146.053 174.439 146.053Z" fill="#212121"/>
<path d="M164.171 147.819C163.616 147.819 163.16 147.382 163.154 146.846C163.151 146.583 163.254 146.335 163.445 146.148C163.635 145.96 163.889 145.855 164.161 145.853L174.439 145.751C174.994 145.751 175.45 146.187 175.455 146.724C175.461 147.266 175.01 147.712 174.449 147.717L164.171 147.819ZM174.431 146.356L164.167 146.457C164.063 146.458 163.965 146.499 163.892 146.571C163.819 146.643 163.779 146.738 163.78 146.839C163.782 147.046 163.958 147.214 164.171 147.214H164.178L174.442 147.112C174.658 147.11 174.832 146.939 174.83 146.73C174.827 146.524 174.652 146.356 174.439 146.356H174.431Z" fill="white"/>
</svg>
