<svg width="287" height="268" viewBox="0 0 287 268" fill="none" xmlns="http://www.w3.org/2000/svg">
<ellipse cx="149.974" cy="134" rx="128.395" ry="134" fill="#D2E179"/>
<path d="M123.401 32.658L134.906 102.527C135.14 103.942 133.867 105.163 132.398 104.932L86.936 97.7917C85.4674 97.561 84.6631 96.0142 85.3511 94.7435L119.308 32.0151C120.281 30.2174 123.072 30.6557 123.401 32.658Z" fill="#212121"/>
<path d="M132.761 105.593C132.606 105.593 132.449 105.581 132.292 105.556L86.8303 98.4156C85.9199 98.2726 85.1609 97.735 84.7478 96.9407C84.3348 96.1463 84.3425 95.2389 84.769 94.4512L118.726 31.7228C119.303 30.6575 120.471 30.0942 121.702 30.2876C122.933 30.481 123.854 31.3725 124.05 32.5589L135.555 102.428C135.699 103.305 135.407 104.168 134.753 104.795C134.213 105.313 133.505 105.593 132.761 105.593ZM121.233 31.5155C120.754 31.5155 120.208 31.7206 119.89 32.3073L85.933 95.0357C85.7037 95.4594 85.6996 95.9473 85.9217 96.3745C86.1438 96.8018 86.552 97.0909 87.0416 97.1678L132.504 104.308C132.993 104.385 133.476 104.236 133.827 103.899C134.179 103.562 134.336 103.098 134.258 102.626L122.753 32.757C122.625 31.9826 122.017 31.6183 121.49 31.5355C121.408 31.5226 121.322 31.5155 121.233 31.5155Z" fill="#212121"/>
<path d="M128.258 62.1513L126.659 52.4402L99.9199 67.8305L91.5599 83.2737L128.258 62.1513Z" fill="white"/>
<path d="M91.5601 83.9059C91.3967 83.9059 91.2346 83.8472 91.1095 83.7335C90.8959 83.5394 90.8422 83.2322 90.9779 82.9814L99.3379 67.5382C99.394 67.4345 99.479 67.3478 99.5832 67.2878L126.322 51.8976C126.509 51.7899 126.739 51.7786 126.937 51.8676C127.134 51.9565 127.273 52.1339 127.307 52.3412L128.906 62.0523C128.948 62.3074 128.825 62.5615 128.595 62.694L91.8966 83.8164C91.7922 83.8765 91.6758 83.9059 91.5601 83.9059ZM100.416 68.2814L93.2143 81.585L127.54 61.828L126.163 53.4623L100.416 68.2814Z" fill="#212121"/>
<path d="M129.562 70.0705L85.1035 95.6596C85.0764 96.6655 85.8107 97.6149 86.9359 97.7916L97.0974 99.3877L131.161 79.7815L129.562 70.0705Z" fill="white"/>
<path d="M97.0974 100.02C97.0622 100.02 97.0269 100.017 96.9917 100.012L86.8303 98.4156C85.435 98.1965 84.4106 97.0046 84.4474 95.6432C84.4532 95.4266 84.5738 95.2281 84.7668 95.1169L129.225 69.5278C129.412 69.4202 129.642 69.4089 129.84 69.4978C130.037 69.5867 130.176 69.7642 130.21 69.9714L131.809 79.6825C131.851 79.9377 131.728 80.1917 131.498 80.3242L97.4341 99.9304C97.3318 99.9893 97.2153 100.02 97.0974 100.02ZM85.7888 96.0016C85.9117 96.5911 86.4049 97.0677 87.0416 97.1677L96.9664 98.7266L130.443 79.4583L129.066 71.0926L85.7888 96.0016Z" fill="#212121"/>
<path d="M115.097 39.7936L106.737 55.2369L125.355 44.5211L123.756 34.81L115.097 39.7936Z" fill="white"/>
<path d="M106.737 55.8691C106.574 55.8691 106.412 55.8104 106.287 55.6967C106.073 55.5026 106.019 55.1955 106.155 54.9446L114.515 39.5013C114.571 39.3976 114.656 39.311 114.76 39.2509L123.419 34.2673C123.606 34.1597 123.836 34.1484 124.034 34.2374C124.231 34.3262 124.37 34.5037 124.404 34.711L126.003 44.4221C126.045 44.6772 125.922 44.9312 125.691 45.0638L107.074 55.7796C106.969 55.8397 106.853 55.8691 106.737 55.8691ZM115.593 40.2445L108.392 53.5482L124.637 44.1978L123.259 35.8321L115.593 40.2445Z" fill="#212121"/>
<path d="M134.064 97.4118L132.465 87.7007L108.931 101.246L123.442 103.526L134.064 97.4118Z" fill="white"/>
<path d="M123.442 104.158C123.407 104.158 123.371 104.155 123.336 104.15L108.825 101.87C108.553 101.828 108.338 101.626 108.286 101.365C108.234 101.104 108.357 100.84 108.594 100.704L132.128 87.1581C132.315 87.0504 132.546 87.0391 132.743 87.1281C132.94 87.217 133.079 87.3944 133.113 87.6017L134.712 97.3128C134.754 97.5679 134.631 97.8219 134.401 97.9545L123.779 104.068C123.676 104.127 123.56 104.158 123.442 104.158ZM110.81 100.901L123.311 102.864L133.346 97.0885L131.969 88.7229L110.81 100.901Z" fill="#212121"/>
<path d="M109.861 214.535C109.861 221.927 76.8381 221.302 76.8381 214.535V188.606H109.861L109.861 214.535Z" fill="white"/>
<path d="M93.8957 220.479C89.5022 220.479 85.1743 219.975 82.0216 219.095C80.2777 218.609 78.9013 218.016 77.9307 217.335C76.7701 216.52 76.1816 215.578 76.1816 214.535L76.1817 188.606C76.1817 188.257 76.4755 187.974 76.8381 187.974H109.861C110.223 187.974 110.517 188.257 110.517 188.606L110.517 214.535C110.517 215.604 109.977 216.563 108.911 217.384C108.011 218.077 106.727 218.672 105.096 219.151C102.181 220.008 98.203 220.479 93.8957 220.479ZM77.4944 189.239V214.535C77.4944 215.152 77.9014 215.75 78.7039 216.313C79.5509 216.908 80.79 217.435 82.3869 217.881C85.4259 218.729 89.6207 219.215 93.8957 219.215C98.0768 219.215 101.918 218.763 104.713 217.942C106.185 217.51 107.321 216.99 108.091 216.396C108.84 215.819 109.205 215.21 109.205 214.535L109.205 189.239L77.4944 189.239Z" fill="#212121"/>
<path d="M90.9967 186.21L79.8914 186.338C64.1154 186.52 51.1735 174.349 50.9849 159.155L50.6982 136.059L90.3686 135.602L90.9967 186.21Z" fill="#212121"/>
<path d="M79.539 186.972C75.7211 186.972 72.0082 186.272 68.4973 184.889C65 183.512 61.8498 181.518 59.1343 178.965C56.4188 176.411 54.2746 173.426 52.7611 170.091C51.1941 166.639 50.3757 162.962 50.3285 159.163L50.0418 136.067C50.0397 135.899 50.1069 135.738 50.2285 135.618C50.3501 135.498 50.5162 135.429 50.6903 135.427L90.3606 134.97C90.5343 134.967 90.7025 135.033 90.8271 135.15C90.9516 135.267 91.0228 135.427 91.0248 135.595L91.653 186.202C91.6574 186.552 91.3671 186.838 91.0046 186.842L79.8992 186.97C79.7791 186.971 79.6589 186.972 79.539 186.972ZM51.3624 136.684L51.6412 159.148C51.7304 166.328 54.7171 173.044 60.0514 178.06C65.3857 183.076 72.429 185.792 79.8835 185.706L90.3326 185.585L89.7201 136.242L51.3624 136.684Z" fill="#212121"/>
<path d="M85.0777 192.91C95.7271 194.769 106.78 194.615 116.924 192.697C129.415 190.334 138.351 179.684 138.198 167.426L137.758 131.965C137.584 117.909 125.612 106.651 111.018 106.819L89.1796 107.07C74.5857 107.238 62.8965 118.769 63.071 132.825L63.5101 168.194C63.6607 180.331 72.6768 190.744 85.0777 192.91Z" fill="white"/>
<path d="M100.417 194.858C95.2223 194.858 90.0257 194.416 84.9605 193.532C81.8434 192.987 78.8839 191.929 76.1641 190.386C73.5222 188.887 71.1782 186.973 69.1971 184.697C67.2192 182.425 65.6675 179.867 64.5853 177.094C63.4743 174.247 62.8917 171.255 62.8538 168.201L62.4147 132.832C62.371 129.311 63.0447 125.887 64.4171 122.655C65.7426 119.533 67.6605 116.722 70.1176 114.298C72.5748 111.874 75.4474 109.96 78.656 108.609C81.9782 107.211 85.5162 106.48 89.1718 106.438L111.01 106.187C114.667 106.144 118.221 106.793 121.577 108.115C124.818 109.392 127.737 111.239 130.254 113.605C132.77 115.972 134.758 118.739 136.16 121.829C137.612 125.029 138.371 128.436 138.415 131.957L138.855 167.418C139.011 180.006 129.841 190.898 117.051 193.317C111.62 194.344 106.02 194.858 100.417 194.858ZM111.338 107.449C111.234 107.449 111.131 107.45 111.026 107.451L89.1875 107.702C74.9788 107.866 63.5575 119.132 63.7273 132.817L64.1664 168.186C64.3136 180.049 73.1573 190.186 85.1947 192.288C95.5638 194.098 106.492 194.025 116.798 192.076C128.967 189.775 137.691 179.411 137.542 167.434L137.102 131.972C136.933 118.389 125.405 107.449 111.338 107.449Z" fill="#212121"/>
<path d="M50.7296 138.585L50.2748 101.948C50.2269 98.0923 53.4259 94.925 57.4294 94.8644L136.353 93.6712C140.378 93.6104 143.687 96.7112 143.736 100.588L144.063 126.946C144.11 130.785 142.82 134.529 140.399 137.579L137.868 140.767C137.868 140.767 137.436 132.819 136.956 128.646C135.959 119.985 128.297 113.471 119.251 113.638L86.344 114.243C76.7458 114.419 69.0936 122.022 69.2084 131.267L69.2912 137.937L62.583 138.008" fill="#212121"/>
<path d="M137.867 141.399C137.803 141.399 137.737 141.39 137.673 141.371C137.411 141.293 137.226 141.065 137.212 140.8C137.208 140.721 136.776 132.822 136.303 128.716C135.349 120.426 128.196 114.267 119.596 114.267C119.485 114.267 119.375 114.268 119.264 114.27L86.3565 114.875C77.1529 115.044 69.7546 122.394 69.8647 131.26L69.9475 137.929C69.9495 138.097 69.8823 138.259 69.7606 138.379C69.6388 138.499 69.4726 138.567 69.2984 138.569L62.5901 138.64C62.5877 138.64 62.5852 138.64 62.5828 138.64C62.2236 138.64 61.9306 138.362 61.9266 138.015C61.9226 137.666 62.2132 137.38 62.5757 137.376L68.6269 137.312L68.552 131.275C68.5229 128.93 68.9696 126.648 69.8796 124.493C70.7587 122.412 72.0315 120.535 73.6625 118.914C75.2935 117.294 77.2021 116.01 79.3351 115.099C81.5431 114.156 83.897 113.656 86.3314 113.611L119.239 113.006C123.777 112.922 128.15 114.468 131.556 117.357C134.958 120.244 137.107 124.229 137.608 128.576C137.949 131.54 138.268 136.445 138.424 139.026L139.877 137.195C142.199 134.271 143.452 130.634 143.406 126.953L143.079 100.595C143.058 98.8898 142.347 97.2955 141.078 96.1062C139.808 94.9168 138.133 94.2768 136.363 94.3033L57.4396 95.4965C53.8074 95.5514 50.8876 98.4423 50.931 101.941L51.3858 138.577C51.3902 138.927 51.0998 139.213 50.7373 139.217C50.3748 139.223 50.0775 138.942 50.0732 138.592L49.6184 101.956C49.5931 99.9225 50.39 97.9999 51.8622 96.5422C53.3345 95.0846 55.3079 94.2642 57.419 94.2323L136.342 93.0391C138.466 93.0067 140.471 93.7744 141.993 95.1998C143.515 96.6252 144.366 98.536 144.392 100.58L144.719 126.938C144.744 128.919 144.428 130.877 143.78 132.758C143.132 134.638 142.169 136.39 140.92 137.963L138.389 141.151C138.263 141.31 138.068 141.399 137.867 141.399Z" fill="#212121"/>
<path d="M64.6427 162.763L56.0857 162.848C48.9878 162.93 43.1633 157.453 43.0785 150.617C42.9936 143.78 48.6805 138.174 55.7784 138.093L64.3354 138.008" fill="white"/>
<path d="M55.9267 163.481C52.381 163.481 49.0365 162.17 46.4937 159.779C43.9112 157.351 42.4653 154.099 42.4221 150.624C42.379 147.149 43.7439 143.866 46.2654 141.38C48.7865 138.894 52.1622 137.502 55.7706 137.46L64.3287 137.376C64.331 137.376 64.3333 137.376 64.3356 137.376C64.6949 137.376 64.9881 137.654 64.9918 138.001C64.9955 138.351 64.7047 138.636 64.3422 138.64L55.7852 138.725C49.0607 138.802 43.6544 144.134 43.7348 150.609C43.8152 157.087 49.3539 162.296 56.0779 162.216L64.636 162.131C64.6383 162.131 64.6406 162.131 64.6429 162.131C65.0023 162.131 65.2954 162.41 65.2991 162.757C65.3028 163.106 65.012 163.392 64.6495 163.396L56.0925 163.48C56.0372 163.481 55.9819 163.481 55.9267 163.481Z" fill="#212121"/>
<path d="M55.9307 157.501C51.945 157.501 48.6789 154.402 48.6311 150.553C48.6079 148.678 49.3462 146.905 50.7102 145.56C52.074 144.216 53.8975 143.463 55.8448 143.441L56.9926 143.427C57.3568 143.422 57.6524 143.703 57.6567 144.052C57.661 144.401 57.3707 144.687 57.0082 144.692L55.8604 144.705C54.2637 144.723 52.7681 145.341 51.6492 146.444C50.5304 147.547 49.9247 149.001 49.9438 150.538C49.983 153.694 52.6621 156.236 55.9309 156.236C55.9552 156.236 55.9792 156.236 56.0036 156.236L57.1514 156.223C57.154 156.223 57.1567 156.223 57.1594 156.223C57.5182 156.223 57.8112 156.501 57.8155 156.847C57.8199 157.197 57.5295 157.483 57.167 157.487L56.0192 157.5C55.9898 157.501 55.9602 157.501 55.9307 157.501Z" fill="#212121"/>
<path d="M127.321 148.504C129.258 146.638 129.257 143.614 127.321 141.749C125.384 139.883 122.244 139.883 120.307 141.749C118.37 143.614 118.37 146.639 120.307 148.504C122.244 150.369 125.384 150.369 127.321 148.504Z" fill="#212121"/>
<path d="M93.3494 150.254C96.0884 150.254 98.3089 148.115 98.3089 145.477C98.3089 142.839 96.0884 140.701 93.3494 140.701C90.6103 140.701 88.3899 142.839 88.3899 145.477C88.3899 148.115 90.6103 150.254 93.3494 150.254Z" fill="#212121"/>
<path d="M83.7934 137.28C89.3225 132.604 92.6723 132.925 98.852 135.93C100.708 135.764 102.074 134.18 101.905 132.393C101.735 130.606 100.094 129.292 98.2381 129.458L83.1795 130.808C81.3238 130.975 79.957 132.558 80.1266 134.345C80.2961 136.132 81.9378 137.446 83.7934 137.28Z" fill="#212121"/>
<path d="M115.357 135.22C122.033 131.508 125.278 132.025 130.437 136.32C132.295 136.455 133.913 135.114 134.05 133.325C134.187 131.535 132.792 129.974 130.934 129.839L115.854 128.739C113.996 128.603 112.378 129.944 112.241 131.734C112.103 133.524 113.498 135.084 115.357 135.22Z" fill="#212121"/>
<path d="M93.9559 191.601C90.9618 191.601 88.0506 191.099 85.2973 190.107C82.5449 189.116 80.0655 187.68 77.9281 185.839C75.7865 183.994 74.0958 181.835 72.9029 179.422C71.6656 176.92 71.0212 174.253 70.9875 171.498L70.0451 94.4055C70.0408 94.0563 70.3312 93.77 70.6937 93.7659C70.6963 93.7659 70.699 93.7659 70.7016 93.7659C71.0605 93.7659 71.3535 94.044 71.3578 94.3906L72.3002 171.483C72.4279 181.93 82.1182 190.337 93.9608 190.337C94.0555 190.337 94.1499 190.336 94.2449 190.335L123.85 189.999C123.853 189.999 123.856 189.999 123.858 189.999C124.217 189.999 124.51 190.277 124.514 190.624C124.519 190.973 124.228 191.259 123.866 191.264L94.2603 191.599C94.1589 191.601 94.0571 191.601 93.9559 191.601Z" fill="#212121"/>
<path d="M71.072 125.36C70.7131 125.36 70.4201 125.082 70.4159 124.735L70.0451 94.4056C70.0408 94.0564 70.3312 93.7701 70.6937 93.766C70.6964 93.7659 70.699 93.7659 70.7016 93.7659C71.0605 93.7659 71.3535 94.0441 71.3578 94.3907L71.7285 124.72C71.7328 125.069 71.4424 125.356 71.0799 125.36C71.0773 125.36 71.0747 125.36 71.072 125.36Z" fill="white"/>
<path d="M85.9493 161.93C90.8684 161.781 94.7583 159.33 94.6376 156.454C94.5168 153.579 90.4312 151.369 85.5121 151.517C80.593 151.666 76.7031 154.117 76.8238 156.993C76.9445 159.868 81.0302 162.078 85.9493 161.93Z" fill="#FFF3EE"/>
<path opacity="0.2" d="M81.1152 157.217C82.4717 157.217 83.5714 156.284 83.5714 155.133C83.5714 153.982 82.4717 153.049 81.1152 153.049C79.7587 153.049 78.6591 153.982 78.6591 155.133C78.6591 156.284 79.7587 157.217 81.1152 157.217Z" fill="#FFDBD0"/>
<path d="M138.874 158.043C138.995 155.167 135.105 152.716 130.186 152.567C125.267 152.419 121.181 154.629 121.061 157.504C120.94 160.38 124.83 162.831 129.749 162.98C134.668 163.128 138.754 160.918 138.874 158.043Z" fill="#FFF3EE"/>
<path opacity="0.2" d="M134.583 158.273C135.939 158.273 137.039 157.34 137.039 156.19C137.039 155.039 135.939 154.106 134.583 154.106C133.226 154.106 132.126 155.039 132.126 156.19C132.126 157.34 133.226 158.273 134.583 158.273Z" fill="#FFDBD0"/>
<path d="M112.211 157.55C112.211 155.809 110.761 154.399 108.974 154.399C107.186 154.399 105.737 155.809 105.737 157.55" stroke="#4A4A4A" stroke-width="2" stroke-miterlimit="10" stroke-linecap="round" stroke-linejoin="round"/>
<path d="M108.434 176.454C114.101 176.454 118.915 173.786 120.657 170.073C121.347 168.602 120.015 167.002 118.182 167.002H98.6861C96.8523 167.002 95.5211 168.602 96.2117 170.073C97.9537 173.786 102.768 176.454 108.434 176.454Z" fill="#FFD1CA"/>
<ellipse cx="91.7105" cy="143.896" rx="2.15789" ry="2.10052" fill="white"/>
<ellipse cx="121.921" cy="142.846" rx="2.15789" ry="2.10052" fill="white"/>
<path d="M224.822 32.658L236.327 102.527C236.561 103.942 235.288 105.163 233.819 104.932L188.357 97.7917C186.888 97.561 186.084 96.0142 186.772 94.7435L220.729 32.0151C221.702 30.2174 224.493 30.6557 224.822 32.658Z" fill="#212121"/>
<path d="M234.182 105.593C234.027 105.593 233.87 105.581 233.713 105.556L188.251 98.4156C187.341 98.2726 186.582 97.735 186.169 96.9407C185.756 96.1463 185.764 95.2389 186.19 94.4512L220.147 31.7228C220.724 30.6575 221.892 30.0942 223.123 30.2876C224.354 30.481 225.275 31.3725 225.471 32.5589L236.976 102.428C237.12 103.305 236.828 104.168 236.174 104.795C235.634 105.313 234.926 105.593 234.182 105.593ZM222.654 31.5155C222.175 31.5155 221.629 31.7206 221.311 32.3073L187.354 95.0357C187.125 95.4594 187.121 95.9473 187.343 96.3745C187.565 96.8018 187.973 97.0909 188.463 97.1678L233.925 104.308C234.414 104.385 234.897 104.236 235.248 103.899C235.6 103.562 235.757 103.098 235.679 102.626L224.174 32.757C224.047 31.9826 223.438 31.6183 222.911 31.5355C222.829 31.5226 222.743 31.5155 222.654 31.5155Z" fill="#212121"/>
<path d="M229.679 62.1513L228.08 52.4402L201.341 67.8305L192.981 83.2737L229.679 62.1513Z" fill="white"/>
<path d="M192.981 83.9059C192.818 83.9059 192.656 83.8472 192.531 83.7335C192.317 83.5394 192.263 83.2322 192.399 82.9814L200.759 67.5382C200.815 67.4345 200.9 67.3478 201.004 67.2878L227.743 51.8976C227.93 51.7899 228.16 51.7786 228.358 51.8676C228.555 51.9565 228.694 52.1339 228.728 52.3412L230.327 62.0523C230.369 62.3074 230.246 62.5615 230.016 62.694L193.318 83.8164C193.213 83.8765 193.097 83.9059 192.981 83.9059ZM201.837 68.2814L194.635 81.585L228.961 61.828L227.584 53.4623L201.837 68.2814Z" fill="#212121"/>
<path d="M230.983 70.0705L186.525 95.6596C186.498 96.6655 187.232 97.6149 188.357 97.7916L198.518 99.3877L232.582 79.7815L230.983 70.0705Z" fill="white"/>
<path d="M198.518 100.02C198.483 100.02 198.448 100.017 198.413 100.012L188.251 98.4156C186.856 98.1965 185.832 97.0046 185.868 95.6432C185.874 95.4266 185.995 95.2281 186.188 95.1169L230.646 69.5278C230.833 69.4202 231.063 69.4089 231.261 69.4978C231.458 69.5867 231.597 69.7642 231.631 69.9714L233.23 79.6825C233.272 79.9377 233.149 80.1917 232.919 80.3242L198.855 99.9304C198.753 99.9893 198.636 100.02 198.518 100.02ZM187.21 96.0016C187.333 96.5911 187.826 97.0677 188.463 97.1677L198.387 98.7266L231.864 79.4583L230.487 71.0926L187.21 96.0016Z" fill="#212121"/>
<path d="M216.518 39.7936L208.158 55.2369L226.776 44.5211L225.177 34.81L216.518 39.7936Z" fill="white"/>
<path d="M208.158 55.8691C207.995 55.8691 207.833 55.8104 207.708 55.6967C207.494 55.5026 207.44 55.1955 207.576 54.9446L215.936 39.5013C215.992 39.3976 216.077 39.311 216.181 39.2509L224.84 34.2673C225.027 34.1597 225.257 34.1484 225.455 34.2374C225.652 34.3262 225.791 34.5037 225.825 34.711L227.424 44.4221C227.466 44.6772 227.343 44.9312 227.112 45.0638L208.495 55.7796C208.39 55.8397 208.274 55.8691 208.158 55.8691ZM217.014 40.2445L209.813 53.5482L226.058 44.1978L224.68 35.8321L217.014 40.2445Z" fill="#212121"/>
<path d="M235.485 97.4118L233.886 87.7007L210.352 101.246L224.863 103.526L235.485 97.4118Z" fill="white"/>
<path d="M224.863 104.158C224.828 104.158 224.793 104.155 224.757 104.15L210.246 101.87C209.974 101.828 209.759 101.626 209.707 101.365C209.656 101.104 209.779 100.84 210.015 100.704L233.549 87.1581C233.736 87.0504 233.967 87.0391 234.164 87.1281C234.361 87.217 234.5 87.3944 234.534 87.6017L236.133 97.3128C236.175 97.5679 236.052 97.8219 235.822 97.9545L225.2 104.068C225.098 104.127 224.981 104.158 224.863 104.158ZM212.231 100.901L224.732 102.864L234.767 97.0885L233.39 88.7229L212.231 100.901Z" fill="#212121"/>
<path d="M211.282 214.535C211.282 221.927 178.259 221.302 178.259 214.535V188.606H211.282L211.282 214.535Z" fill="white"/>
<path d="M195.317 220.479C190.923 220.479 186.595 219.975 183.443 219.095C181.699 218.609 180.322 218.016 179.352 217.335C178.191 216.52 177.603 215.578 177.603 214.535L177.603 188.606C177.603 188.257 177.897 187.974 178.259 187.974H211.282C211.644 187.974 211.938 188.257 211.938 188.606L211.938 214.535C211.938 215.604 211.398 216.563 210.332 217.384C209.432 218.077 208.148 218.672 206.517 219.151C203.602 220.008 199.624 220.479 195.317 220.479ZM178.915 189.239V214.535C178.915 215.152 179.322 215.75 180.125 216.313C180.972 216.908 182.211 217.435 183.808 217.881C186.847 218.729 191.042 219.215 195.317 219.215C199.498 219.215 203.339 218.763 206.134 217.942C207.606 217.51 208.742 216.99 209.512 216.396C210.261 215.819 210.626 215.21 210.626 214.535L210.626 189.239L178.915 189.239Z" fill="#212121"/>
<path d="M192.053 219.3L181.051 219.512C165.423 219.812 152.602 199.659 152.416 174.497L152.132 136.251L191.43 135.494L192.053 219.3Z" fill="#212121"/>
<path d="M180.96 186.972C177.142 186.972 173.429 186.272 169.918 184.889C166.421 183.512 163.271 181.518 160.555 178.965C157.84 176.411 155.696 173.426 154.182 170.091C152.615 166.639 151.797 162.962 151.75 159.163L151.463 136.067C151.461 135.899 151.528 135.738 151.65 135.618C151.771 135.498 151.937 135.429 152.111 135.427L191.782 134.97C191.955 134.967 192.123 135.033 192.248 135.15C192.373 135.267 192.444 135.427 192.446 135.595L193.074 186.202C193.078 186.552 192.788 186.838 192.426 186.842L181.32 186.97C181.2 186.971 181.08 186.972 180.96 186.972ZM152.783 136.684L153.062 159.148C153.151 166.328 156.138 173.044 161.472 178.06C166.807 183.076 173.85 185.792 181.305 185.706L191.754 185.585L191.141 136.242L152.783 136.684Z" fill="#212121"/>
<path d="M186.499 192.91C197.148 194.769 208.201 194.615 218.345 192.697C230.836 190.334 239.772 179.684 239.619 167.426L239.179 131.965C239.005 117.909 227.033 106.651 212.439 106.819L190.601 107.07C176.007 107.238 164.318 118.769 164.492 132.825L164.931 168.194C165.082 180.331 174.098 190.744 186.499 192.91Z" fill="white"/>
<path d="M201.838 194.858C196.643 194.858 191.447 194.416 186.382 193.532C183.264 192.987 180.305 191.929 177.585 190.386C174.943 188.887 172.599 186.973 170.618 184.697C168.64 182.425 167.089 179.867 166.006 177.094C164.895 174.247 164.313 171.255 164.275 168.201L163.836 132.832C163.792 129.311 164.466 125.887 165.838 122.655C167.164 119.533 169.081 116.722 171.539 114.298C173.996 111.874 176.868 109.96 180.077 108.609C183.399 107.211 186.937 106.48 190.593 106.438L212.431 106.187C216.088 106.144 219.642 106.793 222.998 108.115C226.239 109.392 229.158 111.239 231.675 113.605C234.191 115.972 236.179 118.739 237.581 121.829C239.034 125.029 239.792 128.436 239.836 131.957L240.276 167.418C240.432 180.006 231.262 190.898 218.472 193.317C213.041 194.344 207.441 194.858 201.838 194.858ZM212.76 107.449C212.655 107.449 212.552 107.45 212.447 107.451L190.608 107.702C176.4 107.866 164.979 119.132 165.148 132.817L165.587 168.186C165.735 180.049 174.578 190.186 186.616 192.288C196.985 194.098 207.913 194.025 218.219 192.076C230.388 189.775 239.112 179.411 238.963 167.434L238.523 131.972C238.354 118.389 226.826 107.449 212.76 107.449Z" fill="#212121"/>
<path d="M152.151 138.585L151.696 101.948C151.648 98.0923 154.847 94.925 158.85 94.8644L237.774 93.6712C241.798 93.6104 245.108 96.7112 245.156 100.588L245.484 126.946C245.531 130.785 244.241 134.529 241.819 137.579L239.288 140.767C239.288 140.767 238.857 132.819 238.376 128.646C237.379 119.985 229.718 113.471 220.672 113.638L187.765 114.243C178.167 114.419 170.514 122.022 170.629 131.267L170.712 137.937L164.004 138.008" fill="#212121"/>
<path d="M239.288 141.399C239.224 141.399 239.158 141.39 239.094 141.371C238.832 141.293 238.647 141.065 238.633 140.8C238.629 140.721 238.197 132.822 237.724 128.716C236.77 120.426 229.617 114.267 221.017 114.267C220.906 114.267 220.796 114.268 220.685 114.27L187.778 114.875C178.574 115.044 171.176 122.394 171.286 131.26L171.369 137.929C171.371 138.097 171.303 138.259 171.182 138.379C171.06 138.499 170.894 138.567 170.719 138.569L164.011 138.64C164.009 138.64 164.006 138.64 164.004 138.64C163.645 138.64 163.352 138.362 163.348 138.015C163.344 137.666 163.634 137.38 163.997 137.376L170.048 137.312L169.973 131.275C169.944 128.93 170.391 126.648 171.301 124.493C172.18 122.412 173.452 120.535 175.084 118.914C176.715 117.294 178.623 116.01 180.756 115.099C182.964 114.156 185.318 113.656 187.752 113.611L220.66 113.006C225.198 112.922 229.571 114.468 232.977 117.357C236.379 120.244 238.528 124.229 239.029 128.576C239.37 131.54 239.689 136.445 239.845 139.026L241.298 137.195C243.62 134.271 244.873 130.634 244.827 126.953L244.5 100.595C244.479 98.8898 243.768 97.2955 242.499 96.1062C241.229 94.9168 239.554 94.2768 237.784 94.3033L158.861 95.4965C155.228 95.5514 152.309 98.4423 152.352 101.941L152.807 138.577C152.811 138.927 152.521 139.213 152.158 139.217C151.796 139.223 151.498 138.942 151.494 138.592L151.039 101.956C151.014 99.9225 151.811 97.9999 153.283 96.5422C154.755 95.0846 156.729 94.2642 158.84 94.2323L237.763 93.0391C239.887 93.0067 241.893 93.7744 243.414 95.1998C244.936 96.6252 245.787 98.536 245.813 100.58L246.14 126.938C246.165 128.919 245.849 130.877 245.201 132.758C244.553 134.638 243.591 136.39 242.341 137.963L239.81 141.151C239.684 141.31 239.489 141.399 239.288 141.399Z" fill="#212121"/>
<path d="M166.064 162.763L157.507 162.848C150.409 162.93 144.584 157.453 144.5 150.617C144.415 143.78 150.102 138.174 157.2 138.093L165.757 138.008" fill="white"/>
<path d="M157.348 163.481C153.802 163.481 150.458 162.17 147.915 159.779C145.332 157.351 143.886 154.099 143.843 150.624C143.8 147.149 145.165 143.866 147.686 141.38C150.208 138.894 153.583 137.502 157.192 137.46L165.75 137.376C165.752 137.376 165.754 137.376 165.757 137.376C166.116 137.376 166.409 137.654 166.413 138.001C166.417 138.351 166.126 138.636 165.763 138.64L157.206 138.725C150.482 138.802 145.076 144.134 145.156 150.609C145.236 157.087 150.775 162.296 157.499 162.216L166.057 162.131C166.059 162.131 166.062 162.131 166.064 162.131C166.423 162.131 166.717 162.41 166.72 162.757C166.724 163.106 166.433 163.392 166.071 163.396L157.514 163.48C157.458 163.481 157.403 163.481 157.348 163.481Z" fill="#212121"/>
<path d="M157.352 157.501C153.366 157.501 150.1 154.402 150.052 150.553C150.029 148.678 150.767 146.905 152.131 145.56C153.495 144.216 155.319 143.463 157.266 143.441L158.414 143.427C158.778 143.422 159.074 143.703 159.078 144.052C159.082 144.401 158.792 144.687 158.429 144.692L157.282 144.705C155.685 144.723 154.189 145.341 153.07 146.444C151.952 147.547 151.346 149.001 151.365 150.538C151.404 153.694 154.083 156.236 157.352 156.236C157.376 156.236 157.4 156.236 157.425 156.236L158.573 156.223C158.575 156.223 158.578 156.223 158.581 156.223C158.939 156.223 159.232 156.501 159.237 156.847C159.241 157.197 158.951 157.483 158.588 157.487L157.44 157.5C157.411 157.501 157.381 157.501 157.352 157.501Z" fill="#212121"/>
<path d="M195.377 191.601C192.383 191.601 189.472 191.099 186.718 190.107C183.966 189.116 181.487 187.68 179.349 185.839C177.208 183.994 175.517 181.835 174.324 179.422C173.087 176.92 172.442 174.253 172.409 171.498L171.466 94.4055C171.462 94.0563 171.752 93.77 172.115 93.7659C172.117 93.7659 172.12 93.7659 172.123 93.7659C172.482 93.7659 172.775 94.044 172.779 94.3906L173.721 171.483C173.849 181.93 183.539 190.337 195.382 190.337C195.477 190.337 195.571 190.336 195.666 190.335L225.271 189.999C225.274 189.999 225.277 189.999 225.279 189.999C225.638 189.999 225.931 190.277 225.935 190.624C225.94 190.973 225.649 191.259 225.287 191.264L195.681 191.599C195.58 191.601 195.478 191.601 195.377 191.601Z" fill="#212121"/>
<path d="M172.493 125.36C172.134 125.36 171.841 125.082 171.837 124.735L171.466 94.4056C171.462 94.0564 171.752 93.7701 172.115 93.766C172.117 93.7659 172.12 93.7659 172.123 93.7659C172.482 93.7659 172.775 94.0441 172.779 94.3907L173.15 124.72C173.154 125.069 172.863 125.356 172.501 125.36C172.498 125.36 172.496 125.36 172.493 125.36Z" fill="white"/>
<path d="M227.663 148.504C229.6 146.638 229.6 143.614 227.663 141.749C225.726 139.883 222.586 139.883 220.649 141.749C218.712 143.614 218.712 146.639 220.649 148.504C222.586 150.369 225.726 150.369 227.663 148.504Z" fill="#212121"/>
<path d="M193.691 150.254C196.43 150.254 198.651 148.115 198.651 145.477C198.651 142.839 196.43 140.701 193.691 140.701C190.952 140.701 188.732 142.839 188.732 145.477C188.732 148.115 190.952 150.254 193.691 150.254Z" fill="#212121"/>
<path d="M184.135 137.28C189.665 132.604 193.014 132.925 199.194 135.93C201.05 135.764 202.416 134.18 202.247 132.393C202.077 130.606 200.436 129.292 198.58 129.458L183.522 130.808C181.666 130.975 180.299 132.558 180.469 134.345C180.638 136.132 182.28 137.446 184.135 137.28Z" fill="#212121"/>
<path d="M215.699 135.22C222.375 131.508 225.62 132.025 230.779 136.32C232.637 136.455 234.255 135.114 234.392 133.325C234.529 131.535 233.134 129.974 231.276 129.839L216.196 128.739C214.338 128.603 212.72 129.944 212.583 131.734C212.445 133.524 213.84 135.084 215.699 135.22Z" fill="#212121"/>
<path d="M186.291 161.93C191.211 161.781 195.1 159.33 194.98 156.454C194.859 153.579 190.773 151.369 185.854 151.517C180.935 151.666 177.045 154.117 177.166 156.993C177.287 159.868 181.372 162.078 186.291 161.93Z" fill="#FFF3EE"/>
<path opacity="0.2" d="M181.457 157.217C182.814 157.217 183.914 156.284 183.914 155.133C183.914 153.982 182.814 153.049 181.457 153.049C180.101 153.049 179.001 153.982 179.001 155.133C179.001 156.284 180.101 157.217 181.457 157.217Z" fill="#FFDBD0"/>
<path d="M239.216 158.043C239.337 155.167 235.447 152.716 230.528 152.567C225.609 152.419 221.523 154.629 221.403 157.504C221.282 160.38 225.172 162.831 230.091 162.98C235.01 163.128 239.096 160.918 239.216 158.043Z" fill="#FFF3EE"/>
<path opacity="0.2" d="M234.925 158.273C236.281 158.273 237.381 157.34 237.381 156.19C237.381 155.039 236.281 154.106 234.925 154.106C233.568 154.106 232.469 155.039 232.469 156.19C232.469 157.34 233.568 158.273 234.925 158.273Z" fill="#FFDBD0"/>
<path d="M212.553 157.55C212.553 155.809 211.103 154.399 209.316 154.399C207.528 154.399 206.079 155.809 206.079 157.55" stroke="#4A4A4A" stroke-width="2" stroke-miterlimit="10" stroke-linecap="round" stroke-linejoin="round"/>
<path d="M208.776 176.454C214.443 176.454 219.257 173.786 220.999 170.073C221.69 168.602 220.357 167.002 218.525 167.002H199.028C197.194 167.002 195.863 168.602 196.554 170.073C198.296 173.786 203.11 176.454 208.776 176.454Z" fill="#FFD1CA"/>
<ellipse cx="196.368" cy="143.896" rx="2.15789" ry="2.10052" fill="white"/>
<ellipse cx="226.579" cy="143.896" rx="2.15789" ry="2.10052" fill="white"/>
<ellipse cx="196.368" cy="147.047" rx="1.07895" ry="1.05026" fill="white"/>
<ellipse cx="226.579" cy="147.047" rx="1.07895" ry="1.05026" fill="white"/>
</svg>
