<svg width="287" height="264" viewBox="0 0 287 264" fill="none" xmlns="http://www.w3.org/2000/svg">
<circle cx="144.054" cy="132" r="131.865" fill="#D2E179"/>
<path d="M242.911 159.542C242.911 165.49 251.502 166.086 251.502 175.471C251.502 184.857 239.493 186.355 239.493 192.138C239.493 195.159 243.974 195.678 243.974 195.678C239.147 200.479 235.421 196.274 235.421 191.063C235.421 184.157 243.497 183.121 243.497 175.706C243.497 168.29 234.568 168.227 234.568 159.211C234.568 150.195 235.846 146.319 235.846 139.107C235.846 131.897 238.837 126.02 222.293 120.675C205.757 115.332 208.734 105.365 208.248 103.043C219.351 108.636 250.995 122.998 253.715 124.897L253.747 137.474C253.76 142.814 251.721 147.979 247.975 151.72C247.867 151.827 247.759 151.933 247.649 152.038C245.162 154.425 242.911 156.661 242.911 159.542Z" fill="#212121"/>
<path d="M239.89 198.469C239.347 198.469 238.82 198.361 238.315 198.145C237.223 197.677 236.308 196.725 235.668 195.393C235.067 194.142 234.75 192.645 234.75 191.063C234.75 187.388 236.848 185.26 238.877 183.201C240.908 181.142 242.826 179.196 242.826 175.706C242.826 172.481 241.01 170.806 238.908 168.866C236.559 166.698 233.897 164.241 233.897 159.211C233.897 154.415 234.251 151.108 234.593 147.909C234.892 145.115 235.175 142.475 235.175 139.107C235.175 138.107 235.231 137.137 235.285 136.199C235.455 133.261 235.602 130.724 234.054 128.341C232.286 125.621 228.484 123.391 222.09 121.326C218.749 120.246 215.951 118.895 213.774 117.308C211.9 115.943 210.44 114.369 209.433 112.631C207.599 109.464 207.625 106.381 207.64 104.539C207.645 103.958 207.649 103.457 207.592 103.185C207.539 102.929 207.634 102.664 207.837 102.504C208.04 102.343 208.316 102.315 208.546 102.431C213.417 104.885 222.29 109.048 230.87 113.075C242.005 118.301 252.523 123.237 254.095 124.334C254.277 124.461 254.386 124.671 254.386 124.895L254.418 137.472C254.425 140.236 253.911 142.922 252.892 145.455C251.86 148.02 250.364 150.291 248.445 152.207C248.334 152.318 248.221 152.428 248.11 152.535C245.884 154.671 243.582 156.88 243.582 159.542C243.582 161.879 245.135 163.338 246.934 165.027C248.106 166.128 249.436 167.376 250.444 169.008C251.608 170.892 252.174 173.006 252.174 175.471C252.174 177.983 251.371 180.186 249.719 182.206C248.309 183.93 246.531 185.243 244.812 186.512C242.318 188.353 240.164 189.943 240.164 192.138C240.164 194.511 244.012 194.995 244.051 194.999C244.308 195.03 244.525 195.208 244.608 195.457C244.692 195.706 244.628 195.982 244.443 196.166C243.376 197.227 242.299 197.93 241.24 198.257C240.78 198.398 240.33 198.469 239.89 198.469ZM208.984 104.171C208.984 104.292 208.983 104.419 208.982 104.551C208.952 108.146 208.89 115.628 222.496 120.025C229.199 122.19 233.227 124.593 235.173 127.589C236.968 130.351 236.801 133.23 236.625 136.279C236.572 137.197 236.517 138.147 236.517 139.107C236.517 142.549 236.23 145.225 235.927 148.057C235.589 151.219 235.239 154.489 235.239 159.211C235.239 163.637 237.459 165.686 239.81 167.855C241.952 169.832 244.168 171.877 244.168 175.706C244.168 177.53 243.708 179.161 242.762 180.692C241.942 182.02 240.866 183.112 239.825 184.168C237.905 186.116 236.092 187.955 236.092 191.063C236.092 192.419 236.369 193.744 236.874 194.794C237.369 195.825 238.047 196.549 238.836 196.886C239.926 197.353 241.183 197.065 242.517 196.055C242.187 195.957 241.824 195.829 241.461 195.664C239.734 194.883 238.822 193.663 238.822 192.138C238.822 189.247 241.349 187.382 244.024 185.407C247.215 183.051 250.831 180.381 250.831 175.471C250.831 170.545 248.387 168.25 246.023 166.03C244.078 164.203 242.24 162.477 242.24 159.542C242.24 158.09 242.752 156.67 243.805 155.202C244.688 153.973 245.86 152.817 247.189 151.542C247.294 151.441 247.401 151.337 247.505 151.233C251.058 147.685 253.089 142.67 253.076 137.476L253.045 125.275C250.766 123.916 240.374 119.039 230.308 114.315C222.294 110.554 214.026 106.674 208.984 104.171Z" fill="#212121"/>
<path d="M150.77 156.128L151.523 129.237C151.596 126.61 153.75 124.542 156.331 124.617L233.718 126.886C236.305 126.962 238.34 129.162 238.257 131.794L236.689 181.628C232.718 182.018 199.557 182.103 175.305 181.96C161.45 181.878 150.375 170.219 150.77 156.128Z" fill="white"/>
<path d="M198.44 182.707C190.443 182.707 182.326 182.684 175.301 182.642C171.824 182.622 168.46 181.9 165.302 180.496C162.254 179.141 159.532 177.215 157.21 174.77C154.889 172.326 153.09 169.493 151.864 166.348C150.594 163.089 150 159.644 150.099 156.109L150.852 129.218C150.893 127.765 151.487 126.415 152.526 125.417C153.565 124.42 154.923 123.893 156.351 123.935L233.738 126.204C235.169 126.246 236.497 126.853 237.478 127.914C238.459 128.975 238.973 130.36 238.927 131.816L237.36 181.65C237.349 181.993 237.09 182.275 236.754 182.308C233.87 182.59 216.462 182.707 198.44 182.707ZM156.194 125.298C155.168 125.298 154.197 125.69 153.447 126.41C152.669 127.157 152.224 128.168 152.194 129.256L151.44 156.148C151.255 162.777 153.647 169.053 158.175 173.822C162.705 178.591 168.79 181.239 175.309 181.277C182.847 181.322 190.892 181.344 198.594 181.344C216.207 181.344 232.044 181.227 236.038 180.992L237.586 131.772C237.621 130.682 237.235 129.644 236.5 128.85C235.766 128.055 234.771 127.6 233.699 127.569L156.312 125.3C156.273 125.299 156.233 125.298 156.194 125.298Z" fill="#212121"/>
<path d="M156.958 93.0503C160.972 103.094 170.133 108.792 177.419 105.778L192.911 99.3694C200.197 96.3551 202.85 85.7696 198.836 75.7261C194.822 65.6824 185.661 59.984 178.375 62.9983L162.883 69.4069C155.597 72.4212 152.944 83.0067 156.958 93.0503Z" fill="#212121"/>
<path d="M173.324 107.268C172.764 107.268 172.197 107.229 171.623 107.15C169.593 106.871 167.571 106.112 165.612 104.893C161.625 102.414 158.332 98.2992 156.336 93.3074C154.341 88.3157 153.878 83.03 155.033 78.424C155.6 76.1603 156.528 74.1805 157.79 72.5396C159.111 70.8235 160.739 69.5568 162.63 68.7746L178.122 62.3659C180.013 61.5837 182.048 61.3349 184.171 61.6264C186.201 61.9052 188.223 62.6644 190.182 63.883C194.169 66.3626 197.463 70.4772 199.458 75.4689C201.453 80.4607 201.916 85.7464 200.761 90.3524C200.194 92.6161 199.266 94.5959 198.003 96.2367C196.683 97.9528 195.055 99.2196 193.164 100.002L177.672 106.41C176.292 106.981 174.835 107.268 173.324 107.268ZM157.58 92.7932C161.448 102.472 170.235 108.013 177.167 105.146L192.658 98.7371C199.59 95.8694 202.083 85.6621 198.214 75.9833C194.346 66.3044 185.559 60.7632 178.627 63.6307L163.136 70.0394C156.204 72.907 153.711 83.1143 157.58 92.7932Z" fill="#212121"/>
<path d="M213.283 218.234C213.283 226.216 179.525 225.541 179.525 218.234L179.525 190.234H213.283L213.283 218.234Z" fill="white"/>
<path d="M196.963 224.653C192.471 224.653 188.047 224.108 184.824 223.158C183.041 222.633 181.634 221.993 180.642 221.257C179.456 220.377 178.854 219.36 178.854 218.234L178.854 190.234C178.854 189.857 179.154 189.551 179.525 189.551H213.283C213.654 189.551 213.954 189.857 213.954 190.234L213.954 218.234C213.954 219.388 213.402 220.423 212.312 221.31C211.392 222.059 210.08 222.701 208.412 223.219C205.432 224.144 201.366 224.653 196.963 224.653ZM180.196 190.917L180.196 218.234C180.196 218.899 180.612 219.545 181.432 220.154C182.298 220.796 183.565 221.365 185.197 221.847C188.304 222.762 192.592 223.288 196.963 223.288C201.237 223.288 205.164 222.799 208.021 221.913C209.525 221.446 210.687 220.884 211.474 220.244C212.24 219.62 212.612 218.963 212.612 218.234L212.612 190.917L180.196 190.917Z" fill="#212121"/>
<path d="M186.585 195.201C197.443 197.407 208.751 197.445 219.163 195.56C231.983 193.239 241.324 181.897 241.4 168.649L241.619 130.326C241.706 115.136 229.673 102.75 214.743 102.662L192.401 102.53C177.471 102.441 165.297 114.684 165.21 129.874L164.992 168.097C164.917 181.214 173.942 192.632 186.585 195.201Z" fill="white"/>
<path d="M203.842 197.604C197.994 197.604 192.138 197.025 186.454 195.87C183.276 195.225 180.269 194.026 177.516 192.309C174.842 190.64 172.481 188.529 170.498 186.034C168.517 183.542 166.979 180.75 165.924 177.733C164.841 174.637 164.302 171.393 164.321 168.093L164.539 129.87C164.561 126.065 165.315 122.378 166.78 118.911C168.194 115.563 170.209 112.56 172.768 109.987C175.327 107.413 178.301 105.399 181.608 103.999C184.982 102.57 188.558 101.847 192.239 101.847C192.294 101.847 192.349 101.847 192.405 101.847L214.747 101.979C218.487 102.001 222.111 102.768 225.518 104.258C228.809 105.698 231.761 107.747 234.29 110.351C236.819 112.954 238.799 115.98 240.176 119.345C241.601 122.829 242.312 126.525 242.29 130.33L242.071 168.653C241.993 182.256 232.409 193.855 219.281 196.232C214.227 197.147 209.038 197.604 203.842 197.604ZM186.717 194.532C197.289 196.68 208.468 196.803 219.046 194.888C231.536 192.626 240.655 181.59 240.729 168.645L240.948 130.322C240.989 123.158 238.286 116.406 233.335 111.311C228.385 106.215 221.781 103.386 214.739 103.345L192.397 103.212C185.357 103.17 178.719 105.921 173.711 110.958C168.703 115.994 165.922 122.713 165.881 129.878L165.663 168.101C165.589 180.922 174.444 192.038 186.717 194.532Z" fill="#212121"/>
<path d="M166.116 162.229L157.499 162.184C150.237 162.141 144.383 156.116 144.425 148.728C144.467 141.34 150.39 135.388 157.652 135.431L166.269 135.475" fill="white"/>
<path d="M166.116 162.911C166.115 162.911 166.114 162.911 166.113 162.911L157.495 162.867C155.63 162.856 153.822 162.473 152.122 161.73C150.48 161.012 149.008 159.989 147.746 158.69C146.484 157.391 145.496 155.882 144.81 154.203C144.099 152.465 143.744 150.622 143.754 148.724C143.765 146.826 144.141 144.987 144.872 143.258C145.578 141.588 146.583 140.09 147.86 138.807C149.136 137.524 150.62 136.519 152.27 135.821C153.978 135.098 155.791 134.737 157.656 134.748L166.273 134.793C166.643 134.794 166.942 135.102 166.94 135.479C166.938 135.855 166.638 136.158 166.269 136.158C166.268 136.158 166.267 136.158 166.266 136.158L157.648 136.113C154.315 136.093 151.174 137.395 148.803 139.778C146.432 142.162 145.116 145.341 145.096 148.732C145.056 155.732 150.622 161.461 157.503 161.502L166.12 161.546C166.49 161.548 166.789 161.855 166.787 162.232C166.785 162.608 166.485 162.911 166.116 162.911Z" fill="#212121"/>
<path d="M158.71 156.411C158.709 156.411 158.707 156.411 158.706 156.411L157.532 156.404C153.414 156.38 150.083 152.951 150.107 148.761C150.118 146.736 150.907 144.834 152.327 143.406C153.737 141.989 155.599 141.211 157.574 141.211C157.589 141.211 157.604 141.211 157.619 141.211L158.793 141.218C159.164 141.22 159.462 141.527 159.46 141.904C159.458 142.28 159.158 142.583 158.789 142.583C158.788 142.583 158.787 142.583 158.785 142.583L157.611 142.576C155.976 142.566 154.436 143.206 153.27 144.377C152.105 145.549 151.458 147.108 151.449 148.769C151.429 152.206 154.161 155.019 157.54 155.039L158.714 155.046C159.084 155.048 159.383 155.355 159.381 155.732C159.379 156.108 159.079 156.411 158.71 156.411Z" fill="#212121"/>
<path d="M228.602 151.927C231.418 151.927 233.701 149.604 233.701 146.739C233.701 143.874 231.418 141.551 228.602 141.551C225.786 141.551 223.502 143.874 223.502 146.739C223.502 149.604 225.786 151.927 228.602 151.927Z" fill="#212121"/>
<path d="M223.479 149.676L223.452 152.337L233.65 152.444L233.677 149.783L223.479 149.676Z" fill="white"/>
<path d="M200.88 150.081C202.871 148.054 202.871 144.769 200.88 142.743C198.888 140.717 195.659 140.717 193.668 142.743C191.676 144.77 191.676 148.055 193.668 150.081C195.659 152.107 198.888 152.107 200.88 150.081Z" fill="#212121"/>
<path d="M192.149 149.348L192.122 152.009L202.321 152.116L202.348 149.455L192.149 149.348Z" fill="white"/>
<path d="M233.678 149.084L223.48 148.978C223.477 148.978 223.475 148.978 223.473 148.978C223.105 148.978 222.805 149.279 222.802 149.654C222.798 150.031 223.095 150.339 223.466 150.343L233.664 150.45C233.667 150.45 233.669 150.45 233.671 150.45C234.039 150.45 234.338 150.149 234.342 149.774C234.346 149.397 234.049 149.088 233.678 149.084Z" fill="#212121"/>
<path d="M233.671 150.753H233.664L223.463 150.647C223.204 150.644 222.961 150.539 222.78 150.351C222.599 150.162 222.501 149.914 222.503 149.65C222.509 149.112 222.943 148.674 223.472 148.674H223.479L233.681 148.781C233.94 148.784 234.182 148.889 234.363 149.077C234.544 149.265 234.643 149.514 234.64 149.777C234.635 150.315 234.2 150.753 233.671 150.753ZM223.476 149.281L223.472 149.281C223.269 149.281 223.102 149.45 223.1 149.657C223.099 149.758 223.137 149.854 223.206 149.926C223.276 149.998 223.369 150.039 223.469 150.04L233.667 150.146L233.671 150.146C233.875 150.146 234.042 149.978 234.044 149.771C234.046 149.562 233.88 149.39 233.675 149.388L223.476 149.281Z" fill="white"/>
<path d="M202.351 148.758L192.153 148.651C192.15 148.651 192.148 148.651 192.146 148.651C191.778 148.651 191.479 148.952 191.475 149.327C191.471 149.704 191.768 150.013 192.139 150.016L202.337 150.123C202.34 150.123 202.342 150.123 202.344 150.123C202.712 150.123 203.012 149.822 203.015 149.447C203.019 149.07 202.722 148.761 202.351 148.758Z" fill="#212121"/>
<path d="M202.345 150.426H202.338L192.136 150.32C191.602 150.314 191.171 149.867 191.177 149.324C191.182 148.785 191.617 148.348 192.146 148.348H192.153L202.354 148.454C202.613 148.457 202.856 148.562 203.037 148.75C203.218 148.938 203.316 149.187 203.314 149.45C203.308 149.988 202.874 150.426 202.345 150.426ZM192.15 148.954L192.146 148.954C191.943 148.954 191.775 149.123 191.773 149.33C191.771 149.539 191.937 149.711 192.142 149.713L202.341 149.82L202.345 149.82C202.548 149.82 202.715 149.651 202.717 149.444C202.718 149.343 202.68 149.247 202.611 149.175C202.541 149.102 202.448 149.062 202.348 149.061L192.15 148.954Z" fill="white"/>
<path d="M189.052 137.655L204.509 135.937C206.414 135.725 207.79 133.982 207.582 132.045C207.373 130.107 205.661 128.707 203.756 128.919L188.299 130.637C186.394 130.849 185.019 132.591 185.227 134.529C185.435 136.467 187.147 137.866 189.052 137.655Z" fill="#212121"/>
<path d="M223.372 129.124L238.791 131.164C240.691 131.415 242.031 133.186 241.784 135.119C241.537 137.052 239.797 138.416 237.897 138.164L222.477 136.124C220.577 135.873 219.237 134.102 219.484 132.169C219.731 130.236 221.472 128.872 223.372 129.124Z" fill="#212121"/>
<path d="M217.231 165.208C217.228 165.208 217.226 165.208 217.224 165.208L210.745 165.141C210.375 165.137 210.077 164.828 210.081 164.451C210.085 164.077 210.385 163.776 210.752 163.776C210.754 163.776 210.757 163.776 210.759 163.776L216.561 163.836C216.502 155.199 213.743 147.425 213.714 147.345C213.587 146.991 213.766 146.599 214.114 146.469C214.462 146.34 214.847 146.522 214.975 146.876C215.006 146.962 215.742 149.023 216.476 152.239C217.153 155.206 217.95 159.747 217.901 164.533C217.898 164.907 217.598 165.208 217.231 165.208Z" fill="#212121"/>
<path d="M203.571 171.653C203.064 174.71 203.15 181.331 208.538 182.189C213.926 183.047 216.314 176.985 216.821 173.927" fill="#212121"/>
<path d="M216.098 173.381C215.497 171.38 213.322 170.067 211.108 169.687C209.243 169.367 206.364 169.683 204.824 171.446" fill="#212121"/>
<path d="M202.622 173.889C203.336 176.043 205.072 178.727 209.294 179.451C216.648 180.713 218.795 173.844 218.795 173.844L202.127 170.983C202.127 170.983 202.093 172.291 202.622 173.889Z" fill="white"/>
<path d="M211.034 180.288C210.454 180.288 209.838 180.237 209.183 180.124C207.147 179.775 205.463 178.959 204.177 177.698C203.193 176.733 202.456 175.525 201.987 174.107C201.426 172.413 201.455 171.024 201.456 170.965C201.462 170.768 201.551 170.582 201.701 170.456C201.851 170.331 202.047 170.277 202.239 170.31L218.906 173.171C219.098 173.204 219.266 173.32 219.368 173.489C219.469 173.657 219.493 173.863 219.434 174.051C219.41 174.127 218.833 175.937 217.289 177.591C216.079 178.887 214.069 180.288 211.034 180.288ZM202.848 171.8C202.903 172.284 203.019 172.947 203.258 173.671C203.907 175.631 205.501 178.108 209.406 178.778C209.974 178.876 210.522 178.924 211.05 178.924C213.121 178.924 214.875 178.175 216.282 176.687C217.061 175.863 217.563 174.978 217.85 174.374L202.848 171.8Z" fill="#212121"/>
<path d="M193.615 160.501C193.365 160.501 193.125 160.358 193.009 160.114L190.505 154.819C190.345 154.479 190.485 154.072 190.819 153.908C191.153 153.744 191.554 153.887 191.715 154.227L194.219 159.522C194.379 159.862 194.239 160.269 193.905 160.433C193.811 160.479 193.712 160.501 193.615 160.501Z" fill="#212121"/>
<path d="M190.416 160.467C190.166 160.467 189.926 160.325 189.811 160.08L187.307 154.786C187.146 154.446 187.287 154.038 187.62 153.875C187.954 153.711 188.355 153.854 188.516 154.194L191.02 159.488C191.181 159.828 191.04 160.236 190.706 160.4C190.612 160.445 190.513 160.467 190.416 160.467Z" fill="#212121"/>
<path d="M187.217 160.434C186.967 160.434 186.727 160.291 186.612 160.047L184.108 154.752C183.947 154.413 184.088 154.005 184.421 153.841C184.755 153.678 185.156 153.821 185.317 154.161L187.821 159.455C187.982 159.795 187.841 160.203 187.507 160.366C187.414 160.412 187.314 160.434 187.217 160.434Z" fill="#212121"/>
<path d="M229.088 160.871C228.986 160.871 228.882 160.847 228.785 160.797C228.454 160.626 228.322 160.216 228.49 159.879L231.1 154.638C231.267 154.302 231.671 154.167 232.002 154.338C232.332 154.508 232.464 154.919 232.297 155.255L229.687 160.496C229.568 160.734 229.332 160.871 229.088 160.871Z" fill="#212121"/>
<path d="M232.287 160.904C232.185 160.904 232.081 160.88 231.984 160.83C231.653 160.66 231.521 160.249 231.689 159.913L234.299 154.671C234.466 154.335 234.87 154.201 235.2 154.371C235.531 154.541 235.663 154.952 235.496 155.289L232.886 160.53C232.767 160.767 232.531 160.904 232.287 160.904Z" fill="#212121"/>
<path d="M235.486 160.937C235.384 160.937 235.28 160.914 235.183 160.864C234.852 160.693 234.72 160.282 234.888 159.946L237.498 154.705C237.665 154.369 238.069 154.234 238.4 154.404C238.73 154.575 238.862 154.986 238.695 155.322L236.085 160.563C235.966 160.801 235.73 160.937 235.486 160.937Z" fill="#212121"/>
<path d="M253.087 111.421C250.884 95.5543 236.733 83.4119 220.496 83.2017L217.118 83.1579C215.314 83.1346 213.802 84.4088 213.411 86.122C212.312 83.7711 209.977 82.1283 207.246 82.0929L189.597 81.8645C168.942 81.5971 151.984 98.4153 151.72 119.43L151.661 124.114L151.559 135.376L164.749 135.472C164.544 136.918 164.525 138.403 164.749 139.91C166.108 149.056 179.223 153.601 179.223 159.545C179.223 165.488 172.889 165.221 172.889 175.472C172.889 185.724 182.636 186.358 182.636 192.135C182.636 195.157 178.156 195.674 178.156 195.674C182.981 200.483 186.706 196.275 186.706 191.066C186.706 184.154 179.486 182.852 179.486 175.439C179.486 168.026 186.444 168.226 186.444 159.211C186.444 150.195 177.516 146.322 177.516 139.109C177.516 131.897 183.293 126.02 199.834 120.677C209.612 117.519 213.272 112.745 214.73 108.889C224.524 108.889 230.895 127.055 241.62 127.055C246.313 126.291 249.318 126.729 253.715 124.897C254.069 120.864 253.999 116.533 253.087 111.421Z" fill="#212121"/>
<path d="M182.241 198.47C181.8 198.47 181.349 198.399 180.888 198.256C179.83 197.929 178.753 197.224 177.687 196.162C177.502 195.978 177.437 195.702 177.522 195.452C177.606 195.203 177.823 195.026 178.081 194.996C178.118 194.992 181.965 194.509 181.965 192.135C181.965 189.976 180.376 188.618 178.365 186.899C175.626 184.559 172.217 181.646 172.217 175.472C172.217 172.775 172.644 170.532 173.522 168.615C174.291 166.933 175.297 165.735 176.185 164.679C177.507 163.105 178.552 161.862 178.552 159.545C178.552 158.458 178.03 157.334 176.91 156.008C175.844 154.745 174.37 153.462 172.81 152.102C169.08 148.853 164.852 145.17 164.085 140.013C163.899 138.755 163.868 137.459 163.993 136.149L151.554 136.059C151.375 136.058 151.205 135.984 151.08 135.855C150.955 135.726 150.886 135.551 150.887 135.37L150.99 124.107L151.049 119.421C151.114 114.192 152.185 109.133 154.23 104.383C156.205 99.7957 159.002 95.6892 162.543 92.1776C166.084 88.666 170.19 85.9261 174.748 84.034C179.467 82.0749 184.466 81.1152 189.605 81.1819L207.254 81.4103C208.701 81.4291 210.103 81.8641 211.308 82.6683C212.089 83.1891 212.765 83.8487 213.308 84.612C213.575 84.173 213.916 83.7801 214.316 83.4552C215.11 82.8101 216.108 82.4626 217.127 82.4753L220.505 82.519C228.528 82.6229 236.336 85.6063 242.489 90.9197C248.662 96.2502 252.661 103.492 253.75 111.313C254.586 116.009 254.788 120.346 254.383 124.958C254.361 125.212 254.201 125.432 253.969 125.529C250.924 126.797 248.47 127.016 245.871 127.247C244.58 127.362 243.246 127.481 241.726 127.729C241.691 127.734 241.655 127.737 241.62 127.737C235.844 127.737 231.374 122.852 227.052 118.128C224.996 115.881 223.054 113.758 221.001 112.154C218.912 110.522 217.049 109.698 215.178 109.585C212.997 114.837 207.906 118.786 200.037 121.328C192.048 123.908 186.445 126.65 182.907 129.712C179.731 132.46 178.187 135.533 178.187 139.109C178.187 142.284 180.108 144.852 182.141 147.571C183.331 149.162 184.561 150.807 185.503 152.68C186.587 154.834 187.114 156.97 187.114 159.211C187.114 164.198 185.041 166.575 183.211 168.672C181.572 170.55 180.156 172.173 180.156 175.439C180.156 178.955 181.876 180.97 183.697 183.104C185.506 185.223 187.377 187.415 187.377 191.066C187.377 192.648 187.06 194.145 186.459 195.396C185.819 196.728 184.904 197.68 183.812 198.147C183.308 198.362 182.783 198.47 182.241 198.47ZM179.611 196.053C180.945 197.064 182.202 197.354 183.292 196.888C184.08 196.551 184.758 195.828 185.253 194.796C185.757 193.747 186.035 192.422 186.035 191.066C186.035 187.926 184.407 186.018 182.684 183.999C181.754 182.91 180.793 181.783 180.062 180.432C179.222 178.881 178.814 177.248 178.814 175.439C178.814 171.655 180.539 169.677 182.208 167.766C183.96 165.757 185.772 163.68 185.772 159.211C185.772 154.682 183.383 151.487 181.073 148.398C179.99 146.95 178.968 145.583 178.182 144.093C177.283 142.386 176.845 140.756 176.845 139.109C176.845 135.109 178.544 131.695 182.037 128.672C185.714 125.491 191.469 122.663 199.631 120.026C207.316 117.544 212.186 113.715 214.104 108.644C214.204 108.38 214.453 108.207 214.73 108.207C217.033 108.207 219.351 109.144 221.818 111.071C223.96 112.745 226.031 115.009 228.034 117.198C232.147 121.693 236.399 126.341 241.568 126.372C243.112 126.123 244.455 126.003 245.754 125.887C248.24 125.666 250.403 125.473 253.081 124.419C253.427 120.083 253.218 115.979 252.427 111.543C252.425 111.535 252.424 111.526 252.423 111.517C250.265 95.9716 236.536 84.0922 220.488 83.8844L217.11 83.8407C215.669 83.8228 214.391 84.8465 214.065 86.2764C214 86.5592 213.767 86.7695 213.483 86.8008C213.199 86.8321 212.928 86.6775 212.805 86.4154C211.77 84.2015 209.636 82.8069 207.237 82.7757L189.588 82.5473C189.43 82.5452 189.271 82.5442 189.114 82.5442C169.076 82.5442 152.647 98.9955 152.391 119.439L152.332 124.123L152.236 134.699L164.754 134.79C164.948 134.791 165.132 134.878 165.258 135.027C165.385 135.177 165.441 135.375 165.413 135.57C165.209 137.01 165.208 138.436 165.412 139.809C166.104 144.464 170.131 147.971 173.683 151.065C175.284 152.46 176.795 153.777 177.928 155.118C179.269 156.707 179.894 158.113 179.894 159.545C179.894 162.366 178.588 163.921 177.205 165.566C175.496 167.6 173.56 169.905 173.56 175.473C173.56 181.01 176.571 183.584 179.228 185.854C181.326 187.647 183.307 189.34 183.307 192.135C183.307 193.661 182.395 194.88 180.669 195.662C180.305 195.826 179.942 195.954 179.611 196.053Z" fill="#212121"/>
<path d="M159.333 97.5783C159.192 97.5783 159.049 97.5328 158.927 97.4388C158.632 97.2105 158.575 96.7822 158.8 96.4822C160.559 94.1291 162.587 91.9782 164.825 90.0893C167.074 88.1911 169.536 86.5576 172.143 85.2339C174.797 83.8863 177.606 82.858 180.492 82.1774C183.462 81.477 186.528 81.1418 189.605 81.1818L200.41 81.3217C200.781 81.3265 201.077 81.636 201.073 82.013C201.068 82.39 200.764 82.693 200.393 82.6869L189.588 82.5471C178.004 82.397 166.893 87.9155 159.868 97.3089C159.736 97.4855 159.536 97.5783 159.333 97.5783Z" fill="white"/>
<path d="M156.172 196.182C152.94 196.182 149.787 195.186 147.074 193.274C143.554 190.792 141.194 187.065 140.429 182.777C138.85 173.927 144.643 165.42 153.343 163.813C162.042 162.207 170.404 168.101 171.982 176.952C172.747 181.239 171.825 185.573 169.386 189.155C166.947 192.736 163.282 195.138 159.068 195.915C158.102 196.094 157.133 196.182 156.172 196.182ZM145.711 181.802C146.219 184.654 147.789 187.134 150.131 188.785C152.473 190.435 155.307 191.06 158.11 190.542C160.913 190.024 163.351 188.427 164.973 186.044C166.596 183.662 167.209 180.779 166.7 177.927C165.65 172.039 160.087 168.119 154.301 169.187C148.515 170.255 144.661 175.915 145.711 181.802Z" fill="white"/>
<path d="M156.172 196.865C152.782 196.865 149.504 195.817 146.692 193.835C143.024 191.25 140.565 187.366 139.769 182.899C138.124 173.678 144.16 164.815 153.223 163.142C155.438 162.733 157.668 162.779 159.85 163.278C161.957 163.76 163.93 164.642 165.715 165.9C167.499 167.158 169.004 168.727 170.188 170.565C171.415 172.468 172.24 174.576 172.642 176.83C173.439 181.297 172.478 185.812 169.937 189.543C167.396 193.275 163.579 195.777 159.188 196.587C158.191 196.771 157.176 196.865 156.172 196.865ZM156.228 164.231C155.309 164.231 154.385 164.315 153.462 164.485C145.127 166.024 139.577 174.175 141.089 182.655C141.822 186.763 144.083 190.335 147.456 192.713C150.043 194.536 153.056 195.499 156.171 195.499C157.095 195.499 158.03 195.413 158.949 195.244C162.986 194.498 166.497 192.198 168.834 188.766C171.171 185.334 172.055 181.182 171.322 177.074C170.59 172.973 168.328 169.403 164.95 167.023C162.346 165.187 159.323 164.231 156.228 164.231ZM156.181 191.402C153.896 191.402 151.668 190.698 149.749 189.346C147.26 187.591 145.591 184.955 145.05 181.924C143.935 175.666 148.031 169.651 154.181 168.515C160.332 167.38 166.244 171.547 167.361 177.805C167.901 180.836 167.249 183.901 165.525 186.433C163.8 188.966 161.209 190.663 158.23 191.213C157.546 191.34 156.861 191.402 156.181 191.402ZM146.371 181.68C146.847 184.353 148.319 186.676 150.513 188.223C152.708 189.771 155.363 190.355 157.99 189.87C160.617 189.385 162.901 187.888 164.422 185.656C165.942 183.423 166.517 180.721 166.04 178.049C165.056 172.532 159.844 168.858 154.421 169.859C148.999 170.86 145.388 176.163 146.371 181.68Z" fill="#212121"/>
<path d="M104.835 215.064C104.835 223.473 69.2722 222.762 69.2722 215.064L69.2723 185.568H104.835L104.835 215.064Z" fill="white"/>
<path d="M87.6419 221.827C82.9105 221.827 78.2497 221.253 74.8545 220.252C72.9765 219.698 71.4943 219.025 70.449 218.249C69.1991 217.322 68.5654 216.251 68.5654 215.064V185.568C68.5654 185.171 68.8819 184.849 69.2723 184.849H104.835C105.225 184.849 105.542 185.171 105.542 185.568L105.542 215.064C105.542 216.281 104.96 217.371 103.812 218.305C102.843 219.094 101.46 219.771 99.7036 220.316C96.5641 221.29 92.2805 221.827 87.6419 221.827ZM69.9792 186.287V215.064C69.9792 215.766 70.4175 216.446 71.2818 217.087C72.1938 217.763 73.5283 218.363 75.2479 218.87C78.5207 219.835 83.0381 220.388 87.6419 220.388C92.1446 220.388 96.2817 219.874 99.2912 218.94C100.876 218.448 102.1 217.857 102.929 217.182C103.736 216.525 104.128 215.833 104.128 215.065L104.128 186.287H69.9792V186.287Z" fill="#212121"/>
<path d="M66.4613 126.095L33.9336 125.786L33.7668 148.806C33.6716 161.939 44.0713 172.657 56.9802 172.73C60.2216 172.748 63.4646 172.768 66.4613 172.788V126.095Z" fill="#212121"/>
<path d="M66.4612 173.507C66.4596 173.507 66.458 173.507 66.4565 173.507C63.7204 173.489 60.5307 173.469 56.9761 173.449C53.7255 173.431 50.5758 172.764 47.6142 171.468C44.7543 170.217 42.1903 168.434 39.9936 166.17C37.7969 163.906 36.0782 161.275 34.8853 158.35C33.65 155.32 33.0358 152.107 33.0598 148.8L33.2266 125.78C33.228 125.589 33.304 125.407 33.4379 125.273C33.5717 125.139 33.7533 125.064 33.9401 125.067L66.4678 125.375C66.8556 125.379 67.1681 125.7 67.1681 126.095V172.788C67.1681 172.979 67.0929 173.163 66.9594 173.298C66.8269 173.432 66.6478 173.507 66.4612 173.507ZM34.6351 126.512L34.4734 148.811C34.4288 154.97 36.7465 160.777 40.9997 165.16C45.2529 169.544 50.9296 171.977 56.9839 172.011C60.2353 172.029 63.1812 172.047 65.7543 172.064V126.807L34.6351 126.512Z" fill="#212121"/>
<path d="M77.5107 191.095C89.0574 193.512 101.097 193.622 112.194 191.679C125.857 189.287 135.87 177.27 136.03 163.166L136.493 122.365C136.676 106.193 123.939 92.9316 108.044 92.745L84.2576 92.4658C68.3621 92.2792 55.3275 105.238 55.1441 121.41L54.6826 162.105C54.5242 176.07 64.0651 188.282 77.5107 191.095Z" fill="white"/>
<path d="M96.418 193.755C90.0096 193.755 83.5907 193.102 77.3684 191.8C73.9895 191.093 70.796 189.799 67.8763 187.953C65.0401 186.161 62.5393 183.899 60.4431 181.231C58.3503 178.567 56.7291 175.585 55.6247 172.367C54.4908 169.064 53.9361 165.609 53.9759 162.096L54.4374 121.402C54.4833 117.352 55.3077 113.432 56.8875 109.751C58.4132 106.196 60.5757 103.012 63.3149 100.289C66.054 97.5658 69.2321 95.4397 72.7607 93.9699C76.4144 92.448 80.286 91.6999 84.2658 91.7467L108.052 92.0259C112.033 92.0726 115.885 92.9113 119.504 94.5186C122.998 96.0709 126.127 98.2709 128.804 101.058C131.48 103.845 133.57 107.078 135.015 110.668C136.511 114.385 137.246 118.323 137.2 122.373L136.737 163.174C136.573 177.653 126.301 189.939 112.314 192.388C107.107 193.3 101.766 193.755 96.418 193.755ZM77.6532 190.391C88.8969 192.744 100.8 192.944 112.074 190.971C125.389 188.639 135.167 176.942 135.324 163.157L135.786 122.357C135.873 114.727 133.034 107.52 127.792 102.063C122.551 96.606 115.535 93.5522 108.036 93.4641L84.2495 93.1849C84.1399 93.1836 84.0299 93.183 83.9205 93.183C68.5888 93.183 56.0284 105.78 55.851 121.418L55.3895 162.113C55.2347 175.766 64.5979 187.659 77.6532 190.391Z" fill="#212121"/>
<path d="M136.377 132.495C136.377 132.495 136.124 123.338 135.712 118.523C134.848 108.54 126.684 100.843 116.833 100.803L80.9749 100.64C70.5247 100.6 61.9891 109.135 61.8694 119.78L61.8561 120.497C61.8162 124.366 58.8779 127.328 55.0754 127.369L33.9136 128.546L33.9358 118.968C33.9358 108.282 39.3473 98.3496 48.2549 92.6866C48.2549 92.6866 50.6348 74.385 65.9112 70.2458C81.1743 66.0934 87.9151 73.6413 87.9151 73.6413C87.9151 73.6413 102.912 56.5977 125.315 64.7137C147.718 72.8296 140.246 95.6221 140.246 95.6221C140.246 95.6221 149.513 93.7417 151.387 108.58C153.262 123.406 136.377 132.495 136.377 132.495Z" fill="#212121"/>
<path d="M136.377 133.214C136.254 133.214 136.131 133.182 136.021 133.116C135.81 132.991 135.677 132.764 135.67 132.515C135.668 132.424 135.414 123.324 135.008 118.585C134.169 108.897 126.354 101.561 116.83 101.522L80.9719 101.359C80.9486 101.359 80.9245 101.359 80.9013 101.359C70.9043 101.359 62.6907 109.611 62.5763 119.789C62.5762 119.79 62.5762 119.792 62.5762 119.794L62.563 120.508C62.5409 122.566 61.7641 124.473 60.3753 125.879C58.992 127.278 57.1187 128.062 55.0987 128.088L33.9522 129.264C33.7579 129.274 33.5681 129.203 33.4271 129.067C33.286 128.931 33.2064 128.742 33.2068 128.544L33.229 118.967C33.229 113.603 34.5803 108.287 37.1369 103.595C39.6408 98.9993 43.2557 95.0841 47.6051 92.2538C47.795 91.0836 48.5611 87.0847 50.7312 82.6787C52.2224 79.6509 54.072 77.0572 56.2287 74.9695C58.9362 72.3485 62.1327 70.5254 65.7294 69.5509C69.2798 68.585 72.6747 68.1661 75.8194 68.3061C78.3518 68.4188 80.7288 68.8921 82.8846 69.7128C85.4636 70.6947 87.1048 71.936 87.8908 72.6294C88.3473 72.1649 89.1096 71.429 90.1592 70.5499C91.7908 69.183 94.459 67.1952 97.9045 65.4875C101.783 63.565 105.836 62.3812 109.951 61.9689C115.094 61.4535 120.343 62.1491 125.552 64.0361C130.794 65.935 134.868 68.7933 137.662 72.5317C139.903 75.5309 141.323 79.0902 141.881 83.1107C142.375 86.6662 142.089 89.9321 141.762 92.0458C141.58 93.2169 141.369 94.1671 141.203 94.8251C141.219 94.8251 141.235 94.825 141.251 94.825C142.466 94.825 144.482 95.0956 146.488 96.5624C147.847 97.5556 148.993 98.9524 149.896 100.714C150.962 102.793 151.699 105.408 152.088 108.489C152.533 112.005 151.991 115.498 150.476 118.871C149.274 121.545 147.462 124.146 145.089 126.602C141.072 130.759 136.884 133.036 136.708 133.131C136.604 133.187 136.49 133.214 136.377 133.214ZM80.8999 99.921C80.9259 99.921 80.9516 99.9211 80.9777 99.9212L116.836 100.083C121.773 100.104 126.492 101.994 130.122 105.406C133.747 108.813 135.982 113.449 136.416 118.459C136.736 122.199 136.962 128.607 137.047 131.266C138.518 130.347 141.385 128.39 144.107 125.566C149.22 120.264 151.433 114.58 150.686 108.672C150.017 103.375 148.336 99.7 145.689 97.749C144.6 96.9465 143.38 96.4629 142.064 96.3117C141.069 96.1975 140.388 96.3264 140.381 96.3277C140.134 96.3778 139.881 96.2902 139.714 96.098C139.548 95.9058 139.495 95.6375 139.575 95.3944C139.58 95.3809 140.036 93.9688 140.373 91.7714C140.682 89.7534 140.95 86.6392 140.475 83.2623C139.263 74.6661 134.083 68.6534 125.078 65.391C113.737 61.2823 104.378 63.8787 98.5236 66.7804C92.172 69.9286 88.4783 74.0793 88.4417 74.1208C88.3083 74.2725 88.1178 74.3596 87.9177 74.3603C87.9168 74.3603 87.916 74.3603 87.9151 74.3603C87.7159 74.3603 87.526 74.2748 87.392 74.1248C87.3771 74.1083 85.7265 72.3108 82.3019 71.0268C79.1317 69.8383 73.7464 68.8585 66.0938 70.9404C59.9676 72.6004 55.2243 76.7664 51.995 83.3229C49.5701 88.2464 48.9615 92.7365 48.9556 92.7814C48.9278 92.9939 48.8082 93.1827 48.6295 93.2963C39.8714 98.8643 34.6427 108.461 34.6427 118.968L34.6222 127.786L55.0368 126.651C55.0472 126.65 55.0576 126.65 55.068 126.65C58.4991 126.613 61.1134 123.965 61.1493 120.49C61.1493 120.488 61.1493 120.486 61.1494 120.484L61.1625 119.77C61.1931 117.072 61.7397 114.46 62.7872 112.006C63.799 109.636 65.2341 107.511 67.0524 105.69C68.8701 103.87 70.981 102.445 73.3264 101.453C75.7298 100.436 78.2776 99.921 80.8999 99.921Z" fill="#212121"/>
<path d="M34.4328 140.952C37.1512 140.952 39.355 143.194 39.355 145.96C39.355 148.726 37.1512 150.968 34.4328 150.968C34.1096 150.968 33.7937 150.936 33.4878 150.876" fill="#212121"/>
<path d="M34.4328 151.687C34.0698 151.687 33.7065 151.651 33.3528 151.582C32.9696 151.506 32.7194 151.128 32.7939 150.738C32.8684 150.348 33.2394 150.094 33.6227 150.17C33.8876 150.222 34.1602 150.249 34.4328 150.249C36.7571 150.249 38.648 148.325 38.648 145.96C38.648 143.595 36.7571 141.671 34.4328 141.671C34.0424 141.671 33.7259 141.35 33.7259 140.952C33.7259 140.555 34.0423 140.233 34.4328 140.233C37.5366 140.233 40.0617 142.802 40.0617 145.96C40.0617 149.118 37.5366 151.687 34.4328 151.687Z" fill="white"/>
<path d="M42.5613 152.466C43.2471 152.097 44.0289 151.888 44.8587 151.888C47.5772 151.888 49.7809 154.13 49.7809 156.896C49.7809 158.254 49.2498 159.485 48.3875 160.387" fill="#212121"/>
<path d="M48.3874 161.106C48.2098 161.106 48.032 161.039 47.8946 160.903C47.6147 160.626 47.6085 160.171 47.8807 159.886C48.6502 159.081 49.074 158.019 49.074 156.896C49.074 154.531 47.183 152.608 44.8587 152.608C44.1732 152.608 43.493 152.778 42.8917 153.102C42.5466 153.288 42.1189 153.153 41.9364 152.802C41.7539 152.451 41.8857 152.016 42.2309 151.83C43.035 151.398 43.9437 151.169 44.8587 151.169C47.9626 151.169 50.4877 153.738 50.4877 156.896C50.4877 158.396 49.9218 159.814 48.8942 160.889C48.7556 161.034 48.5716 161.106 48.3874 161.106Z" fill="white"/>
<path d="M56.0395 155.857L46.7406 155.763C39.0096 155.672 32.8129 149.22 32.9021 141.355C32.9913 133.489 39.3326 127.189 47.0636 127.28L56.3625 127.374" fill="white"/>
<path d="M56.0395 156.576C56.0371 156.576 56.0347 156.576 56.0323 156.576L46.7334 156.482C44.7474 156.458 42.8259 156.04 41.0212 155.238C39.2785 154.464 37.7179 153.367 36.383 151.977C35.0481 150.587 34.0059 148.975 33.2852 147.184C32.5389 145.33 32.1722 143.366 32.1951 141.347C32.218 139.327 32.6292 137.372 33.4173 135.537C34.1784 133.764 35.2569 132.177 36.623 130.819C37.9891 129.462 39.5741 128.402 41.334 127.669C43.1563 126.91 45.0866 126.537 47.0716 126.561L56.3694 126.655C56.7598 126.659 57.0731 126.984 57.0692 127.381C57.0653 127.778 56.7464 128.096 56.3553 128.093L47.0564 127.999C43.5043 127.957 40.1506 129.324 37.6109 131.848C35.071 134.372 33.6496 137.751 33.6087 141.363C33.5677 144.975 34.9121 148.387 37.3941 150.972C39.8761 153.556 43.1983 155.002 46.7485 155.044L56.0464 155.138C56.4368 155.142 56.7501 155.467 56.7461 155.864C56.7423 156.259 56.4266 156.576 56.0395 156.576Z" fill="#212121"/>
<path d="M48.0689 149.616C48.0661 149.616 48.0633 149.616 48.0605 149.616L46.8104 149.601C42.43 149.55 38.9075 145.882 38.9581 141.426C38.9826 139.266 39.8064 137.251 41.278 135.75C42.7626 134.237 44.7462 133.418 46.8584 133.442L48.2425 133.456C48.6329 133.46 48.9463 133.785 48.9425 134.182C48.9388 134.577 48.623 134.894 48.2359 134.894C48.2335 134.894 48.2313 134.894 48.2289 134.894L46.8435 134.88C46.8177 134.88 46.7917 134.88 46.766 134.88C43.2152 134.88 40.4136 137.747 40.3717 141.442C40.3302 145.106 43.2259 148.121 46.8268 148.163L48.0769 148.178C48.4673 148.182 48.7801 148.508 48.7756 148.905C48.7711 149.299 48.4555 149.616 48.0689 149.616Z" fill="#212121"/>
<path d="M44.8619 162.623C41.7581 162.623 39.2329 160.054 39.2329 156.896C39.2329 154.767 40.3829 152.826 42.234 151.83C42.5792 151.645 43.0069 151.779 43.1893 152.13C43.3718 152.481 43.24 152.916 42.8949 153.102C41.5081 153.848 40.6466 155.302 40.6466 156.896C40.6466 159.261 42.5376 161.185 44.8619 161.185C46.01 161.185 47.0833 160.723 47.8839 159.886C48.1561 159.601 48.6036 159.595 48.8835 159.872C49.1634 160.149 49.1695 160.604 48.8974 160.889C47.8282 162.007 46.3951 162.623 44.8619 162.623Z" fill="white"/>
<path d="M40.9802 153.817C41.407 153.26 41.9468 152.798 42.5644 152.466L40.9802 153.817Z" fill="#212121"/>
<path d="M40.9798 154.536C40.8277 154.536 40.6744 154.486 40.5453 154.383C40.2376 154.139 40.1829 153.687 40.4232 153.374C40.9101 152.74 41.5363 152.206 42.2341 151.83C42.5792 151.645 43.0069 151.779 43.1894 152.13C43.3719 152.481 43.2401 152.916 42.8949 153.102C42.3721 153.383 41.9026 153.783 41.5374 154.259C41.398 154.441 41.19 154.536 40.9798 154.536Z" fill="#212121"/>
<path d="M33.4919 151.595C33.4471 151.595 33.4018 151.591 33.3562 151.582C30.7203 151.06 28.8071 148.696 28.8071 145.96C28.8071 142.802 31.3323 140.233 34.4361 140.233C34.8265 140.233 35.143 140.555 35.143 140.952C35.143 141.35 34.8266 141.671 34.4361 141.671C32.1118 141.671 30.2209 143.595 30.2209 145.96C30.2209 148.009 31.6529 149.779 33.626 150.17C34.0092 150.245 34.2595 150.623 34.1849 151.013C34.1193 151.356 33.8235 151.595 33.4919 151.595Z" fill="#212121"/>
<path d="M122.918 141.046C125.028 138.9 125.028 135.42 122.918 133.274C120.809 131.128 117.388 131.128 115.279 133.274C113.169 135.42 113.169 138.9 115.279 141.046C117.389 143.192 120.809 143.192 122.918 141.046Z" fill="#212121"/>
<path d="M89.735 140.656C91.8444 138.51 91.8444 135.03 89.7348 132.884C87.6252 130.738 84.205 130.738 82.0955 132.884C79.986 135.031 79.986 138.51 82.0956 140.656C84.2052 142.803 87.6255 142.803 89.735 140.656Z" fill="#212121"/>
<path d="M84.4534 152.834C84.1899 152.834 83.9371 152.683 83.8156 152.425L81.1703 146.813C81.0014 146.455 81.15 146.026 81.502 145.854C81.854 145.682 82.2762 145.833 82.445 146.192L85.0903 151.803C85.2591 152.162 85.1106 152.591 84.7586 152.763C84.66 152.811 84.5559 152.834 84.4534 152.834Z" fill="#212121"/>
<path d="M81.0647 152.794C80.8012 152.794 80.5484 152.644 80.4269 152.386L77.7816 146.774C77.6128 146.416 77.7613 145.986 78.1133 145.814C78.4654 145.643 78.8875 145.794 79.0563 146.152L81.7016 151.764C81.8704 152.122 81.7219 152.551 81.3699 152.723C81.2713 152.771 81.1672 152.794 81.0647 152.794Z" fill="#212121"/>
<path d="M77.6763 152.754C77.4128 152.754 77.16 152.604 77.0385 152.346L74.3932 146.734C74.2243 146.376 74.3729 145.946 74.7249 145.774C75.0769 145.603 75.4991 145.754 75.6679 146.112L78.3132 151.724C78.482 152.082 78.3335 152.512 77.9815 152.683C77.8829 152.731 77.7788 152.754 77.6763 152.754Z" fill="#212121"/>
<path d="M122.029 153.275C121.921 153.275 121.812 153.25 121.709 153.197C121.361 153.017 121.223 152.584 121.399 152.23L124.171 146.681C124.348 146.327 124.774 146.186 125.122 146.366C125.47 146.546 125.608 146.979 125.432 147.333L122.66 152.881C122.535 153.131 122.287 153.275 122.029 153.275Z" fill="#212121"/>
<path d="M125.417 153.315C125.31 153.315 125.2 153.29 125.098 153.236C124.75 153.057 124.611 152.624 124.788 152.27L127.56 146.721C127.737 146.367 128.162 146.226 128.51 146.406C128.858 146.586 128.997 147.019 128.82 147.373L126.048 152.921C125.923 153.171 125.675 153.315 125.417 153.315Z" fill="#212121"/>
<path d="M128.806 153.354C128.698 153.354 128.589 153.329 128.486 153.276C128.138 153.096 128 152.663 128.176 152.309L130.948 146.761C131.125 146.407 131.551 146.266 131.899 146.446C132.247 146.626 132.385 147.059 132.209 147.413L129.437 152.961C129.312 153.211 129.064 153.354 128.806 153.354Z" fill="#212121"/>
<path d="M76.7332 126.571L93.2033 126.765C95.2328 126.788 96.897 125.134 96.9204 123.069C96.9438 121.004 95.3176 119.311 93.288 119.287L76.818 119.094C74.7885 119.07 73.1243 120.725 73.1008 122.79C73.0775 124.854 74.7037 126.548 76.7332 126.571Z" fill="#212121"/>
<path d="M112.197 126.988L128.667 127.181C130.696 127.205 132.361 125.55 132.384 123.485C132.407 121.421 130.781 119.727 128.752 119.704L112.282 119.51C110.252 119.486 108.588 121.141 108.564 123.206C108.541 125.271 110.167 126.964 112.197 126.988Z" fill="#212121"/>
<path d="M108.879 157.847C108.877 157.847 108.874 157.847 108.871 157.846L102.009 157.766C101.618 157.761 101.305 157.436 101.31 157.039C101.314 156.644 101.63 156.328 102.017 156.328C102.019 156.328 102.022 156.328 102.025 156.328L108.174 156.4C108.149 151.748 107.379 147.371 106.72 144.459C105.966 141.131 105.189 138.943 105.181 138.922C105.048 138.549 105.237 138.136 105.603 138C105.97 137.864 106.376 138.056 106.509 138.429C106.542 138.521 107.319 140.704 108.092 144.112C108.805 147.255 109.643 152.067 109.586 157.136C109.582 157.53 109.266 157.847 108.879 157.847Z" fill="#212121"/>
<path d="M106.298 167.636C104.743 169.218 102.059 170.812 98.0242 169.573C90.9962 167.414 92.0556 160.401 92.0556 160.401L107.984 165.294C107.984 165.294 107.452 166.462 106.298 167.636Z" fill="white"/>
<path d="M100.803 170.734C99.8434 170.734 98.8467 170.577 97.8198 170.261C93.8917 169.055 92.3395 166.402 91.729 164.389C91.075 162.233 91.3451 160.37 91.357 160.292C91.3881 160.086 91.5054 159.904 91.6786 159.793C91.8518 159.682 92.064 159.652 92.2599 159.713L108.188 164.605C108.384 164.665 108.545 164.809 108.629 164.999C108.713 165.189 108.712 165.407 108.626 165.596C108.602 165.648 108.027 166.894 106.798 168.144C105.77 169.191 104.594 169.933 103.304 170.348C102.505 170.606 101.669 170.734 100.803 170.734ZM92.7068 161.352C92.7048 162.008 92.7737 162.98 93.0953 164.016C93.845 166.43 95.572 168.068 98.2285 168.884C101.939 170.024 104.393 168.558 105.799 167.127C106.296 166.621 106.67 166.113 106.925 165.719L92.7068 161.352Z" fill="#212121"/>
</svg>
