<svg width="232" height="248" viewBox="0 0 232 248" fill="none" xmlns="http://www.w3.org/2000/svg">
<path d="M3.00025 1C10.0148 65.6341 36.5699 93.6924 78.1562 100.206C125.744 107.659 155.817 119.746 174.356 144.798C187.169 162.114 212.268 208.598 217.445 228.973" stroke="black" stroke-width="5" stroke-dasharray="16 16"/>
<path d="M227.104 228.461C227.208 228.307 227.338 228.18 227.486 228.087C227.634 227.994 227.798 227.937 227.968 227.918C228.138 227.9 228.311 227.921 228.477 227.98C228.643 228.039 228.799 228.136 228.935 228.263C229.072 228.391 229.187 228.548 229.274 228.725C229.36 228.901 229.417 229.095 229.44 229.294C229.463 229.493 229.453 229.694 229.41 229.884C229.366 230.075 229.29 230.253 229.186 230.406L219.404 244.889C219.202 245.188 218.906 245.381 218.577 245.427C218.247 245.474 217.91 245.371 217.633 245.14L204.211 233.945C204.066 233.827 203.941 233.679 203.844 233.507C203.747 233.335 203.679 233.144 203.645 232.945C203.61 232.746 203.61 232.543 203.644 232.347C203.677 232.151 203.744 231.967 203.841 231.805C203.938 231.643 204.062 231.506 204.206 231.403C204.351 231.299 204.513 231.231 204.683 231.203C204.853 231.174 205.028 231.186 205.197 231.236C205.367 231.287 205.527 231.376 205.669 231.498L218.068 241.84L227.104 228.461Z" fill="black"/>
</svg>
