<svg width="323" height="196" viewBox="0 0 323 196" fill="none" xmlns="http://www.w3.org/2000/svg">
<g filter="url(#filter0_b_230_2941)">
<path d="M318.284 91.4544C284.591 185.077 220.784 147.311 155.784 170.954C76.1032 199.938 19.7842 223.454 2.78413 113.954C-9.63728 -5.77167 15.3428 -21.2246 163.284 21.9543C241.591 44.8092 343.713 20.7958 318.284 91.4544Z" fill="#F7FFD4" fill-opacity="0.63"/>
<path d="M317.814 91.2851C309.411 114.634 299.147 129.745 287.496 139.668C275.847 149.588 262.772 154.356 248.684 156.955C238.246 158.88 227.283 159.609 215.935 160.365C211.942 160.631 207.901 160.9 203.819 161.225C188.156 162.473 171.927 164.55 155.613 170.484C153.615 171.211 151.632 171.934 149.664 172.652C132.004 179.093 115.57 185.086 100.522 189.192C83.7932 193.755 68.8345 195.968 55.8578 193.892C42.9087 191.82 31.9045 185.475 23.0668 172.845C14.2154 160.196 7.52497 141.224 3.28015 113.89C0.176522 83.9707 -0.583643 60.617 2.31105 43.0793C5.20401 25.5521 11.7329 13.9111 23.1488 7.29763C34.5973 0.665243 51.0653 -0.975768 73.987 1.77319C96.896 4.52063 126.163 11.6409 163.144 22.4343C182.766 28.1614 203.869 30.9493 224.063 33.0166C229.343 33.5571 234.558 34.0482 239.668 34.5294C254.125 35.8907 267.742 37.173 279.598 39.2703C295.662 42.1122 308.335 46.429 315.433 54.334C322.48 62.1816 324.14 73.7059 317.814 91.2851Z" stroke="#F8F8F8"/>
</g>
<path d="M54.32 78.752C52.976 79.904 51.728 81.248 50.576 82.784C49.488 84.256 48.496 85.824 47.6 87.488C46.768 89.152 46.096 90.848 45.584 92.576C45.136 94.304 44.912 96 44.912 97.664C44.912 99.328 45.168 100.864 45.68 102.272C46.192 103.68 46.992 104.928 48.08 106.016H63.344V72.8H79.088V91.616H85.808V116H79.088C79.088 117.984 78.704 119.84 77.936 121.568C77.168 123.36 76.144 124.896 74.864 126.176C73.584 127.456 72.048 128.48 70.256 129.248C68.528 130.016 66.672 130.4 64.688 130.4H47.696C44.496 130.4 41.776 129.856 39.536 128.768C37.296 127.68 35.44 126.048 33.968 123.872C32.56 121.76 31.504 119.04 30.8 115.712C30.16 112.32 29.84 107.712 29.84 101.888C29.84 97.664 30.608 93.472 32.144 89.312C33.68 85.152 35.824 81.632 38.576 78.752H54.32ZM56.144 67.712C54.288 67.712 52.688 67.136 51.344 65.984C50.064 64.768 49.424 63.296 49.424 61.568C49.424 59.84 50.064 58.368 51.344 57.152C52.688 55.936 54.288 55.328 56.144 55.328C58 55.328 59.568 55.936 60.848 57.152C62.128 58.368 62.768 59.84 62.768 61.568C62.768 63.296 62.128 64.768 60.848 65.984C59.568 67.136 58 67.712 56.144 67.712ZM89.6525 91.616V47.84H105.397V91.616H111.445V116H102.805L100.021 112.256C98.7405 113.408 97.2685 114.336 95.6045 115.04C93.9405 115.68 92.1805 116 90.3245 116H85.8125C84.9805 116 84.3085 115.744 83.7965 115.232C83.2205 114.656 82.9325 113.952 82.9325 113.12V94.496C82.9325 93.664 83.2205 92.992 83.7965 92.48C84.3085 91.904 84.9805 91.616 85.8125 91.616H89.6525ZM119.662 91.616V72.8H135.406V92.96C135.278 101.216 134.51 106.688 133.102 109.376C131.694 112 129.806 113.76 127.438 114.656C125.134 115.552 122.99 116 121.006 116H111.406C110.574 116 109.902 115.744 109.39 115.232C108.814 114.656 108.526 113.952 108.526 113.12V94.496C108.526 93.664 108.814 92.992 109.39 92.48C109.902 91.904 110.574 91.616 111.406 91.616H119.662ZM120.814 145.088C118.958 145.088 117.358 144.48 116.014 143.264C114.734 142.112 114.094 140.672 114.094 138.944C114.094 137.216 114.734 135.744 116.014 134.528C117.358 133.312 118.958 132.704 120.814 132.704C122.67 132.704 124.238 133.312 125.518 134.528C126.862 135.744 127.534 137.216 127.534 138.944C127.534 140.672 126.862 142.112 125.518 143.264C124.238 144.48 122.67 145.088 120.814 145.088ZM120.814 128.864C120.494 129.888 119.95 130.752 119.182 131.456C117.902 132.672 116.334 133.28 114.478 133.28C112.622 133.28 111.054 132.672 109.774 131.456C108.43 130.304 107.758 128.864 107.758 127.136C107.758 125.408 108.43 123.936 109.774 122.72C111.054 121.504 112.622 120.896 114.478 120.896C116.334 120.896 117.902 121.504 119.182 122.72C119.95 123.488 120.494 124.384 120.814 125.408C121.134 124.384 121.71 123.488 122.542 122.72C123.886 121.504 125.486 120.896 127.342 120.896C129.198 120.896 130.766 121.504 132.046 122.72C133.326 123.936 133.966 125.408 133.966 127.136C133.966 128.864 133.326 130.304 132.046 131.456C130.766 132.672 129.198 133.28 127.342 133.28C125.486 133.28 123.886 132.672 122.542 131.456C121.71 130.752 121.134 129.888 120.814 128.864ZM148.318 116V91.616H164.062C164.062 90.592 163.902 89.376 163.582 87.968C163.262 86.56 162.75 85.12 162.046 83.648C161.406 82.112 160.606 80.672 159.646 79.328C158.686 77.92 157.534 76.736 156.19 75.776L161.374 65.408C164.702 67.264 167.518 69.312 169.822 71.552C172.19 73.792 174.11 76.096 175.582 78.464C177.054 80.768 178.11 83.072 178.75 85.376C179.39 87.616 179.71 89.696 179.71 91.616H183.646V116H177.886L175.102 112.256C173.886 113.344 172.414 114.24 170.686 114.944C169.022 115.648 167.262 116 165.406 116H148.318ZM191.944 91.616V72.8H207.688V92.96C207.688 95.584 207.624 98.752 207.496 102.464C207.368 106.112 206.504 108.896 204.904 110.816C203.304 112.736 201.448 114.08 199.336 114.848C197.288 115.616 195.272 116 193.288 116H183.688C182.855 116 182.183 115.744 181.671 115.232C181.095 114.656 180.807 113.952 180.807 113.12V94.496C180.807 93.664 181.095 92.992 181.671 92.48C182.183 91.904 182.855 91.616 183.688 91.616H191.944ZM192.232 129.152C191.912 130.176 191.368 131.04 190.6 131.744C189.32 132.96 187.752 133.568 185.896 133.568C184.04 133.568 182.471 132.96 181.191 131.744C179.847 130.592 179.175 129.152 179.175 127.424C179.175 125.696 179.847 124.224 181.191 123.008C182.471 121.792 184.04 121.184 185.896 121.184C187.752 121.184 189.32 121.792 190.6 123.008C191.368 123.776 191.912 124.672 192.232 125.696C192.552 124.672 193.128 123.776 193.96 123.008C195.304 121.792 196.904 121.184 198.76 121.184C200.616 121.184 202.184 121.792 203.464 123.008C204.744 124.224 205.384 125.696 205.384 127.424C205.384 129.152 204.744 130.592 203.464 131.744C202.184 132.96 200.616 133.568 198.76 133.568C196.904 133.568 195.304 132.96 193.96 131.744C193.128 131.04 192.552 130.176 192.232 129.152ZM208.429 117.728C209.069 117.856 209.709 117.952 210.349 118.016C210.925 118.08 211.469 118.112 211.981 118.112C214.669 118.112 216.781 117.376 218.317 115.904C219.853 114.368 220.621 111.936 220.621 108.608V72.8H236.365V91.616H241.741V116H236.173C235.533 121.12 233.645 124.832 230.509 127.136C227.437 129.44 223.597 130.592 218.989 130.592C215.021 130.592 210.701 129.76 206.029 128.096L208.429 117.728ZM270.999 91.616C270.679 91.04 270.263 90.272 269.751 89.312C269.303 88.288 268.631 87.296 267.735 86.336C266.839 85.312 265.687 84.448 264.279 83.744C262.871 82.976 261.111 82.592 258.999 82.592C255.863 82.592 252.599 83.904 249.207 86.528C248.631 84.864 248.023 83.264 247.383 81.728C246.743 80.128 246.135 78.496 245.559 76.832C248.247 74.016 251.063 72 254.007 70.784C257.015 69.568 260.151 68.96 263.415 68.96C266.999 68.96 269.879 69.536 272.055 70.688C274.295 71.776 276.119 73.152 277.527 74.816C278.999 76.48 280.183 78.304 281.079 80.288C281.975 82.272 282.871 84.096 283.767 85.76C284.727 87.424 285.847 88.832 287.127 89.984C288.471 91.072 290.231 91.616 292.407 91.616H296.727C296.919 94.944 296.247 99.104 294.711 104.096C293.239 109.088 291.287 112.32 288.855 113.792C286.487 115.264 284.151 116 281.847 116H241.719C240.887 116 240.215 115.744 239.703 115.232C239.127 114.656 238.839 113.952 238.839 113.12V94.496C238.839 93.664 239.127 92.992 239.703 92.48C240.215 91.904 240.887 91.616 241.719 91.616H270.999ZM259.767 63.488C257.911 63.488 256.311 62.912 254.967 61.76C253.687 60.544 253.047 59.072 253.047 57.344C253.047 55.616 253.687 54.144 254.967 52.928C256.311 51.712 257.911 51.104 259.767 51.104C261.623 51.104 263.191 51.712 264.471 52.928C265.751 54.144 266.391 55.616 266.391 57.344C266.391 59.072 265.751 60.544 264.471 61.76C263.191 62.912 261.623 63.488 259.767 63.488Z" fill="black"/>
<defs>
<filter id="filter0_b_230_2941" x="-21.8" y="-21.8" width="365.851" height="238.775" filterUnits="userSpaceOnUse" color-interpolation-filters="sRGB">
<feFlood flood-opacity="0" result="BackgroundImageFix"/>
<feGaussianBlur in="BackgroundImageFix" stdDeviation="10.9"/>
<feComposite in2="SourceAlpha" operator="in" result="effect1_backgroundBlur_230_2941"/>
<feBlend mode="normal" in="SourceGraphic" in2="effect1_backgroundBlur_230_2941" result="shape"/>
</filter>
</defs>
</svg>
