<svg width="231" height="247" viewBox="0 0 231 247" fill="none" xmlns="http://www.w3.org/2000/svg">
<path d="M227.993 1C220.993 65.5 194.493 93.5 152.993 100C105.504 107.438 75.4932 119.5 56.9932 144.5C44.2064 161.779 19.1598 208.167 13.9932 228.5" stroke="black" stroke-width="5" stroke-dasharray="16 16"/>
<path d="M4.35464 227.989C4.25109 227.835 4.12169 227.708 3.97381 227.616C3.82593 227.523 3.66247 227.465 3.49277 227.447C3.32308 227.429 3.15046 227.45 2.98477 227.509C2.81909 227.568 2.66359 227.664 2.52714 227.791C2.3907 227.919 2.27598 228.075 2.18955 228.252C2.10312 228.428 2.04666 228.621 2.02339 228.82C2.00013 229.018 2.01052 229.218 2.05397 229.409C2.09742 229.599 2.17307 229.776 2.27662 229.93L12.0388 244.383C12.2402 244.681 12.5355 244.873 12.8642 244.92C13.1929 244.966 13.53 244.864 13.8063 244.633L27.2004 233.461C27.3451 233.344 27.4695 233.195 27.5665 233.024C27.6635 232.853 27.7311 232.662 27.7654 232.463C27.7998 232.265 27.8001 232.062 27.7664 231.866C27.7328 231.671 27.6658 231.487 27.5694 231.325C27.4729 231.164 27.349 231.027 27.2047 230.924C27.0604 230.821 26.8987 230.753 26.729 230.725C26.5592 230.696 26.3848 230.708 26.2158 230.758C26.0469 230.809 25.8867 230.897 25.7447 231.019L13.3715 241.339L4.35464 227.989Z" fill="black"/>
</svg>
