<svg width="23" height="23" viewBox="0 0 23 23" fill="none" xmlns="http://www.w3.org/2000/svg">
<path d="M15.9785 2.95428C16.2228 2.70994 16.5129 2.51612 16.8321 2.38389C17.1514 2.25165 17.4935 2.18359 17.8391 2.18359C18.1846 2.18359 18.5268 2.25165 18.846 2.38389C19.1653 2.51612 19.4553 2.70994 19.6997 2.95428C19.944 3.19861 20.1378 3.48868 20.2701 3.80792C20.4023 4.12716 20.4704 4.46932 20.4704 4.81487C20.4704 5.16041 20.4023 5.50257 20.2701 5.82181C20.1378 6.14106 19.944 6.43113 19.6997 6.67546L7.14068 19.2345L2.02405 20.6299L3.41949 15.5133L15.9785 2.95428Z" stroke="#475467" stroke-width="1.86059" stroke-linecap="round" stroke-linejoin="round"/>
</svg>
