<svg width="23" height="23" viewBox="0 0 23 23" fill="none" xmlns="http://www.w3.org/2000/svg">
<path d="M2.95447 5.74511H4.81506M4.81506 5.74511H19.6998M4.81506 5.74511V18.7693C4.81506 19.2627 5.01109 19.736 5.36002 20.0849C5.70894 20.4338 6.18219 20.6299 6.67565 20.6299H15.9786C16.4721 20.6299 16.9453 20.4338 17.2943 20.0849C17.6432 19.736 17.8392 19.2627 17.8392 18.7693V5.74511H4.81506ZM7.60595 5.74511V3.88452C7.60595 3.39106 7.80198 2.91781 8.1509 2.56888C8.49983 2.21995 8.97308 2.02393 9.46654 2.02393H13.1877C13.6812 2.02393 14.1544 2.21995 14.5034 2.56888C14.8523 2.91781 15.0483 3.39106 15.0483 3.88452V5.74511M9.46654 10.3966V15.9784M13.1877 10.3966V15.9784" stroke="#475467" stroke-width="1.86059" stroke-linecap="round" stroke-linejoin="round"/>
</svg>
