<svg width="69" height="69" viewBox="0 0 69 69" fill="none" xmlns="http://www.w3.org/2000/svg">
<path fill-rule="evenodd" clip-rule="evenodd" d="M30.6914 6.92166e-08C25.7969 0.000417031 20.9735 1.17125 16.6236 3.41482C12.2737 5.65839 8.52343 8.90964 5.68565 12.8973C2.84788 16.885 1.00491 21.4934 0.310497 26.3382C-0.383914 31.183 0.0903713 36.1235 1.69378 40.7477C3.2972 45.3719 5.98324 49.5456 9.52782 52.9206C13.0724 56.2957 17.3727 58.7741 22.07 60.1492C26.7673 61.5244 31.7254 61.7563 36.5305 60.8256C41.3357 59.895 45.8486 57.8287 49.6927 54.7993L62.8803 67.9864C63.5614 68.6441 64.4735 69.0081 65.4203 68.9999C66.3671 68.9916 67.2728 68.6119 67.9424 67.9424C68.6119 67.2729 68.9916 66.3672 68.9999 65.4205C69.0081 64.4737 68.6441 63.5616 67.9863 62.8805L54.7988 49.6935C58.3665 45.1676 60.5879 39.7288 61.2087 33.9994C61.8296 28.2701 60.8249 22.4817 58.3095 17.2966C55.7942 12.1116 51.8698 7.73948 46.9855 4.68059C42.1013 1.62169 36.4545 -0.000386886 30.6914 6.92166e-08ZM7.2195 30.6928C7.2195 24.4679 9.69242 18.498 14.0942 14.0963C18.4961 9.69466 24.4662 7.22184 30.6914 7.22184C36.9165 7.22184 42.8866 9.69466 47.2885 14.0963C51.6903 18.498 54.1632 24.4679 54.1632 30.6928C54.1632 36.9177 51.6903 42.8876 47.2885 47.2893C42.8866 51.691 36.9165 54.1638 30.6914 54.1638C24.4662 54.1638 18.4961 51.691 14.0942 47.2893C9.69242 42.8876 7.2195 36.9177 7.2195 30.6928Z" fill="#FAFBF1"/>
</svg>
